<svg width="54" height="54" viewBox="0 0 54 54" fill="none" xmlns="http://www.w3.org/2000/svg">
<rect width="54" height="54" rx="27" fill="#FF4404"/>
<g clip-path="url(#clip0_32_75)">
<path d="M32 18.5C32.7956 18.5 33.5587 18.8161 34.1213 19.3787C34.6839 19.9413 35 20.7044 35 21.5V37.5C35 37.681 34.9509 37.8587 34.8579 38.014C34.7648 38.1693 34.6314 38.2965 34.4718 38.3819C34.3121 38.4673 34.1323 38.5078 33.9515 38.499C33.7707 38.4902 33.5956 38.4325 33.445 38.332L31.127 36.787L29.707 38.207C29.5348 38.3792 29.3057 38.4826 29.0627 38.4979C28.8197 38.5132 28.5794 38.4393 28.387 38.29L28.293 38.207L27 36.915L25.707 38.207C25.5348 38.3792 25.3057 38.4826 25.0627 38.4979C24.8197 38.5132 24.5794 38.4393 24.387 38.29L24.293 38.207L22.872 36.787L20.555 38.332L20.536 38.344L20.482 38.374L20.454 38.391L20.4 38.414L20.35 38.437L20.301 38.452L20.241 38.471L20.189 38.48L20.132 38.491L20.048 38.497L20.022 38.5H20L19.951 38.497H19.912L19.899 38.494H19.883L19.842 38.486L19.804 38.481L19.789 38.476L19.771 38.474L19.737 38.463L19.697 38.453L19.678 38.446L19.663 38.442L19.634 38.429L19.594 38.414L19.573 38.403L19.56 38.398L19.532 38.382L19.496 38.364L19.482 38.354L19.464 38.344L19.426 38.317L19.404 38.303L19.394 38.294L19.374 38.28L19.329 38.239L19.317 38.231L19.293 38.207L19.258 38.168L19.238 38.148L19.231 38.137L19.22 38.125L19.188 38.08L19.168 38.055L19.156 38.036L19.126 37.982L19.109 37.954L19.086 37.9L19.063 37.85C19.0496 37.8147 19.0383 37.7786 19.029 37.742L19.019 37.685L19.009 37.632L19 37.5V21.5C19 20.7044 19.3161 19.9413 19.8787 19.3787C20.4413 18.8161 21.2044 18.5 22 18.5H32ZM30 30.5H28C27.7348 30.5 27.4804 30.6054 27.2929 30.7929C27.1054 30.9804 27 31.2348 27 31.5C27 31.7652 27.1054 32.0196 27.2929 32.2071C27.4804 32.3946 27.7348 32.5 28 32.5H30C30.2652 32.5 30.5196 32.3946 30.7071 32.2071C30.8946 32.0196 31 31.7652 31 31.5C31 31.2348 30.8946 30.9804 30.7071 30.7929C30.5196 30.6054 30.2652 30.5 30 30.5ZM30 26.5H24C23.7348 26.5 23.4804 26.6054 23.2929 26.7929C23.1054 26.9804 23 27.2348 23 27.5C23 27.7652 23.1054 28.0196 23.2929 28.2071C23.4804 28.3946 23.7348 28.5 24 28.5H30C30.2652 28.5 30.5196 28.3946 30.7071 28.2071C30.8946 28.0196 31 27.7652 31 27.5C31 27.2348 30.8946 26.9804 30.7071 26.7929C30.5196 26.6054 30.2652 26.5 30 26.5ZM30 22.5H24C23.7348 22.5 23.4804 22.6054 23.2929 22.7929C23.1054 22.9804 23 23.2348 23 23.5C23 23.7652 23.1054 24.0196 23.2929 24.2071C23.4804 24.3946 23.7348 24.5 24 24.5H30C30.2652 24.5 30.5196 24.3946 30.7071 24.2071C30.8946 24.0196 31 23.7652 31 23.5C31 23.2348 30.8946 22.9804 30.7071 22.7929C30.5196 22.6054 30.2652 22.5 30 22.5Z" fill="white"/>
</g>
<defs>
<clipPath id="clip0_32_75">
<rect width="24" height="24" fill="white" transform="translate(15 16.5)"/>
</clipPath>
</defs>
</svg>
