<svg width="54" height="54" viewBox="0 0 54 54" fill="none" xmlns="http://www.w3.org/2000/svg">
<rect width="54" height="54" rx="27" fill="#FF4404"/>
<g clip-path="url(#clip0_32_61)">
<path d="M34 19.5C34.7652 19.5 35.5015 19.7923 36.0583 20.3173C36.615 20.8422 36.9501 21.5601 36.995 22.324L37 22.5V34.5C37 35.2652 36.7077 36.0015 36.1827 36.5583C35.6578 37.115 34.9399 37.4501 34.176 37.495L34 37.5H20C19.2348 37.5 18.4985 37.2077 17.9417 36.6827C17.385 36.1578 17.0499 35.4399 17.005 34.676L17 34.5V22.5C17 21.7348 17.2923 20.9985 17.8173 20.4417C18.3422 19.885 19.0601 19.5499 19.824 19.505L20 19.5H34ZM32 31.5H22L21.883 31.507C21.64 31.5359 21.4159 31.653 21.2534 31.836C21.0909 32.019 21.0011 32.2552 21.0011 32.5C21.0011 32.7448 21.0909 32.981 21.2534 33.164C21.4159 33.347 21.64 33.4641 21.883 33.493L22 33.5H32L32.117 33.493C32.3601 33.4641 32.5841 33.347 32.7466 33.164C32.9091 32.981 32.9989 32.7448 32.9989 32.5C32.9989 32.2552 32.9091 32.019 32.7466 31.836C32.5841 31.653 32.3601 31.5359 32.117 31.507L32 31.5ZM32 27.5H22L21.883 27.507C21.64 27.5359 21.4159 27.653 21.2534 27.836C21.0909 28.019 21.0011 28.2552 21.0011 28.5C21.0011 28.7448 21.0909 28.981 21.2534 29.164C21.4159 29.347 21.64 29.4641 21.883 29.493L22 29.5H32L32.117 29.493C32.3601 29.4641 32.5841 29.347 32.7466 29.164C32.9091 28.981 32.9989 28.7448 32.9989 28.5C32.9989 28.2552 32.9091 28.019 32.7466 27.836C32.5841 27.653 32.3601 27.5359 32.117 27.507L32 27.5ZM32 23.5H22L21.883 23.507C21.64 23.5359 21.4159 23.653 21.2534 23.836C21.0909 24.019 21.0011 24.2552 21.0011 24.5C21.0011 24.7448 21.0909 24.981 21.2534 25.164C21.4159 25.347 21.64 25.4641 21.883 25.493L22 25.5H32L32.117 25.493C32.3601 25.4641 32.5841 25.347 32.7466 25.164C32.9091 24.981 32.9989 24.7448 32.9989 24.5C32.9989 24.2552 32.9091 24.019 32.7466 23.836C32.5841 23.653 32.3601 23.5359 32.117 23.507L32 23.5Z" fill="white"/>
</g>
<defs>
<clipPath id="clip0_32_61">
<rect width="24" height="24" fill="white" transform="translate(15 16.5)"/>
</clipPath>
</defs>
</svg>
