<svg width="54" height="54" viewBox="0 0 54 54" fill="none" xmlns="http://www.w3.org/2000/svg">
<rect width="54" height="54" rx="27" fill="#FF4404"/>
<g clip-path="url(#clip0_33_45)">
<path d="M32 18.5C32.7956 18.5 33.5587 18.8161 34.1213 19.3787C34.6839 19.9413 35 20.7044 35 21.5V37.5C35 37.681 34.9509 37.8587 34.8579 38.014C34.7648 38.1693 34.6314 38.2965 34.4718 38.3819C34.3121 38.4673 34.1323 38.5078 33.9515 38.499C33.7707 38.4902 33.5956 38.4325 33.445 38.332L31.127 36.787L29.707 38.207C29.5348 38.3792 29.3057 38.4826 29.0627 38.4979C28.8197 38.5132 28.5794 38.4393 28.387 38.29L28.293 38.207L27 36.915L25.707 38.207C25.5348 38.3792 25.3057 38.4826 25.0627 38.4979C24.8197 38.5132 24.5794 38.4393 24.387 38.29L24.293 38.207L22.872 36.787L20.555 38.332C20.4123 38.4275 20.2474 38.4847 20.0762 38.4979C19.905 38.5112 19.7333 38.4802 19.5775 38.4079C19.4218 38.3355 19.2873 38.2243 19.187 38.0849C19.0868 37.9455 19.0241 37.7827 19.005 37.612L19 37.5V21.5C19 20.7044 19.3161 19.9413 19.8787 19.3787C20.4413 18.8161 21.2044 18.5 22 18.5H32ZM28.125 22.5C26.079 22.5 24.457 24.246 24.082 26.5H24C23.7348 26.5 23.4804 26.6054 23.2929 26.7929C23.1054 26.9804 23 27.2348 23 27.5C23 27.7652 23.1054 28.0196 23.2929 28.2071C23.4804 28.3946 23.7348 28.5 24 28.5H24.082C24.458 30.754 26.079 32.5 28.125 32.5C29.231 32.5 30.178 32.035 30.832 31.055C30.9792 30.8343 31.0327 30.5642 30.9808 30.3041C30.9288 30.044 30.7757 29.8152 30.555 29.668C30.3343 29.5208 30.0642 29.4673 29.8041 29.5192C29.544 29.5712 29.3152 29.7243 29.168 29.945C28.901 30.346 28.588 30.5 28.125 30.5C27.243 30.5 26.425 29.686 26.123 28.501L28 28.5C28.2652 28.5 28.5196 28.3946 28.7071 28.2071C28.8946 28.0196 29 27.7652 29 27.5C29 27.2348 28.8946 26.9804 28.7071 26.7929C28.5196 26.6054 28.2652 26.5 28 26.5H26.123C26.424 25.314 27.243 24.5 28.125 24.5C28.587 24.5 28.901 24.654 29.168 25.055C29.3152 25.2757 29.544 25.4288 29.8041 25.4808C30.0642 25.5327 30.3343 25.4792 30.555 25.332C30.7757 25.1848 30.9288 24.956 30.9808 24.6959C31.0327 24.4358 30.9792 24.1657 30.832 23.945C30.178 22.965 29.232 22.5 28.125 22.5Z" fill="white"/>
</g>
<defs>
<clipPath id="clip0_33_45">
<rect width="24" height="24" fill="white" transform="translate(15 16.5)"/>
</clipPath>
</defs>
</svg>
