<svg width="54" height="54" viewBox="0 0 54 54" fill="none" xmlns="http://www.w3.org/2000/svg">
<rect width="54" height="54" rx="27" fill="#FF4404"/>
<g clip-path="url(#clip0_32_101)">
<path d="M32.997 20.67C33.5827 20.8764 34.09 21.2594 34.4487 21.7663C34.8075 22.2732 35.0001 22.879 35 23.5V35.5C35 36.2956 34.6839 37.0587 34.1213 37.6213C33.5587 38.1839 32.7956 38.5 32 38.5H22C21.2044 38.5 20.4413 38.1839 19.8787 37.6213C19.3161 37.0587 19 36.2956 19 35.5V23.5C18.9999 22.879 19.1925 22.2732 19.5513 21.7663C19.91 21.2594 20.4173 20.8764 21.003 20.67C21.0468 21.7006 21.4871 22.6744 22.2319 23.3881C22.9767 24.1018 23.9685 24.5002 25 24.5H29C29.9912 24.5001 30.947 24.1322 31.6824 23.4676C32.4177 22.803 32.8801 21.8891 32.98 20.903L32.997 20.67ZM24 28.5C23.7348 28.5 23.4804 28.6054 23.2929 28.7929C23.1054 28.9804 23 29.2348 23 29.5V33.5C23 33.7652 23.1054 34.0196 23.2929 34.2071C23.4804 34.3946 23.7348 34.5 24 34.5C24.2652 34.5 24.5196 34.3946 24.7071 34.2071C24.8946 34.0196 25 33.7652 25 33.5V29.5C25 29.2348 24.8946 28.9804 24.7071 28.7929C24.5196 28.6054 24.2652 28.5 24 28.5ZM27 31.5C26.7348 31.5 26.4804 31.6054 26.2929 31.7929C26.1054 31.9804 26 32.2348 26 32.5V33.5C26 33.7652 26.1054 34.0196 26.2929 34.2071C26.4804 34.3946 26.7348 34.5 27 34.5L27.117 34.493C27.3603 34.4643 27.5845 34.3474 27.7473 34.1644C27.91 33.9813 28 33.7449 28 33.5V32.5C28 32.2348 27.8946 31.9804 27.7071 31.7929C27.5196 31.6054 27.2652 31.5 27 31.5ZM30 30.5C29.7348 30.5 29.4804 30.6054 29.2929 30.7929C29.1054 30.9804 29 31.2348 29 31.5V33.5C29 33.7652 29.1054 34.0196 29.2929 34.2071C29.4804 34.3946 29.7348 34.5 30 34.5C30.2652 34.5 30.5196 34.3946 30.7071 34.2071C30.8946 34.0196 31 33.7652 31 33.5V31.5C31 31.2348 30.8946 30.9804 30.7071 30.7929C30.5196 30.6054 30.2652 30.5 30 30.5ZM29 18.5C29.5304 18.5 30.0391 18.7107 30.4142 19.0858C30.7893 19.4609 31 19.9696 31 20.5C31 21.0304 30.7893 21.5391 30.4142 21.9142C30.0391 22.2893 29.5304 22.5 29 22.5H25C24.4696 22.5 23.9609 22.2893 23.5858 21.9142C23.2107 21.5391 23 21.0304 23 20.5C23 19.9696 23.2107 19.4609 23.5858 19.0858C23.9609 18.7107 24.4696 18.5 25 18.5H29Z" fill="white"/>
</g>
<defs>
<clipPath id="clip0_32_101">
<rect width="24" height="24" fill="white" transform="translate(15 16.5)"/>
</clipPath>
</defs>
</svg>
