<svg width="54" height="54" viewBox="0 0 54 54" fill="none" xmlns="http://www.w3.org/2000/svg">
<rect width="54" height="54" rx="27" fill="#FF4404"/>
<g clip-path="url(#clip0_32_68)">
<path d="M27 18.5L27.117 18.507C27.3402 18.5333 27.5481 18.6341 27.707 18.793C27.8659 18.9519 27.9667 19.1598 27.993 19.383L28 19.5V23.5L28.005 23.65C28.0408 24.1262 28.2458 24.5738 28.5829 24.912C28.92 25.2502 29.3669 25.4567 29.843 25.494L30 25.5H34L34.117 25.507C34.3402 25.5333 34.5481 25.6341 34.707 25.793C34.8659 25.9519 34.9667 26.1598 34.993 26.383L35 26.5V35.5C35 36.2652 34.7077 37.0015 34.1827 37.5583C33.6578 38.115 32.9399 38.4501 32.176 38.495L32 38.5H22C21.2348 38.5 20.4985 38.2077 19.9417 37.6827C19.385 37.1578 19.0499 36.4399 19.005 35.676L19 35.5V21.5C19 20.7348 19.2923 19.9985 19.8173 19.4417C20.3422 18.885 21.0601 18.5499 21.824 18.505L22 18.5H27ZM30.707 28.793C30.5195 28.6055 30.2652 28.5002 30 28.5002C29.7348 28.5002 29.4805 28.6055 29.293 28.793L26 32.085L24.707 30.793C24.6148 30.6975 24.5044 30.6213 24.3824 30.5689C24.2604 30.5165 24.1292 30.4889 23.9964 30.4877C23.8636 30.4866 23.7319 30.5119 23.609 30.5622C23.4861 30.6125 23.3745 30.6867 23.2806 30.7806C23.1867 30.8745 23.1125 30.9861 23.0622 31.109C23.0119 31.2319 22.9866 31.3636 22.9877 31.4964C22.9889 31.6292 23.0165 31.7604 23.0689 31.8824C23.1213 32.0044 23.1975 32.1148 23.293 32.207L25.293 34.207C25.4805 34.3945 25.7348 34.4998 26 34.4998C26.2652 34.4998 26.5195 34.3945 26.707 34.207L30.707 30.207C30.8945 30.0195 30.9998 29.7652 30.9998 29.5C30.9998 29.2348 30.8945 28.9805 30.707 28.793ZM30 19.499L34 23.5H30V19.499Z" fill="white"/>
</g>
<defs>
<clipPath id="clip0_32_68">
<rect width="24" height="24" fill="white" transform="translate(15 16.5)"/>
</clipPath>
</defs>
</svg>
