<svg width="54" height="54" viewBox="0 0 54 54" fill="none" xmlns="http://www.w3.org/2000/svg">
<rect width="54" height="54" rx="27" fill="#FF4404"/>
<g clip-path="url(#clip0_32_92)">
<path d="M35.894 32.053C36.0124 32.2901 36.0319 32.5646 35.948 32.816C35.8642 33.0675 35.684 33.2754 35.447 33.394L27.447 37.394C27.3082 37.4634 27.1552 37.4995 27 37.4995C26.8448 37.4995 26.6918 37.4634 26.553 37.394L18.553 33.394C18.3243 33.2707 18.1525 33.0631 18.0742 32.8153C17.9958 32.5676 18.017 32.299 18.1332 32.0666C18.2494 31.8342 18.4516 31.6561 18.6968 31.5701C18.942 31.4842 19.2111 31.497 19.447 31.606L27 35.38L34.554 31.605C34.7911 31.4866 35.0656 31.4671 35.317 31.551C35.5685 31.6348 35.7764 31.815 35.895 32.052M35.895 28.052C36.0134 28.2891 36.0329 28.5636 35.949 28.815C35.8652 29.0665 35.685 29.2744 35.448 29.393L27.448 33.393C27.3092 33.4624 27.1562 33.4985 27.001 33.4985C26.8458 33.4985 26.6928 33.4624 26.554 33.393L18.554 29.393C18.3253 29.2697 18.1535 29.0621 18.0752 28.8144C17.9968 28.5666 18.018 28.298 18.1342 28.0656C18.2504 27.8332 18.4526 27.6551 18.6978 27.5691C18.943 27.4832 19.2121 27.496 19.448 27.605L27 31.38L34.554 27.605C34.7911 27.4866 35.0656 27.4671 35.317 27.551C35.5685 27.6348 35.7764 27.815 35.895 28.052ZM27.008 19.5C27.0453 19.5 27.0823 19.5023 27.119 19.507L27.23 19.527L27.316 19.551L27.328 19.557L27.34 19.559L27.369 19.573L27.419 19.592L27.435 19.601L27.447 19.606L35.447 23.606C35.6129 23.6891 35.7524 23.8168 35.8498 23.9747C35.9473 24.1326 35.9989 24.3145 35.9989 24.5C35.9989 24.6855 35.9473 24.8674 35.8498 25.0253C35.7524 25.1832 35.6129 25.3109 35.447 25.394L27.447 29.394C27.3082 29.4634 27.1552 29.4995 27 29.4995C26.8448 29.4995 26.6918 29.4634 26.553 29.394L18.553 25.394C18.3871 25.3109 18.2476 25.1832 18.1502 25.0253C18.0527 24.8674 18.0011 24.6855 18.0011 24.5C18.0011 24.3145 18.0527 24.1326 18.1502 23.9747C18.2476 23.8168 18.3871 23.6891 18.553 23.606L26.553 19.606L26.564 19.601L26.582 19.591L26.66 19.559L26.671 19.557L26.684 19.551L26.77 19.527L26.88 19.507L26.936 19.502L27.008 19.5Z" fill="white"/>
</g>
<defs>
<clipPath id="clip0_32_92">
<rect width="24" height="24" fill="white" transform="translate(15 16.5)"/>
</clipPath>
</defs>
</svg>
