<svg width="54" height="54" viewBox="0 0 54 54" fill="none" xmlns="http://www.w3.org/2000/svg">
<rect width="54" height="54" rx="27" fill="#FF4404"/>
<g clip-path="url(#clip0_32_83)">
<path d="M26.293 19.793C26.4805 19.6056 26.7348 19.5002 27 19.5002C27.2651 19.5002 27.5194 19.6056 27.707 19.793L33.707 25.793C33.7329 25.8189 33.7572 25.8463 33.78 25.875L33.786 25.883L33.802 25.905L33.844 25.964L33.853 25.979L33.86 25.989L33.874 26.016L33.898 26.06L33.905 26.077L33.915 26.097L33.927 26.129L33.942 26.163L33.949 26.188L33.957 26.208L33.962 26.234L33.974 26.271L33.978 26.299L33.984 26.324L33.987 26.35L33.993 26.383L33.995 26.413L33.998 26.441V26.467L34 26.5L33.998 26.533V26.559L33.995 26.585L33.993 26.617L33.988 26.646L33.984 26.676L33.978 26.7L33.974 26.73L33.962 26.765L33.957 26.792L33.949 26.811L33.942 26.837L33.927 26.87L33.915 26.904L33.905 26.922L33.898 26.94L33.874 26.983L33.86 27.011L33.853 27.02L33.844 27.036L33.802 27.094L33.79 27.113L33.786 27.116L33.78 27.126C33.7341 27.1828 33.6821 27.2345 33.625 27.28L33.616 27.286L33.594 27.302L33.536 27.344L33.52 27.353L33.511 27.36L33.483 27.374L33.44 27.398L33.422 27.405L33.404 27.415L33.37 27.427L33.337 27.442L33.313 27.448L33.292 27.457L33.265 27.462L33.229 27.474L33.2 27.478L33.176 27.484L33.148 27.487L33.117 27.493L33.085 27.495L33.059 27.498H33.033L33 27.5H21C20.11 27.5 19.663 26.423 20.293 25.793L26.293 19.793Z" fill="white"/>
<path d="M33 29.5L33.033 29.502H33.059L33.085 29.505L33.117 29.507L33.148 29.513L33.176 29.516L33.2 29.522L33.23 29.526L33.265 29.538L33.292 29.543L33.311 29.551L33.337 29.558L33.37 29.573L33.404 29.585L33.422 29.595L33.44 29.602L33.483 29.626L33.511 29.64L33.52 29.647L33.536 29.656L33.587 29.693L33.613 29.71L33.616 29.714L33.626 29.72C33.6829 29.7658 33.7346 29.8178 33.78 29.875L33.786 29.884L33.801 29.904L33.844 29.964L33.853 29.98L33.86 29.989L33.874 30.017L33.898 30.06L33.903 30.073L33.915 30.096L33.927 30.13L33.942 30.163L33.949 30.189L33.957 30.209L33.962 30.235L33.974 30.271L33.978 30.3L33.984 30.324L33.987 30.352L33.993 30.383L33.995 30.415L33.998 30.441V30.467L34 30.5L33.998 30.533V30.559L33.995 30.585L33.993 30.617L33.987 30.648L33.984 30.676L33.978 30.7L33.974 30.73L33.962 30.765L33.957 30.792L33.949 30.811L33.942 30.837L33.927 30.87L33.915 30.904L33.905 30.922L33.898 30.94L33.874 30.983L33.86 31.011L33.853 31.02L33.844 31.036L33.802 31.094L33.79 31.113L33.786 31.116L33.78 31.126L33.707 31.207L27.707 37.207C27.5195 37.3945 27.2652 37.4998 27 37.4998C26.7348 37.4998 26.4805 37.3945 26.293 37.207L20.293 31.207C19.663 30.577 20.109 29.5 21 29.5H33Z" fill="white"/>
</g>
<defs>
<clipPath id="clip0_32_83">
<rect width="24" height="24" fill="white" transform="translate(15 16.5)"/>
</clipPath>
</defs>
</svg>
