<svg width="54" height="42" viewBox="0 0 54 42" fill="none" xmlns="http://www.w3.org/2000/svg">
<path fill-rule="evenodd" clip-rule="evenodd" d="M26.3828 6.08186C24.6022 6.51201 22.9391 7.79124 21.8859 9.54072C21.5487 10.1008 19.8171 12.9321 18.0378 15.8326C16.2584 18.7331 14.8026 21.1396 14.8026 21.1805C14.8026 21.2213 15.0996 20.991 15.4627 20.6687C17.1994 19.1266 19.7398 18.5803 21.8667 19.2916C23.0132 19.675 23.821 20.1978 24.6316 21.0807C25.0725 21.561 26.7748 24.2193 29.9013 29.3102C32.8248 34.0705 34.7221 37.0413 35.0712 37.405C37.0315 39.4477 40.0122 40.1183 42.6817 39.1172C44.6666 38.3729 46.1707 36.7946 46.9052 34.6854C47.3071 33.5313 47.2916 31.53 46.8716 30.3566C46.6565 29.7552 44.7456 26.5442 40.3142 19.3372C36.8745 13.7433 33.8598 8.90046 33.6146 8.57543C32.0282 6.47189 29.0376 5.44065 26.3828 6.08186ZM14.1677 26.1343C11.8285 26.7249 9.87265 28.5828 9.17444 30.8771C8.23157 33.9758 9.82279 37.5067 12.8039 38.931C17.9205 41.3759 23.6352 36.9079 22.4893 31.3583C22.2616 30.2552 21.5149 28.8838 20.6852 28.045C19.8398 27.1903 19.1577 26.7539 18.0142 26.3361C17.01 25.9692 15.1977 25.8741 14.1677 26.1343Z" fill="#FF4404"/>
</svg>
