<svg width="178" height="32" viewBox="0 0 178 32" fill="none" xmlns="http://www.w3.org/2000/svg">
<g clip-path="url(#clip0_3_86)">
<path d="M16.1227 31.1557C25.0271 31.1557 32.2452 24.1815 32.2452 15.5778V4.67335C32.2452 3.4339 31.7356 2.24521 30.8285 1.36879C29.9215 0.492369 28.6912 0 27.4084 0L16.9288 0V6.83399C16.9288 8.39333 17.0272 10.0088 17.8736 11.336C18.4795 12.2872 19.2902 13.1013 20.2504 13.7231C21.2107 14.345 22.2982 14.7599 23.4391 14.9399L23.7478 14.9882C23.8751 15.0302 23.9856 15.1097 24.0638 15.2154C24.1421 15.3211 24.1841 15.4479 24.1841 15.5778C24.1841 15.7078 24.1421 15.8345 24.0638 15.9402C23.9856 16.046 23.8751 16.1254 23.7478 16.1674L23.4391 16.2157C21.7722 16.4788 20.2329 17.2412 19.0385 18.3952C17.8442 19.5491 17.0552 21.0364 16.7829 22.647L16.7329 22.9454C16.6894 23.0683 16.6072 23.1751 16.4978 23.2507C16.3884 23.3263 16.2572 23.3669 16.1227 23.3669C15.9882 23.3669 15.857 23.3263 15.7476 23.2507C15.6382 23.1751 15.556 23.0683 15.5125 22.9454L15.4625 22.647C15.2762 21.5447 14.8466 20.494 14.2031 19.5662C13.5595 18.6383 12.7169 17.8551 11.7325 17.2696C10.3589 16.4517 8.68699 16.3567 7.07313 16.3567H0.0195312C0.441135 24.5982 7.48909 31.1557 16.1227 31.1557Z" fill="#27272A"/>
<path d="M0 14.7989H7.07294C8.68681 14.7989 10.3587 14.7039 11.7323 13.8861C12.8061 13.2468 13.71 12.3735 14.3716 11.336C15.218 10.0088 15.3164 8.39333 15.3164 6.83399V0H4.83675C3.55397 0 2.32372 0.492369 1.41665 1.36879C0.509585 2.24521 0 3.4339 0 4.67335L0 14.7989ZM37.4485 1.55778C37.4485 1.97093 37.2787 2.36716 36.9763 2.6593C36.674 2.95144 36.2639 3.11557 35.8363 3.11557C35.4087 3.11557 34.9986 2.95144 34.6963 2.6593C34.3939 2.36716 34.224 1.97093 34.224 1.55778C34.224 1.14463 34.3939 0.748405 34.6963 0.456264C34.9986 0.164123 35.4087 0 35.8363 0C36.2639 0 36.674 0.164123 36.9763 0.456264C37.2787 0.748405 37.4485 1.14463 37.4485 1.55778ZM170.666 9.4277C175.173 9.4277 177.348 12.4693 177.348 15.9922V22.6089H172.631V16.7773C172.631 15.1806 172.028 13.8627 170.299 13.8627C168.57 13.8627 167.993 15.1806 167.993 16.7773V22.6081H163.277V16.7773C163.277 15.1806 162.7 13.8627 160.97 13.8627C159.241 13.8627 158.638 15.1806 158.638 16.7773V22.6081H153.922V15.9914C153.922 12.4685 156.096 9.42692 160.604 9.42692C163.067 9.42692 164.849 10.3647 165.661 11.9108C166.525 10.3647 168.412 9.42614 170.666 9.42614V9.4277ZM145.447 18.5532C146.966 18.5532 147.622 17.2096 147.622 15.6121V9.93398H152.338V16.1698C152.338 19.896 150.084 22.989 145.447 22.989C140.808 22.989 138.555 19.8968 138.555 16.1698V9.93398H143.272V15.6121C143.272 17.2088 143.926 18.5532 145.447 18.5532ZM131.62 23.0139C128.659 23.0139 126.746 22.0255 125.619 20.0993L129.026 18.2486C129.498 19.0595 130.205 19.4653 131.384 19.4653C132.354 19.4653 132.799 19.1358 132.799 18.73C132.799 17.1839 125.881 18.7557 125.881 13.8386C125.881 11.4552 127.977 9.52896 131.541 9.52896C134.659 9.52896 136.363 10.9987 137.123 12.4186L133.716 14.2942C133.428 13.534 132.537 13.0776 131.646 13.0776C130.965 13.0776 130.598 13.3564 130.598 13.7365C130.598 15.3083 137.515 13.8635 137.515 18.6287C137.515 21.2902 134.816 23.0139 131.62 23.0139ZM115.141 28.4389H110.425V16.2461C110.425 12.3672 113.438 9.55388 117.631 9.55388C121.718 9.55388 124.837 12.5705 124.837 16.2461C124.837 20.3018 122.059 22.989 117.893 22.989C116.923 22.989 115.954 22.7101 115.141 22.2786V28.4389ZM117.631 18.7051C119.124 18.7051 120.12 17.5897 120.12 16.271C120.12 14.9282 119.124 13.8378 117.631 13.8378C116.137 13.8378 115.141 14.9282 115.141 16.2718C115.141 17.5897 116.137 18.7051 117.631 18.7051ZM105.7 8.59117C104.154 8.59117 102.87 7.34884 102.87 5.85337C102.87 4.3579 104.154 3.11557 105.7 3.11557C107.246 3.11557 108.53 4.3579 108.53 5.85337C108.53 7.34884 107.246 8.59117 105.7 8.59117ZM103.342 9.93398H108.059V22.6089H103.342V9.93398ZM94.2925 22.989C90.2046 22.989 87.0865 19.9474 87.0865 16.2461C87.0865 12.5705 90.2046 9.52896 94.2925 9.52896C98.3803 9.52896 101.498 12.5705 101.498 16.2461C101.498 19.9474 98.3803 22.989 94.2925 22.989ZM94.2925 18.7051C95.7862 18.7051 96.7818 17.5897 96.7818 16.271C96.7818 14.9282 95.7862 13.8129 94.2925 13.8129C92.7987 13.8129 91.8032 14.9282 91.8032 16.271C91.8032 17.5897 92.7987 18.7051 94.2925 18.7051ZM78.1804 28.819C74.9318 28.819 72.573 27.4248 71.3679 24.9401L75.2719 22.9126C75.6911 23.7749 76.4771 24.662 78.1014 24.662C79.8056 24.662 80.9317 23.6222 81.0631 21.7973C80.4344 22.33 79.438 22.7351 77.9451 22.7351C74.3022 22.7351 71.3671 20.023 71.3671 16.2204C71.3671 12.5456 74.486 9.55388 78.5738 9.55388C82.7665 9.55388 85.7798 12.368 85.7798 16.2461V21.2653C85.7798 25.828 82.5037 28.819 78.1804 28.819ZM78.4948 18.4519C79.9096 18.4519 80.9841 17.5134 80.9841 16.1192C80.9841 14.7506 79.9104 13.8378 78.4948 13.8378C77.1059 13.8378 76.0055 14.7506 76.0055 16.1199C76.0055 17.5141 77.1059 18.4512 78.4948 18.4512V18.4519ZM63.3671 22.989C59.2792 22.989 56.1603 19.9474 56.1603 16.2461C56.1603 12.5705 59.2792 9.52896 63.3671 9.52896C67.4541 9.52896 70.573 12.5705 70.573 16.2461C70.573 19.9474 67.4549 22.989 63.3671 22.989ZM63.3671 18.7051C64.8608 18.7051 65.8564 17.5897 65.8564 16.271C65.8564 14.9282 64.8608 13.8129 63.3671 13.8129C61.8733 13.8129 60.8778 14.9282 60.8778 16.271C60.8778 17.5897 61.8733 18.7051 63.3671 18.7051ZM47.5719 5.49897V18.2993H55.3808V22.6089H46.9165C43.9298 22.6089 42.7246 21.0877 42.7246 18.6794V5.49897H47.5719Z" fill="#27272A"/>
</g>
<defs>
<clipPath id="clip0_3_86">
<rect width="177.348" height="31.1557" fill="white"/>
</clipPath>
</defs>
</svg>
