<svg width="154" height="34" viewBox="0 0 154 34" fill="none" xmlns="http://www.w3.org/2000/svg">
<g clip-path="url(#clip0_3_104)">
<path fill-rule="evenodd" clip-rule="evenodd" d="M16.2988 3.83083L18.4618 0L24.5937 3.62112L22.4316 7.45111C22.0519 8.123 22.6203 8.93999 23.3651 8.7932L27.5088 7.97537L28.8499 15.0859L24.7061 15.9029C18.0033 17.2249 12.8859 9.87694 16.2988 3.83083Z" fill="#27272A"/>
<path fill-rule="evenodd" clip-rule="evenodd" d="M12.5509 29.7214L10.388 33.5522L4.25519 29.932L6.41812 26.1011C6.79788 25.4292 6.22947 24.6122 5.48389 24.759L1.34094 25.576L-0.00012207 18.4663L4.14364 17.6493C10.8465 16.3274 15.9631 23.6753 12.5509 29.7214Z" fill="#27272A"/>
<path fill-rule="evenodd" clip-rule="evenodd" d="M12.7369 3.83083L10.5748 0L4.442 3.62112L6.60492 7.45111C6.98387 8.123 6.41627 8.93999 5.67069 8.7932L1.52692 7.97537L0.1875 15.0859L4.33045 15.9029C11.0341 17.2249 16.1515 9.87694 12.7377 3.83083H12.7369Z" fill="#27272A"/>
<path fill-rule="evenodd" clip-rule="evenodd" d="M16.1165 29.7214L18.2778 33.5522L24.4106 29.932L22.2477 26.1011C21.8688 25.4292 22.4364 24.6122 23.1819 24.759L27.3249 25.576L28.666 18.4663L24.5222 17.6493C17.8193 16.3274 12.7028 23.6753 16.1149 29.7214H16.1165Z" fill="#27272A"/>
<path d="M133.788 25.2925V18.1627C133.788 17.1746 134.011 16.2879 134.455 15.5037C134.915 14.7034 135.568 14.076 136.412 13.6205C137.256 13.1659 138.26 12.9386 139.426 12.9386C139.97 12.9332 140.512 13.0043 141.037 13.15C141.528 13.2758 141.973 13.4561 142.371 13.691C142.785 13.9108 143.138 14.1775 143.43 14.4912H143.476C143.789 14.173 144.145 13.9034 144.534 13.691C144.962 13.4504 145.418 13.2685 145.893 13.15C146.425 13.0053 146.975 12.9342 147.526 12.9386C148.692 12.9386 149.697 13.1651 150.541 13.6205C151.384 14.076 152.036 14.7026 152.496 15.5037C152.957 16.2879 153.187 17.1737 153.187 18.1627V25.2925H149.597V18.2801C149.597 17.8884 149.497 17.5352 149.298 17.2215C149.115 16.8934 148.854 16.6181 148.539 16.4213C148.206 16.2144 147.823 16.1082 147.434 16.1151C147.019 16.1151 146.644 16.2175 146.307 16.4213C145.991 16.6178 145.73 16.8932 145.547 17.2215C145.361 17.5415 145.265 17.9079 145.271 18.2801V25.2925H141.704V18.2801C141.704 17.8884 141.604 17.5352 141.405 17.2215C141.218 16.8887 140.948 16.6125 140.623 16.4213C140.29 16.2144 139.907 16.1082 139.518 16.1151C139.104 16.1151 138.728 16.2175 138.391 16.4213C138.075 16.6178 137.814 16.8932 137.631 17.2215C137.446 17.5416 137.35 17.9079 137.355 18.2801V25.2925H133.788ZM125.987 25.5752C124.776 25.5752 123.724 25.3403 122.835 24.8689C121.961 24.3824 121.286 23.7315 120.81 22.9162C120.334 22.0849 120.096 21.1664 120.096 20.1624V13.2204H123.664V20.0684C123.664 20.492 123.763 20.8846 123.962 21.2453C124.162 21.59 124.431 21.8727 124.768 22.0925C125.12 22.2963 125.52 22.3986 125.964 22.3986C126.394 22.3986 126.777 22.2963 127.115 22.0925C127.468 21.8727 127.744 21.59 127.944 21.2453C128.143 20.8846 128.243 20.492 128.243 20.0684V13.2204H131.809V20.1624C131.809 21.1664 131.579 22.0849 131.119 22.9162C130.658 23.7315 129.992 24.3833 129.117 24.8689C128.258 25.3395 127.214 25.5752 125.987 25.5752ZM108.608 25.2925V22.3986H114.292C114.445 22.3986 114.583 22.3668 114.706 22.3039C114.828 22.2258 114.928 22.1235 115.005 21.9985C115.08 21.8749 115.12 21.7322 115.12 21.5867C115.12 21.4411 115.08 21.2984 115.005 21.1748C114.933 21.0539 114.829 20.9559 114.706 20.8921C114.582 20.8134 114.438 20.7726 114.292 20.7747H112.221C111.453 20.7747 110.755 20.6489 110.127 20.3981C109.53 20.1453 109.018 19.72 108.654 19.1743C108.301 18.6098 108.125 17.88 108.125 16.9858C108.125 16.2955 108.285 15.6681 108.608 15.1035C108.943 14.5408 109.409 14.0716 109.965 13.738C110.545 13.3937 111.205 13.215 111.875 13.2204H117.559V16.1386H112.427C112.224 16.1344 112.026 16.2104 111.875 16.3508C111.808 16.4181 111.755 16.4987 111.719 16.5877C111.684 16.6767 111.666 16.7722 111.668 16.8684C111.668 17.0882 111.738 17.2761 111.875 17.4329C112.026 17.5733 112.224 17.6493 112.427 17.6451H114.453C115.311 17.6451 116.048 17.7785 116.661 18.0444C117.291 18.296 117.774 18.7037 118.112 19.2691C118.464 19.8336 118.641 20.5625 118.641 21.4567C118.641 22.1629 118.464 22.8063 118.112 23.3859C117.777 23.9637 117.301 24.4424 116.73 24.775C116.163 25.1206 115.519 25.2925 114.798 25.2925H108.608ZM100.837 12.9386C101.834 12.9386 102.716 13.103 103.483 13.4326C104.236 13.7264 104.913 14.1933 105.462 14.7974C106.021 15.3893 106.453 16.0949 106.728 16.8684C107.019 17.6527 107.165 18.5234 107.165 19.4804C107.165 20.6724 106.92 21.7318 106.428 22.657C105.975 23.5437 105.29 24.2848 104.45 24.7985C103.606 25.316 102.624 25.5752 101.505 25.5752C101.029 25.5752 100.576 25.5123 100.146 25.3873C99.7391 25.2649 99.3517 25.0824 98.9963 24.8454C98.6611 24.6129 98.3722 24.3175 98.1449 23.9748H98.0751V30.4H94.5088V19.4796C94.5088 18.1459 94.7697 16.9925 95.2913 16.0204C95.797 15.0634 96.5646 14.2781 97.5002 13.7606C98.4516 13.212 99.5639 12.9377 100.837 12.9377V12.9386ZM100.837 16.0917C100.285 16.0917 99.8017 16.2326 99.3875 16.5153C98.9881 16.782 98.6813 17.1586 98.4664 17.6451C98.2523 18.1149 98.1449 18.6492 98.1449 19.2447C98.1449 19.8411 98.2523 20.3746 98.4664 20.8452C98.6813 21.3157 98.9881 21.6924 99.3875 21.975C99.8017 22.2418 100.285 22.3752 100.837 22.3752C101.389 22.3752 101.865 22.2409 102.263 21.975C102.664 21.6904 102.983 21.2999 103.184 20.8452C103.414 20.3746 103.529 19.8411 103.529 19.2447C103.529 18.6492 103.414 18.1157 103.184 17.6451C102.969 17.1586 102.663 16.7812 102.263 16.5153C101.865 16.2326 101.389 16.0917 100.837 16.0917ZM89.0888 25.2925V13.2204H92.6789V25.2925H89.0888ZM90.8834 11.8557C90.3158 11.8557 89.8253 11.6443 89.4111 11.2207C88.9969 10.7971 88.7894 10.2947 88.7894 9.71421C88.7894 9.13376 88.9969 8.63215 89.4111 8.20856C89.8253 7.76902 90.3158 7.54926 90.8834 7.54926C91.451 7.54926 91.9423 7.76902 92.3566 8.20856C92.7708 8.63215 92.9775 9.13376 92.9775 9.71421C92.9775 10.2947 92.7708 10.7963 92.3566 11.2207C91.9423 11.6443 91.451 11.8557 90.8834 11.8557ZM81.2868 25.5752C80.0754 25.5752 78.9861 25.3009 78.0191 24.7515C77.0704 24.2197 76.2766 23.4403 75.7183 22.4926C75.1663 21.5355 74.8899 20.461 74.8899 19.2682C74.8899 18.0603 75.1663 16.9858 75.7183 16.0447C76.2766 15.097 77.0704 14.3176 78.0191 13.7858C78.9861 13.2204 80.0754 12.9386 81.2868 12.9386C82.4991 12.9386 83.5802 13.2204 84.5316 13.7858C85.4769 14.3139 86.2642 15.0946 86.8094 16.0447C87.377 16.9858 87.6608 18.0603 87.6608 19.2682C87.6608 20.461 87.377 21.5355 86.8094 22.4926C86.2642 23.4426 85.4769 24.2234 84.5316 24.7515C83.5654 25.3009 82.4835 25.5752 81.2868 25.5752ZM81.2868 22.3986C81.8544 22.3986 82.3457 22.2569 82.7599 21.975C83.1743 21.6927 83.5077 21.3027 83.7262 20.8452C83.9567 20.3746 84.0715 19.8411 84.0715 19.2447C84.0715 18.6643 83.9567 18.1392 83.7262 17.6678C83.5076 17.2105 83.1742 16.8209 82.7599 16.5387C82.3457 16.2561 81.8544 16.1151 81.2868 16.1151C80.7192 16.1151 80.2205 16.2561 79.7916 16.5387C79.377 16.8211 79.0433 17.211 78.8245 17.6686C78.5902 18.1593 78.4721 18.6995 78.48 19.2456C78.48 19.8411 78.5949 20.3746 78.8245 20.8452C79.0434 21.3027 79.3771 21.6926 79.7916 21.975C80.2205 22.2569 80.7192 22.3986 81.2868 22.3986ZM63.2985 30.0704V26.9399H69.1885C69.419 26.9399 69.611 26.8619 69.7643 26.7051C69.8391 26.6375 69.8984 26.5539 69.9381 26.4603C69.9778 26.3666 69.9969 26.2652 69.994 26.1632V23.5042H69.9251C69.6337 23.8507 69.3015 24.1589 68.9359 24.4218C68.598 24.6735 68.2141 24.8614 67.7851 24.9872C67.3286 25.1184 66.8559 25.1817 66.3817 25.1751C65.3384 25.1751 64.4025 24.9234 63.5741 24.4218C62.7613 23.9043 62.1166 23.1905 61.6409 22.2804C61.1815 21.3711 60.951 20.3352 60.951 19.1743C60.951 18.0293 61.1889 16.9858 61.6646 16.0447C62.1551 15.1035 62.8687 14.3503 63.8046 13.7858C64.7397 13.2204 65.883 12.9386 67.2331 12.9386C68.5217 12.9386 69.6339 13.2129 70.5698 13.7623C71.5096 14.284 72.278 15.0776 72.7787 16.0438C73.3003 17.0169 73.5611 18.1627 73.5611 19.4804V26.5398C73.5611 27.6219 73.247 28.4775 72.6179 29.1049C72.0044 29.7483 71.153 30.0695 70.0637 30.0695L63.2985 30.0704ZM67.2561 22.116C67.8081 22.116 68.2838 21.9901 68.6833 21.7393C69.0774 21.4776 69.3951 21.1119 69.6028 20.6808C69.8209 20.2269 69.9314 19.7269 69.9251 19.2212C69.9251 18.6567 69.8185 18.1392 69.6036 17.6686C69.3887 17.198 69.0819 16.829 68.6825 16.5622C68.2838 16.2795 67.8081 16.1386 67.2553 16.1386C66.7189 16.1386 66.2431 16.272 65.8289 16.5387C65.4303 16.8055 65.1235 17.1662 64.9086 17.6208C64.6945 18.0763 64.5871 18.5854 64.5871 19.1508C64.5871 19.7002 64.6937 20.2018 64.9086 20.6573C65.1235 21.096 65.4303 21.4491 65.8297 21.7159C66.2431 21.9826 66.7189 22.116 67.2561 22.116ZM53.7011 25.5752C52.4896 25.5752 51.4004 25.3009 50.4341 24.7515C49.4852 24.2199 48.691 23.4404 48.1326 22.4926C47.5806 21.5355 47.3042 20.461 47.3042 19.2682C47.3042 18.0603 47.5806 16.9858 48.1326 16.0447C48.691 15.0968 49.4852 14.3174 50.4341 13.7858C51.4004 13.2204 52.4896 12.9386 53.7011 12.9386C54.9134 12.9386 55.9944 13.2204 56.9459 13.7858C57.8911 14.314 58.6784 15.0947 59.2237 16.0447C59.7913 16.9858 60.0751 18.0603 60.0751 19.2682C60.0751 20.461 59.7913 21.5355 59.2237 22.4926C58.6784 23.4426 57.8911 24.2233 56.9459 24.7515C55.9797 25.3009 54.8978 25.5752 53.7011 25.5752ZM53.7011 22.3986C54.2687 22.3986 54.7592 22.2569 55.1742 21.975C55.5884 21.6925 55.9218 21.3026 56.1404 20.8452C56.3701 20.3746 56.4849 19.8411 56.4849 19.2447C56.4849 18.6643 56.3701 18.1392 56.1404 17.6678C55.9217 17.2106 55.5883 16.821 55.1742 16.5387C54.76 16.2561 54.2687 16.1151 53.7011 16.1151C53.1335 16.1151 52.6348 16.2561 52.2058 16.5387C51.7913 16.8211 51.4576 17.211 51.2388 17.6686C51.0045 18.1593 50.8864 18.6995 50.8943 19.2456C50.8943 19.8411 51.0091 20.3746 51.2388 20.8452C51.4577 21.3027 51.7914 21.6926 52.2058 21.975C52.6348 22.2569 53.1335 22.3986 53.7011 22.3986ZM42.2787 25.2925C41.2813 25.2925 40.4069 25.066 39.6556 24.6106C38.9249 24.1773 38.321 23.5516 37.9069 22.7987C37.4927 22.0455 37.2852 21.2134 37.2852 20.3041V8.82005H41.1509V20.586C41.1509 20.9634 41.2821 21.2923 41.5421 21.5749C41.8029 21.8568 42.1245 21.9985 42.5083 21.9985H46.7653V25.2925H42.2787Z" fill="#27272A"/>
</g>
<defs>
<clipPath id="clip0_3_104">
<rect width="153.382" height="33.5522" fill="white"/>
</clipPath>
</defs>
</svg>
