<svg width="130" height="29" viewBox="0 0 130 29" fill="none" xmlns="http://www.w3.org/2000/svg">
<g clip-path="url(#clip0_3_101)">
<path fill-rule="evenodd" clip-rule="evenodd" d="M11.0298 20.1313C10.0547 20.1313 9.11951 19.7526 8.43002 19.0784C7.74052 18.4043 7.35317 17.4899 7.35317 16.5365V0H0V16.5365C0 22.4925 4.93839 27.3211 11.0298 27.3211H19.1182V20.1313H11.0298ZM33.0893 7.18977C32.2202 7.18977 31.3596 7.35714 30.5567 7.68233C29.7538 8.00751 29.0243 8.48415 28.4097 9.08502C27.7952 9.68588 27.3077 10.3992 26.9752 11.1843C26.6426 11.9694 26.4714 12.8108 26.4714 13.6606C26.4714 14.5103 26.6426 15.3517 26.9752 16.1368C27.3077 16.9219 27.7952 17.6352 28.4097 18.2361C29.0243 18.837 29.7538 19.3136 30.5567 19.6388C31.3596 19.964 32.2202 20.1313 33.0893 20.1313C34.8444 20.1313 36.5277 19.4496 37.7688 18.2361C39.0099 17.0226 39.7071 15.3767 39.7071 13.6606C39.7071 11.9444 39.0099 10.2985 37.7688 9.08502C36.5277 7.87151 34.8444 7.18977 33.0893 7.18977ZM19.1182 13.6606C19.1182 6.11633 25.3736 0 33.0893 0C40.8049 0 47.0603 6.11633 47.0603 13.6606C47.0603 21.2048 40.8049 27.3211 33.0893 27.3211C25.3736 27.3211 19.1182 21.2048 19.1182 13.6606ZM112.503 7.18977C110.748 7.18977 109.065 7.87151 107.824 9.08502C106.583 10.2985 105.886 11.9444 105.886 13.6606C105.886 15.3767 106.583 17.0226 107.824 18.2361C109.065 19.4496 110.748 20.1313 112.503 20.1313C114.259 20.1313 115.942 19.4496 117.183 18.2361C118.424 17.0226 119.121 15.3767 119.121 13.6606C119.121 11.9444 118.424 10.2985 117.183 9.08502C115.942 7.87151 114.259 7.18977 112.503 7.18977ZM98.5325 13.6606C98.5325 6.11633 104.788 0 112.503 0C120.219 0 126.475 6.11633 126.475 13.6606C126.475 21.2048 120.219 27.3211 112.503 27.3211C104.788 27.3211 98.5325 21.2048 98.5325 13.6606ZM62.5019 0C54.7863 0 48.5309 6.11633 48.5309 13.6606C48.5309 21.2048 54.7863 27.3211 62.5019 27.3211H83.0908C84.5386 27.3211 85.935 27.1054 87.2483 26.7057L91.1793 28.7591L95.4206 20.9912C96.498 19.0138 97.0616 16.8077 97.0618 14.5672V13.6606C97.0618 6.11633 90.8065 0 83.0908 0H62.5019ZM89.7087 13.6606C89.7087 11.9444 89.0114 10.2985 87.7703 9.08502C86.5292 7.87151 84.846 7.18977 83.0908 7.18977H62.5019C61.6329 7.18977 60.7723 7.35714 59.9694 7.68233C59.1665 8.00751 58.4369 8.48415 57.8224 9.08502C57.2079 9.68588 56.7204 10.3992 56.3878 11.1843C56.0553 11.9694 55.8841 12.8108 55.8841 13.6606C55.8841 14.5103 56.0553 15.3517 56.3878 16.1368C56.7204 16.9219 57.2079 17.6352 57.8224 18.2361C58.4369 18.837 59.1665 19.3136 59.9694 19.6388C60.7723 19.964 61.6329 20.1313 62.5019 20.1313H83.0908C84.8371 20.1314 86.5126 19.4566 87.7522 18.2539C88.9919 17.0513 89.6951 15.4183 89.7087 13.7109V13.6606Z" fill="#27272A"/>
<path d="M129.415 1.79744C129.415 2.27415 129.221 2.73134 128.876 3.06842C128.532 3.40551 128.064 3.59488 127.577 3.59488C127.089 3.59488 126.621 3.40551 126.277 3.06842C125.932 2.73134 125.738 2.27415 125.738 1.79744C125.738 1.32073 125.932 0.863544 126.277 0.526458C126.621 0.189373 127.089 0 127.577 0C128.064 0 128.532 0.189373 128.876 0.526458C129.221 0.863544 129.415 1.32073 129.415 1.79744Z" fill="#27272A"/>
</g>
<defs>
<clipPath id="clip0_3_101">
<rect width="129.416" height="28.7591" fill="white"/>
</clipPath>
</defs>
</svg>
