<svg width="181" height="34" viewBox="0 0 181 34" fill="none" xmlns="http://www.w3.org/2000/svg">
<g clip-path="url(#clip0_3_89)">
<path d="M101.555 24.7648H105.425V10.0113H101.555V24.7648ZM101.555 7.71063H105.425V4.20203H101.555V7.71063Z" fill="#27272A"/>
<path d="M107.922 29.5963H111.792V23.0967H111.849C112.674 24.3621 114.012 25.1962 116.06 25.1962C119.817 25.1962 122.378 22.1764 122.378 17.4025C122.378 12.8009 119.902 9.6087 116.032 9.6087C114.04 9.6087 112.674 10.5578 111.735 11.8519H111.649V10.0113H107.922V29.5963ZM115.235 21.9464C112.93 21.9464 111.707 20.1921 111.707 17.5175C111.707 14.8716 112.674 12.7723 115.093 12.7723C117.484 12.7723 118.451 14.7279 118.451 17.5175C118.451 20.3071 117.199 21.9464 115.235 21.9464Z" fill="#27272A"/>
<path d="M130.095 25.1962C133.738 25.1962 136.242 23.4131 136.242 20.4509C136.242 16.9998 133.539 16.3096 131.091 15.792C129.013 15.3606 127.079 15.2455 127.079 13.9801C127.079 12.916 128.075 12.3409 129.583 12.3409C131.234 12.3409 132.23 12.916 132.4 14.4978H135.9C135.616 11.5356 133.481 9.6087 129.64 9.6087C126.31 9.6087 123.692 11.133 123.692 14.3252C123.692 17.5462 126.254 18.2652 128.872 18.7829C130.864 19.1855 132.713 19.3293 132.713 20.7385C132.713 21.7738 131.746 22.4353 130.039 22.4353C128.302 22.4353 127.107 21.6875 126.851 19.9908H123.266C123.493 23.1255 125.855 25.1962 130.095 25.1962Z" fill="#27272A"/>
<path d="M150.937 24.7648V10.0114H147.067V18.5241C147.067 20.4797 145.957 21.8601 144.136 21.8601C142.485 21.8601 141.717 20.911 141.717 19.1855V10.0114H137.875V19.8469C137.875 23.068 139.696 25.1674 142.941 25.1674C144.99 25.1674 146.128 24.3909 147.124 23.0393H147.209V24.7648H150.937Z" fill="#27272A"/>
<path d="M153.441 24.7648H157.312V16.1946C157.312 14.2389 158.365 12.9736 159.93 12.9736C161.353 12.9736 162.178 13.8363 162.178 15.5043V24.7648H166.048V16.1946C166.048 14.2389 167.044 12.9736 168.666 12.9736C170.09 12.9736 170.915 13.8363 170.915 15.5043V24.7648H174.785V14.8429C174.785 11.6218 173.049 9.6087 169.975 9.6087C168.126 9.6087 166.589 10.5865 165.593 12.197H165.536C164.825 10.644 163.345 9.6087 161.495 9.6087C159.475 9.6087 158.052 10.644 157.255 11.9957H157.17V10.0113H153.441V24.7648Z" fill="#27272A"/>
<path d="M0.683594 24.7648H4.55381V4.20203H0.683594V24.7648Z" fill="#27272A"/>
<path d="M14.0173 25.1962C18.542 25.1962 21.6438 21.8026 21.6438 17.4025C21.6438 13.0023 18.542 9.6087 14.0173 9.6087C9.49248 9.6087 6.39062 13.0023 6.39062 17.4025C6.39062 21.8026 9.49248 25.1962 14.0173 25.1962ZM14.0173 22.2052C11.6268 22.2052 10.3178 20.2783 10.3178 17.4025C10.3178 14.5265 11.6268 12.5709 14.0173 12.5709C16.3792 12.5709 17.7167 14.5265 17.7167 17.4025C17.7167 20.2783 16.3792 22.2052 14.0173 22.2052Z" fill="#27272A"/>
<path d="M29.8733 29.7976C32.0361 29.7976 33.9143 29.28 35.1379 28.1295C36.2193 27.123 36.8739 25.7138 36.8739 23.6432V10.0113H33.1459V11.5644H33.089C32.2068 10.3277 30.8693 9.6087 29.048 9.6087C25.3486 9.6087 22.7305 12.4271 22.7305 16.8272C22.7305 21.2849 25.9177 23.8732 29.1619 23.8732C31.0116 23.8732 32.1215 23.1255 32.9751 22.1477H33.0605V23.7582C33.0605 25.7713 32.0076 26.8354 29.8164 26.8354C28.0235 26.8354 27.1983 26.1164 26.8853 25.1961H23.0435C23.4419 28.0721 25.8892 29.7976 29.8733 29.7976ZM29.8164 20.7385C27.8243 20.7385 26.5153 19.2717 26.5153 16.7698C26.5153 14.2965 27.8243 12.7435 29.7879 12.7435C32.1215 12.7435 33.2597 14.5841 33.2597 16.741C33.2597 18.9267 32.2637 20.7385 29.8164 20.7385Z" fill="#27272A"/>
<path d="M46.2829 25.1962C50.8076 25.1962 53.9095 21.8026 53.9095 17.4025C53.9095 13.0023 50.8076 9.6087 46.2829 9.6087C41.7582 9.6087 38.6562 13.0023 38.6562 17.4025C38.6562 21.8026 41.7582 25.1962 46.2829 25.1962ZM46.2829 22.2052C43.8925 22.2052 42.5834 20.2783 42.5834 17.4025C42.5834 14.5265 43.8925 12.5709 46.2829 12.5709C48.6449 12.5709 49.9824 14.5265 49.9824 17.4025C49.9824 20.2783 48.6449 22.2052 46.2829 22.2052Z" fill="#27272A"/>
<path d="M176.191 7.58922C176.191 6.92742 176.723 6.39093 177.377 6.39093H179.749C180.404 6.39093 180.935 6.92742 180.935 7.58922C180.935 8.25102 180.404 8.78752 179.749 8.78752H177.377C176.723 8.78752 176.191 8.25102 176.191 7.58922Z" fill="#27272A"/>
<path fill-rule="evenodd" clip-rule="evenodd" d="M77.3815 0C86.5492 0 93.9819 7.51093 93.9819 16.7761C93.9819 26.0413 86.5492 33.5522 77.3815 33.5522C68.2134 33.5522 60.7812 26.0413 60.7812 16.7761C60.7812 7.51093 68.2134 0 77.3815 0ZM76.7815 1.25535C74.8876 1.52469 73.0843 3.06255 71.6845 5.6346C71.2785 6.38065 70.9121 7.20489 70.5929 8.09485C72.4963 7.61147 74.5872 7.32648 76.7815 7.2824V1.25535ZM69.1898 8.49778C69.5869 7.23854 70.0726 6.08 70.6331 5.05016C71.327 3.77512 72.1505 2.67407 73.0784 1.8284C68.0328 3.30928 64.0558 7.32847 62.5904 12.4275C63.4272 11.4898 64.5167 10.6575 65.7784 9.95629C66.7975 9.38985 67.9438 8.89898 69.1898 8.49778ZM68.7912 9.91561C68.3129 11.8392 68.0309 13.9522 67.9872 16.1697H62.0234C62.2899 14.2558 63.8116 12.4335 66.3568 11.0189C67.095 10.6085 67.9105 10.2383 68.7912 9.91561ZM69.1875 16.1697C69.2371 13.7497 69.5819 11.4777 70.1522 9.47029C72.1386 8.89386 74.3868 8.54542 76.7815 8.49534V11.1149C75.8881 13.4261 74.0661 15.2673 71.779 16.1697H69.1875ZM67.9872 17.3825H62.0234C62.2899 19.2964 63.8116 21.1187 66.3568 22.5333C67.095 22.9437 67.9105 23.3139 68.7912 23.6366C68.3129 21.7131 68.0309 19.6 67.9872 17.3825ZM70.1522 24.082C69.5819 22.0745 69.2371 19.8025 69.1875 17.3825H71.779C74.0661 18.285 75.8881 20.1261 76.7815 22.4374V25.0569C74.3868 25.0068 72.1386 24.6584 70.1522 24.082ZM69.1898 25.0545C67.9438 24.6533 66.7975 24.1624 65.7784 23.5959C64.5167 22.8947 63.4272 22.0624 62.5904 21.1247C64.0558 26.2238 68.0328 30.243 73.0784 31.7238C72.1505 30.8781 71.327 29.7771 70.6331 28.502C70.0726 27.4722 69.5869 26.3137 69.1898 25.0545ZM76.7815 32.2969C74.8876 32.0275 73.0843 30.4897 71.6845 27.9176C71.2785 27.1716 70.9121 26.3473 70.5929 25.4574C72.4963 25.9407 74.5872 26.2258 76.7815 26.2698V32.2969ZM81.6845 31.7238C82.6124 30.8781 83.4358 29.7771 84.1297 28.502C84.69 27.4722 85.1764 26.3137 85.5731 25.0545C86.819 24.6533 87.9652 24.1624 88.9845 23.5959C90.2461 22.8947 91.3359 22.0624 92.1725 21.1247C90.7067 26.2238 86.7301 30.243 81.6845 31.7238ZM84.1704 25.4574C83.8508 26.3473 83.484 27.1716 83.0781 27.9176C81.6785 30.4897 79.8752 32.0275 77.9814 32.2969V26.2698C80.1757 26.2258 82.2666 25.9407 84.1704 25.4574ZM85.9715 23.6366C86.8522 23.3139 87.6681 22.9437 88.4059 22.5333C90.9516 21.1188 92.473 19.2964 92.7394 17.3825H86.7758C86.7318 19.6 86.4496 21.7131 85.9715 23.6366ZM85.5756 17.3825C85.5258 19.8025 85.1813 22.0745 84.6103 24.082C82.6242 24.6584 80.3761 25.0068 77.9814 25.0569V22.4393C78.8745 20.1272 80.697 18.2852 82.9846 17.3825H85.5756ZM86.7758 16.1697H92.7394C92.473 14.2558 90.9516 12.4335 88.4059 11.0189C87.6681 10.6085 86.8522 10.2383 85.9715 9.91561C86.4496 11.8392 86.7318 13.9522 86.7758 16.1697ZM84.6103 9.47029C85.1813 11.4777 85.5258 13.7497 85.5756 16.1697H82.9847C80.697 15.267 78.8745 13.425 77.9814 11.1129V8.49534C80.3761 8.54542 82.6242 8.89386 84.6103 9.47029ZM85.5731 8.49778C86.819 8.89898 87.9652 9.38985 88.9845 9.95629C90.2461 10.6575 91.3359 11.4898 92.1725 12.4275C90.7067 7.32847 86.7301 3.30928 81.6845 1.8284C82.6124 2.67407 83.4358 3.77512 84.1297 5.05016C84.69 6.08 85.1764 7.23854 85.5731 8.49778ZM77.9814 1.25535C79.8752 1.52469 81.6785 3.06255 83.0781 5.6346C83.484 6.38066 83.8508 7.20489 84.1704 8.09485C82.2666 7.61147 80.1757 7.32648 77.9814 7.2824V1.25535Z" fill="#27272A"/>
</g>
<defs>
<clipPath id="clip0_3_89">
<rect width="180.942" height="33.5522" fill="white"/>
</clipPath>
</defs>
</svg>
