<svg width="148" height="34" viewBox="0 0 148 34" fill="none" xmlns="http://www.w3.org/2000/svg">
<g clip-path="url(#clip0_3_69)">
<path d="M42.5255 17.4489C42.5548 16.8757 42.5548 16.3014 42.5255 15.7283H10.38C10.3732 15.8711 10.3673 16.0147 10.3639 16.1584H3.62969L3.62631 16.3735H0V16.8036H3.62546L3.63054 17.0187H10.3639C10.3673 17.1633 10.3724 17.3061 10.3808 17.4489H19.6097C19.5746 17.1635 19.5571 16.8762 19.5572 16.5886H33.1103C33.1103 16.8802 33.0933 17.1676 33.0578 17.4489H42.5255ZM42.4585 14.8679H32.8977C32.8233 14.5752 32.7299 14.2878 32.6181 14.0076H20.0518C19.9409 14.2864 19.8468 14.5729 19.7723 14.8679H10.4461C10.4613 14.7243 10.4783 14.5806 10.4969 14.4378H3.76268L3.79149 14.2279H0V13.7977H3.8584L3.89737 13.5775H10.6316C10.657 13.4338 10.6858 13.2901 10.7163 13.1473H42.19C42.3086 13.7108 42.3992 14.2847 42.4585 14.8679ZM41.9842 12.287H31.6245C31.3802 11.9773 31.1101 11.6894 30.8173 11.4267H21.8519C21.5596 11.6899 21.2886 11.9773 21.0446 12.287H10.9221C10.9602 12.1433 11.0009 11.9997 11.0433 11.8568H4.30904L4.38359 11.6151H0V11.1841H4.52505L4.59112 10.9957H11.3253C11.3762 10.8511 11.4304 10.7083 11.4863 10.5655H41.4192C41.6377 11.1247 41.8266 11.7003 41.9842 12.287ZM41.0549 9.70606H11.8505C11.9166 9.56153 11.9843 9.41872 12.0547 9.2759H5.32129L5.44073 9.03846H0V8.6083H5.67029L5.77786 8.41559H12.5121C12.5942 8.27106 12.6789 8.12738 12.7653 7.98543H40.1401C40.4772 8.53775 40.7839 9.11244 41.0549 9.70606ZM10.4461 18.3092H42.4594C42.3992 18.8925 42.3086 19.4672 42.19 20.0298H32.2048C32.3615 19.7545 32.5004 19.4672 32.619 19.1695H20.0501C20.1687 19.4672 20.3068 19.7545 20.4635 20.0298H10.7154C10.6853 19.8868 10.657 19.7434 10.6307 19.5997H3.89737C3.88357 19.5241 3.8703 19.4483 3.85756 19.3725H0V18.9424H3.79064C3.78091 18.8748 3.77159 18.8071 3.76268 18.7394H10.4969C10.4781 18.5962 10.4611 18.4528 10.4461 18.3092ZM10.9213 20.8901H41.9833C41.8266 21.4777 41.6377 22.0516 41.4192 22.6108H29.6178C30.047 22.3688 30.4492 22.0803 30.8173 21.7505H21.8519C22.2199 22.0803 22.6221 22.3688 23.0513 22.6108H11.4863C11.4307 22.4681 11.377 22.3247 11.3253 22.1806H4.59112L4.51827 21.9733H0V21.5431H4.37766C4.35455 21.469 4.33196 21.3947 4.30989 21.3203H11.0433C11.0009 21.1775 10.9602 21.0347 10.9213 20.8901ZM11.8505 23.4711H41.0549C40.7841 24.0627 40.4786 24.6373 40.1401 25.1917H12.7653C12.6785 25.0497 12.5938 24.9063 12.5112 24.7616H5.77786C5.73551 24.6876 5.694 24.6136 5.65334 24.5387H0V24.1086H5.42548L5.32129 23.9021H12.0555C11.9851 23.7597 11.9168 23.6163 11.8505 23.4719V23.4711ZM14.3324 27.3425C14.4569 27.4887 14.5849 27.6316 14.7153 27.7727H38.1901C38.6901 27.2316 39.1534 26.6567 39.5768 26.052H13.3286C13.4303 26.1974 13.5336 26.3411 13.6404 26.4822H6.90616L7.07388 26.7016H0V27.1317H7.42033C7.47878 27.2031 7.53808 27.2728 7.59822 27.3425H14.3324ZM17.1422 29.9234C17.348 30.0723 17.5572 30.2159 17.769 30.3536H35.1365C35.9161 29.8451 36.6512 29.2694 37.3338 28.633H15.5725C15.7292 28.7792 15.8893 28.9229 16.052 29.0631H9.31777C9.40925 29.1423 9.50158 29.2197 9.59476 29.2954H0V29.7256H10.1411C10.2292 29.7927 10.319 29.8589 10.4088 29.9234H17.143H17.1422ZM23.086 32.5766C24.172 32.8115 25.2977 32.9345 26.4523 32.9345C29.0393 32.9345 31.483 32.3151 33.6482 31.2139H19.2564C19.558 31.367 19.8638 31.5107 20.1747 31.6441H13.4405C13.5607 31.6957 13.6819 31.7464 13.803 31.7955H0V32.2256H15.0143C16.5026 32.6868 18.0824 32.9345 19.7189 32.9345C20.8735 32.9345 22.0001 32.8115 23.086 32.5766ZM13.3286 7.12512H39.5768C39.1534 6.52042 38.6901 5.94556 38.1901 5.40449H14.7153C14.5849 5.54558 14.4569 5.6884 14.3316 5.83465H7.59822L7.44913 6.01187H0V6.44203H7.10014C7.03492 6.52548 6.97054 6.60979 6.90701 6.69496H13.6404C13.5336 6.83691 13.4303 6.98059 13.3286 7.12512ZM15.5717 4.54418H37.3329C36.6507 3.90776 35.9158 3.3321 35.1365 2.82355H17.769C17.5572 2.96206 17.348 3.10573 17.1422 3.25371H10.4088C10.3156 3.32167 10.2224 3.38964 10.131 3.45932H0V3.88948H9.58544C9.49565 3.96347 9.40671 4.03831 9.31862 4.11402H16.052C15.8893 4.25425 15.7292 4.39792 15.5717 4.54418ZM19.2573 1.96324H33.649C31.4152 0.827996 28.951 0.23878 26.4531 0.242609C25.2977 0.242609 24.172 0.366494 23.086 0.601359C21.9791 0.362365 20.8506 0.242121 19.7189 0.242609C17.9113 0.242609 16.174 0.545439 14.5518 1.10292H0V1.53308H20.1747C19.8645 1.66662 19.5585 1.81008 19.2573 1.96324ZM94.2348 0C94.7914 0 95.2285 0.141091 95.5461 0.423274C95.8773 0.692553 96.0425 1.06851 96.0425 1.55373C96.0425 2.03808 95.8773 2.42092 95.5461 2.70311C95.2285 2.97238 94.7914 3.10745 94.2348 3.10745C93.6792 3.10745 93.2353 2.97238 92.9041 2.70311C92.5864 2.42092 92.4272 2.03808 92.4272 1.55373C92.4272 1.06937 92.5864 0.693413 92.9041 0.423274C93.2353 0.141091 93.6792 0 94.2348 0ZM95.7841 4.98294V13.759C95.7841 14.3242 95.8773 14.7079 96.0628 14.9092C96.261 15.1114 96.5922 15.2121 97.0556 15.2121V15.6353C96.685 15.6169 96.3143 15.6035 95.9434 15.5949C95.4339 15.5678 94.9238 15.5544 94.4136 15.5545C93.8977 15.5545 93.3742 15.5682 92.8448 15.5949C92.4474 15.6038 92.0501 15.6173 91.653 15.6353V15.2121C92.1163 15.2121 92.4407 15.1114 92.6263 14.9092C92.8245 14.7079 92.9244 14.3242 92.9244 13.759V7.40386C92.9244 6.79906 92.8312 6.35428 92.6457 6.07296C92.4738 5.77701 92.1426 5.62903 91.653 5.62903V5.2049C92.0765 5.24533 92.4873 5.26512 92.8846 5.26512C93.4403 5.26512 93.957 5.24533 94.4339 5.2049C94.9235 5.15156 95.3742 5.07757 95.7841 4.98294Z" fill="#27272A"/>
<path fill-rule="evenodd" clip-rule="evenodd" d="M101.374 6.83435V4.98295C100.964 5.07758 100.514 5.15157 100.024 5.20491C99.5335 5.24535 99.0168 5.26513 98.4738 5.26513C98.0765 5.26513 97.6666 5.24535 97.2422 5.20491V5.62905C97.7191 5.62905 98.0503 5.77702 98.2358 6.07297C98.4213 6.35515 98.5136 6.79907 98.5136 7.40387V17.4919C98.5136 18.0296 98.4213 18.3927 98.2358 18.5811C98.0638 18.7695 97.7589 18.8633 97.3218 18.8633V19.2874L98.3747 19.2272C98.858 19.2135 99.3414 19.2066 99.8249 19.2065C100.5 19.2065 101.136 19.2134 101.732 19.2263C102.341 19.2538 102.818 19.2736 103.162 19.2865V18.8633C102.606 18.8633 102.169 18.7557 101.851 18.5406C101.533 18.3393 101.374 17.9221 101.374 17.2897V15.268C101.549 15.416 101.754 15.5381 101.99 15.6354C102.414 15.8246 102.884 15.9184 103.4 15.9184C104.103 15.9184 104.731 15.7902 105.288 15.5347C105.853 15.282 106.351 14.8945 106.738 14.4051C107.148 13.8941 107.46 13.2686 107.671 12.5288C107.897 11.7889 108.009 10.9286 108.009 9.9461C108.009 8.83027 107.85 7.90199 107.532 7.16213C107.215 6.40849 106.79 5.85101 106.261 5.48795C105.732 5.11134 105.099 4.91357 104.453 4.92273C103.685 4.92273 103.01 5.12404 102.427 5.52753C101.969 5.84154 101.618 6.27686 101.374 6.83521V6.83435ZM101.374 7.52776V14.8413C101.484 14.9738 101.617 15.0839 101.771 15.1716C102.023 15.3059 102.308 15.373 102.626 15.373C103.222 15.373 103.692 15.1716 104.037 14.7682C104.38 14.3509 104.625 13.7728 104.771 13.0329C104.93 12.2801 105.01 11.3854 105.01 10.3496C105.01 9.19333 104.937 8.28484 104.791 7.62583C104.646 6.96683 104.447 6.49624 104.195 6.21406C103.943 5.93102 103.639 5.78992 103.281 5.78992C102.805 5.78992 102.368 5.97919 101.971 6.35515C101.672 6.64766 101.472 7.0391 101.374 7.52776Z" fill="#27272A"/>
<path d="M112.57 4.92274C113.127 4.92274 113.609 4.99673 114.02 5.1447C114.444 5.27891 114.749 5.41398 114.934 5.54819C115.384 5.8579 115.663 5.65573 115.769 4.94253H116.185C116.159 5.31935 116.139 5.78392 116.126 6.33452C116.113 6.87307 116.106 7.5923 116.106 8.4939H115.689C115.621 7.98947 115.494 7.49503 115.311 7.02105C115.143 6.56104 114.863 6.15156 114.497 5.83037C114.152 5.52066 113.703 5.3658 113.146 5.3658C112.762 5.3658 112.438 5.48108 112.173 5.70993C111.908 5.92501 111.776 6.24074 111.776 6.65799C111.776 7.06148 111.895 7.41765 112.133 7.72736C112.372 8.02331 112.676 8.31238 113.047 8.59456C113.431 8.86384 113.828 9.1529 114.239 9.46176C114.676 9.79814 115.073 10.1345 115.431 10.4709C115.773 10.7752 116.062 11.1369 116.284 11.5403C116.497 11.93 116.603 12.3937 116.603 12.9323C116.603 13.5371 116.43 14.0679 116.086 14.5256C115.742 14.9695 115.285 15.3128 114.716 15.5545C114.159 15.7971 113.537 15.9184 112.849 15.9184C112.487 15.9226 112.127 15.8818 111.776 15.7971C111.5 15.7274 111.234 15.6258 110.981 15.4943C110.809 15.4134 110.643 15.3394 110.485 15.2723C110.349 15.1968 110.21 15.1296 110.067 15.071C109.935 15.0306 109.815 15.077 109.71 15.2121C109.617 15.3463 109.544 15.5347 109.491 15.7765H109.074C109.1 15.3463 109.121 14.8215 109.134 14.2029C109.147 13.5844 109.154 12.7636 109.154 11.7424H109.571C109.65 12.4686 109.796 13.1138 110.008 13.6782C110.219 14.2305 110.504 14.6675 110.862 14.9901C111.233 15.2998 111.696 15.4547 112.252 15.4547C112.478 15.4547 112.696 15.4074 112.908 15.3128C113.12 15.2181 113.292 15.0633 113.425 14.8482C113.57 14.6331 113.643 14.3578 113.643 14.0223C113.643 13.4295 113.451 12.9383 113.066 12.5486C112.696 12.1588 112.219 11.7347 111.637 11.2779C111.213 10.9277 110.809 10.5853 110.425 10.2489C110.069 9.91829 109.762 9.53796 109.511 9.11935C109.269 8.68963 109.146 8.20166 109.154 7.70672C109.154 7.10192 109.312 6.59089 109.63 6.17364C109.954 5.75204 110.388 5.43058 110.882 5.24536C111.419 5.02879 111.992 4.91926 112.57 4.92274ZM137.229 5.1447C136.884 4.99673 136.435 4.92274 135.878 4.92274C135.255 4.91632 134.64 5.06896 134.091 5.36666C133.548 5.64885 133.117 6.12632 132.799 6.79909V4.98382C132.389 5.0776 131.938 5.15158 131.449 5.20492C130.972 5.24536 130.455 5.26515 129.899 5.26515C129.502 5.26515 129.091 5.24536 128.668 5.20492V5.62906C129.157 5.62906 129.489 5.77703 129.661 6.07298C129.846 6.35516 129.938 6.79909 129.938 7.40389V13.759C129.938 14.3243 129.839 14.708 129.641 14.9093C129.456 15.1114 129.131 15.2121 128.668 15.2121V15.6354C129.065 15.6173 129.462 15.6038 129.86 15.5949C130.376 15.5684 130.892 15.5549 131.409 15.5545C131.872 15.5545 132.323 15.5683 132.759 15.5949C133.21 15.6087 133.541 15.6225 133.753 15.6354V15.2121C133.409 15.2121 133.163 15.1114 133.018 14.9093C132.872 14.708 132.799 14.3243 132.799 13.759V8.15064C132.799 7.70672 132.885 7.31011 133.057 6.95996C133.243 6.59691 133.481 6.31473 133.772 6.11342C134.052 5.91538 134.385 5.80965 134.726 5.81059C135.031 5.81059 135.255 5.88457 135.401 6.03255C135.56 6.16675 135.666 6.36205 135.72 6.61756C135.772 6.85931 135.798 7.14837 135.798 7.48476V13.759C135.798 14.3243 135.726 14.708 135.58 14.9093C135.448 15.1114 135.203 15.2121 134.845 15.2121V15.6354C135.084 15.6225 135.434 15.6087 135.898 15.5949C136.838 15.5405 137.78 15.5405 138.719 15.5949C139.209 15.6087 139.573 15.6225 139.811 15.6354V15.2121C139.387 15.2121 139.089 15.1114 138.917 14.9093C138.745 14.708 138.659 14.3243 138.659 13.759V8.24011L138.658 8.17731L138.655 7.97341C138.685 7.63618 138.774 7.30706 138.917 7.00126C139.103 6.63735 139.341 6.34828 139.632 6.1332C139.924 5.91812 140.242 5.81059 140.586 5.81059C140.93 5.81059 141.182 5.88457 141.341 6.03255C141.513 6.16675 141.625 6.36205 141.679 6.61756C141.745 6.85931 141.778 7.14837 141.778 7.48476V13.759C141.778 14.3243 141.705 14.708 141.559 14.9093C141.427 15.1114 141.182 15.2121 140.824 15.2121V15.6354C141.063 15.6225 141.414 15.6087 141.877 15.5949C142.347 15.5679 142.817 15.5544 143.287 15.5545C143.778 15.5545 144.274 15.5683 144.777 15.5949C145.281 15.6087 145.658 15.6225 145.91 15.6354V15.2121C145.447 15.2121 145.115 15.1114 144.916 14.9093C144.731 14.708 144.638 14.3243 144.638 13.759V8.33217C144.638 7.6594 144.592 7.1217 144.5 6.71822C144.406 6.30096 144.255 5.96544 144.042 5.70993C143.83 5.46732 143.553 5.27977 143.208 5.1447C142.864 4.99673 142.413 4.92274 141.858 4.92274C141.182 4.92274 140.546 5.06383 139.951 5.34602C139.38 5.62304 138.917 6.15127 138.562 6.93071C138.55 6.8595 138.536 6.78864 138.52 6.71822C138.428 6.30096 138.275 5.96544 138.064 5.70993C137.852 5.46732 137.573 5.27977 137.229 5.1447ZM127.109 13.4364V4.98296C126.698 5.0776 126.249 5.15158 125.758 5.20492C125.282 5.24536 124.765 5.26515 124.209 5.26515C123.812 5.26515 123.402 5.24536 122.977 5.20492V5.62906C123.468 5.62906 123.799 5.77703 123.971 6.07298C124.156 6.35516 124.249 6.79909 124.249 7.40389V12.6897C124.249 13.1336 124.156 13.5371 123.971 13.9001C123.813 14.2325 123.574 14.5177 123.275 14.7277C122.997 14.9297 122.663 15.0358 122.322 15.0306C121.991 15.0306 121.74 14.9626 121.567 14.8284C121.388 14.6698 121.263 14.4582 121.209 14.2236C121.153 13.9312 121.126 13.6337 121.13 13.3357V4.98296C120.72 5.0776 120.269 5.15158 119.779 5.20492C119.303 5.24536 118.786 5.26515 118.23 5.26515C117.833 5.26515 117.422 5.24536 116.999 5.20492V5.62906C117.488 5.62906 117.819 5.77703 117.991 6.07298C118.177 6.35516 118.269 6.79909 118.269 7.40389V12.5081C118.269 13.1671 118.316 13.7057 118.409 14.1221C118.501 14.5393 118.661 14.8757 118.885 15.1312C119.084 15.3601 119.355 15.5485 119.7 15.6965C120.044 15.8436 120.494 15.9184 121.051 15.9184C121.74 15.9184 122.361 15.7765 122.918 15.4943C123.487 15.1983 123.931 14.714 124.249 14.0421V15.8573C124.692 15.7464 125.144 15.6722 125.6 15.6354C126.077 15.5949 126.592 15.5751 127.149 15.5751C127.56 15.5751 127.97 15.5949 128.381 15.6354V15.2121C127.904 15.2121 127.573 15.071 127.387 14.788C127.202 14.492 127.109 14.0421 127.109 13.4373V13.4364Z" fill="#27272A"/>
<path fill-rule="evenodd" clip-rule="evenodd" d="M88.6857 5.4673C87.9573 5.10425 87.1093 4.92272 86.1428 4.92272C85.2026 4.92272 84.3615 5.10425 83.6203 5.4673C82.8918 5.83035 82.3158 6.41537 81.8922 7.22234C81.4814 8.02932 81.2756 9.09869 81.2756 10.4305C81.2756 11.7622 81.4814 12.8307 81.8914 13.6386C82.3149 14.4318 82.8909 15.0099 83.6194 15.373C84.3615 15.736 85.2026 15.9184 86.1428 15.9184C87.1093 15.9184 87.9573 15.736 88.6857 15.373C89.4134 15.0099 89.9835 14.4318 90.3934 13.6386C90.8043 12.8316 91.0093 11.7622 91.0093 10.4305C91.0093 9.09869 90.8043 8.03018 90.3934 7.22234C89.9835 6.41537 89.4134 5.83035 88.6857 5.4673ZM84.8121 6.53667C85.1696 5.7297 85.6134 5.32621 86.1428 5.32621C86.6858 5.32621 87.1297 5.7297 87.4736 6.53667C87.8311 7.32988 88.0098 8.62809 88.0098 10.4305C88.0098 12.2328 87.8311 13.531 87.4736 14.3242C87.1297 15.1174 86.6858 15.5149 86.1428 15.5149C85.6134 15.5149 85.1696 15.1174 84.8121 14.3242C84.4546 13.531 84.2759 12.2328 84.2759 10.4305C84.2759 8.62809 84.4538 7.32988 84.8121 6.53667ZM74.798 19.4285C73.9764 19.4285 73.242 19.3545 72.5931 19.2065C71.9578 19.0723 71.4546 18.8572 71.0836 18.5613C70.7262 18.2782 70.5474 17.9289 70.5474 17.5117C70.5474 17.0944 70.7321 16.7185 71.1031 16.3821C71.4741 16.0595 72.0239 15.804 72.7524 15.6156L72.9302 15.9382C72.7028 16.1116 72.5136 16.3314 72.3746 16.5834C72.2687 16.826 72.2153 17.0747 72.2153 17.3302C72.2153 17.8954 72.4669 18.3256 72.9709 18.6206C73.4876 18.9304 74.1822 19.0852 75.0564 19.0852C75.6519 19.0852 76.1821 19.0043 76.6455 18.8435C77.1224 18.6817 77.4926 18.4391 77.7577 18.1174C78.0364 17.7939 78.1753 17.3973 78.1753 16.9267C78.1753 16.5232 78.0296 16.1799 77.7382 15.8977C77.4468 15.6285 76.864 15.4943 75.9899 15.4943H74.7582C74.2161 15.4943 73.7383 15.434 73.3284 15.3127C72.9302 15.1923 72.6194 15.003 72.394 14.7475C72.1696 14.4791 72.0569 14.1427 72.0569 13.7392C72.0569 13.174 72.2755 12.6767 72.7125 12.2457C73.0548 11.9085 73.5274 11.5876 74.1305 11.2839C73.734 11.2338 73.3446 11.1371 72.9701 10.9957C72.3746 10.7668 71.9044 10.4167 71.5605 9.9461C71.2158 9.4755 71.0438 8.8707 71.0438 8.13083C71.0438 7.39096 71.2158 6.7853 71.5605 6.31471C71.9044 5.83035 72.3746 5.48021 72.9709 5.26513C73.5664 5.03714 74.2415 4.92272 74.9962 4.92272C75.7518 4.92272 76.4269 5.03714 77.0224 5.26599C77.4155 5.40708 77.7526 5.60753 78.0364 5.86563C78.2049 5.61872 78.4099 5.39848 78.6514 5.20491C79.102 4.85562 79.5857 4.68011 80.1015 4.68011C80.5251 4.68011 80.8436 4.80142 81.0553 5.04403C81.2807 5.27201 81.3933 5.57484 81.3933 5.95166C81.3933 6.35515 81.2866 6.65712 81.0748 6.85929C80.8631 7.04856 80.625 7.14233 80.3599 7.14233C80.1267 7.1392 79.902 7.05338 79.7246 6.89972C79.5382 6.73799 79.4332 6.49624 79.4069 6.17362C79.3841 5.88455 79.4637 5.52666 79.6458 5.09823C79.2596 5.26513 78.9614 5.45526 78.7513 5.66948C78.5929 5.82456 78.4546 5.99945 78.3396 6.18997C78.3718 6.2304 78.4032 6.27256 78.4328 6.31471C78.7776 6.7853 78.9495 7.3901 78.9495 8.12997C78.9495 8.86984 78.7776 9.4755 78.4328 9.9461C78.0889 10.4167 77.6188 10.7668 77.0224 10.9957C76.4269 11.2237 75.7518 11.3381 74.9962 11.3381C74.8833 11.3382 74.7703 11.3356 74.6574 11.3303C74.4787 11.4534 74.3067 11.5841 74.1424 11.7218C74.0403 11.8029 73.9584 11.9072 73.9033 12.0262C73.8481 12.1453 73.8212 12.2759 73.8247 12.4075C73.8247 12.8376 74.0899 13.0527 74.6193 13.0527H76.7844C77.5129 13.0527 78.1617 13.1404 78.731 13.3151C79.3138 13.4906 79.7703 13.7797 80.1015 14.1831C80.4463 14.5729 80.6182 15.0839 80.6182 15.7162C80.6182 16.3752 80.4065 16.9869 79.9829 17.5521C79.5721 18.1174 78.9368 18.5673 78.0753 18.9037C77.2147 19.2538 76.122 19.4285 74.798 19.4285ZM74.9962 10.975C75.3546 10.975 75.6315 10.7737 75.8306 10.3702C76.0297 9.95298 76.1288 9.20623 76.1288 8.13083C76.1288 7.05458 76.0297 6.31471 75.8306 5.91122C75.6324 5.49397 75.3546 5.28578 74.9971 5.28578C74.6523 5.28578 74.3745 5.49397 74.1627 5.91122C73.9637 6.31471 73.8646 7.05458 73.8646 8.13083C73.8646 9.20623 73.9637 9.95298 74.1627 10.3702C74.3745 10.7737 74.6523 10.975 74.9962 10.975ZM67.9757 5.4673C67.2472 5.10425 66.4002 4.92272 65.4337 4.92272C64.4934 4.92272 63.6523 5.10425 62.9111 5.4673C62.1826 5.83035 61.6066 6.41537 61.1831 7.22234C60.7722 8.02932 60.5664 9.09869 60.5664 10.4305C60.5664 11.7622 60.7722 12.8307 61.1822 13.6386C61.6058 14.4318 62.1818 15.0099 62.9102 15.373C63.6523 15.736 64.4934 15.9184 65.4337 15.9184C66.4002 15.9184 67.2481 15.736 67.9757 15.373C68.7042 15.0099 69.2734 14.4318 69.6843 13.6386C70.0951 12.8316 70.3001 11.7622 70.3001 10.4305C70.3001 9.09869 70.0951 8.03018 69.6843 7.22234C69.2743 6.41537 68.7042 5.83035 67.9757 5.4673ZM64.1021 6.53667C64.4604 5.7297 64.9034 5.32621 65.4337 5.32621C65.9758 5.32621 66.4197 5.7297 66.7636 6.53667C67.1219 7.32988 67.3006 8.62809 67.3006 10.4305C67.3006 12.2328 67.1219 13.531 66.7644 14.3242C66.4197 15.1174 65.9766 15.5149 65.4337 15.5149C64.9034 15.5149 64.4595 15.1174 64.1021 14.3242C63.7446 13.531 63.5659 12.2328 63.5659 10.4305C63.5659 8.62809 63.7446 7.32988 64.1021 6.53667Z" fill="#27272A"/>
<path d="M55.2135 1.35156V1.75591C54.7637 1.76881 54.4189 1.82215 54.1809 1.91679C54.072 1.95425 53.9735 2.01783 53.8939 2.10215C53.8142 2.18646 53.7558 2.28902 53.7235 2.40115C53.6447 2.62913 53.6049 2.99304 53.6049 3.4903V13.7392C53.6049 14.1556 53.6312 14.4653 53.6845 14.6675C53.7506 14.8688 53.87 15.003 54.042 15.071C54.2275 15.1381 54.4994 15.1716 54.856 15.1716H55.8302C56.2791 15.1716 56.7035 15.0641 57.1008 14.849C57.4989 14.6339 57.8555 14.3311 58.1732 13.9405C58.5082 13.5067 58.7764 13.0237 58.9685 12.5081C59.1803 11.9575 59.3387 11.345 59.4446 10.6722H59.902C59.8622 11.1299 59.8427 11.7218 59.8427 12.4479C59.8427 12.7576 59.8487 13.2075 59.8622 13.7994C59.8758 14.3913 59.9147 15.0039 59.9808 15.6354C59.2199 15.6069 58.4585 15.5934 57.6971 15.5949C56.85 15.582 56.0944 15.5751 55.432 15.5751H54.1614C53.6447 15.5751 53.0882 15.582 52.4927 15.5949C51.8964 15.5949 51.2941 15.6018 50.6851 15.6156C50.0752 15.6156 49.4992 15.6224 48.957 15.6354V15.2319C49.3806 15.2052 49.6982 15.151 49.91 15.071C50.1218 14.9901 50.2607 14.8284 50.3276 14.5866C50.4064 14.344 50.4462 13.981 50.4462 13.4966V3.4903C50.4462 2.99218 50.4064 2.62999 50.3276 2.40115C50.3015 2.28923 50.2476 2.18596 50.1711 2.10118C50.0946 2.01639 49.998 1.95291 49.8905 1.91679C49.6787 1.82215 49.367 1.76881 48.957 1.75505V1.35156C50.0027 1.39091 51.049 1.41099 52.0954 1.41178C52.6782 1.41178 53.2474 1.40576 53.8031 1.392C54.3732 1.37823 54.8433 1.36533 55.2135 1.35156Z" fill="#27272A"/>
<path fill-rule="evenodd" clip-rule="evenodd" d="M143.891 32.3074C143.863 32.1628 143.882 31.9744 143.949 31.7422L146.746 21.4468C146.299 21.6334 145.835 21.7788 145.362 21.8812C144.876 21.9785 144.32 22.0309 143.691 22.0413L143.591 22.3458C144.058 22.3458 144.348 22.4232 144.463 22.5781C144.576 22.7329 144.591 22.9738 144.505 23.3025L143.843 25.8395C143.801 25.7171 143.729 25.6076 143.634 25.5212C143.473 25.3664 143.249 25.2889 142.963 25.2889C142.393 25.2889 141.864 25.4197 141.379 25.6804C140.89 25.9513 140.451 26.3045 140.079 26.7248C139.689 27.1507 139.357 27.6289 139.094 28.146C138.835 28.6493 138.629 29.179 138.48 29.7264C138.345 30.198 138.273 30.6858 138.266 31.1769C138.266 31.6406 138.338 32.0226 138.48 32.322C138.623 32.6119 138.818 32.8296 139.065 32.9741C139.313 33.1101 139.589 33.1772 139.894 33.1772C140.36 33.1772 140.779 33.0378 141.15 32.7573C141.521 32.4674 141.868 32.0226 142.193 31.423C142.328 31.1786 142.465 30.9042 142.6 30.5997L142.506 30.9593C142.42 31.2425 142.363 31.534 142.335 31.829C142.316 32.0803 142.335 32.2936 142.393 32.4674C142.506 32.9406 142.858 33.178 143.449 33.178C143.667 33.178 143.891 33.1341 144.12 33.0472C144.348 32.9604 144.562 32.8107 144.762 32.5973C144.972 32.3848 145.138 32.0811 145.262 31.6837L145.605 30.6255H145.334L145.105 31.2776C144.934 31.7714 144.772 32.1043 144.62 32.2781C144.476 32.4433 144.329 32.525 144.176 32.525C144.015 32.525 143.92 32.4528 143.891 32.3074ZM143.13 28.5736C143.022 28.9272 142.905 29.2636 142.778 29.581C142.54 30.2005 142.288 30.7321 142.021 31.1769C141.764 31.6114 141.512 31.9495 141.264 32.1921C141.017 32.4235 140.798 32.5397 140.608 32.5397C140.427 32.5397 140.294 32.4528 140.208 32.279C140.132 32.0949 140.094 31.8196 140.094 31.4522C140.094 30.93 140.15 30.3983 140.265 29.8572C140.379 29.3066 140.536 28.7792 140.736 28.2768C140.92 27.8053 141.149 27.3534 141.421 26.9278C141.678 26.5218 141.95 26.2026 142.235 25.9703C142.53 25.738 142.82 25.6227 143.106 25.6227C143.296 25.6227 143.449 25.6907 143.563 25.8258C143.643 25.9135 143.704 26.0409 143.746 26.2095L143.13 28.5736Z" fill="#27272A"/>
<path d="M134.393 32.9741H132.637L134.349 26.7248C134.436 26.4349 134.464 26.2319 134.436 26.1157C134.407 25.9996 134.322 25.9419 134.178 25.9419C133.998 25.9419 133.831 26.034 133.679 26.2172C133.526 26.4005 133.369 26.7248 133.208 27.1894L132.965 27.8699H132.693L133.064 26.7825C133.198 26.3953 133.364 26.0968 133.564 25.8834C133.764 25.6615 133.984 25.5066 134.222 25.4197C134.46 25.3328 134.702 25.289 134.949 25.289C135.254 25.289 135.478 25.3518 135.62 25.4782C135.773 25.6038 135.868 25.7682 135.906 25.9712C135.955 26.19 135.964 26.4158 135.934 26.6379C135.916 26.8702 135.878 27.0973 135.82 27.3193L135.59 28.2287L135.649 28.0738C135.916 27.3873 136.172 26.841 136.42 26.4349C136.677 26.0194 136.948 25.7243 137.234 25.5505C137.513 25.3778 137.835 25.2873 138.162 25.289C138.504 25.289 138.766 25.3905 138.947 25.5935C139.138 25.7965 139.233 26.0478 139.233 26.348C139.233 26.5889 139.175 26.8169 139.062 27.0294C138.951 27.2288 138.794 27.3979 138.604 27.5223C138.424 27.6385 138.215 27.6961 137.977 27.6961C137.739 27.6961 137.548 27.6333 137.405 27.5077C137.272 27.3821 137.205 27.198 137.205 26.9571C137.205 26.7438 137.253 26.551 137.348 26.3764C137.44 26.2064 137.566 26.0582 137.719 25.9419C137.872 25.8163 138.038 25.7294 138.219 25.6804C138.199 25.6605 138.175 25.6457 138.148 25.6374C138.115 25.6271 138.082 25.6222 138.048 25.6228C137.839 25.6228 137.624 25.7002 137.405 25.855C137.186 25.9996 136.958 26.237 136.72 26.5657C136.482 26.8943 136.239 27.3288 135.992 27.8699C135.713 28.5098 135.465 29.1633 135.249 29.828C135.142 30.1497 135.033 30.4956 134.925 30.8664L134.393 32.9741Z" fill="#27272A"/>
<path fill-rule="evenodd" clip-rule="evenodd" d="M129.056 30.7339L128.996 30.9593C128.906 31.2867 128.844 31.6215 128.811 31.9598C128.782 32.2695 128.829 32.5302 128.953 32.7427C129.144 33.0326 129.467 33.178 129.924 33.178C130.143 33.178 130.362 33.1341 130.581 33.0472C130.809 32.9604 131.023 32.8107 131.223 32.5973C131.423 32.3753 131.59 32.0656 131.723 31.6699L132.08 30.6117H131.808L131.594 31.2638C131.423 31.7662 131.257 32.1 131.095 32.2644C130.933 32.4278 130.776 32.5104 130.623 32.5104C130.5 32.5104 130.419 32.4717 130.381 32.3943C130.351 32.2958 130.341 32.1922 130.352 32.0897C130.371 31.9668 130.4 31.8456 130.438 31.7275L132.28 25.2889C131.993 25.3585 131.702 25.4071 131.409 25.4343C131.114 25.4636 130.795 25.4825 130.452 25.492L130.246 26.268C130.237 26.071 130.18 25.8792 130.081 25.7096C130.007 25.5775 129.898 25.4685 129.767 25.3943C129.637 25.3202 129.488 25.2837 129.338 25.2889C128.92 25.2889 128.501 25.4197 128.082 25.6804C127.637 25.9648 127.237 26.317 126.897 26.7248C126.513 27.1695 126.178 27.6556 125.898 28.1744C125.617 28.6947 125.392 29.2442 125.227 29.8133C125.071 30.3254 124.989 30.8578 124.984 31.3937C124.984 31.9357 125.108 32.3702 125.355 32.6988C125.603 33.018 125.983 33.1772 126.497 33.1772C126.859 33.1772 127.206 33.0713 127.54 32.8588C127.882 32.6455 128.206 32.2928 128.511 31.8007C128.7 31.5038 128.881 31.1485 129.056 30.7339ZM127.825 32.2059C127.606 32.4089 127.411 32.5104 127.24 32.5104C127.097 32.5104 126.988 32.4381 126.911 32.2928C126.845 32.1379 126.812 31.8824 126.812 31.5245C126.812 31.0117 126.868 30.4852 126.983 29.9441C127.097 29.4021 127.249 28.8807 127.44 28.3783C127.64 27.875 127.859 27.426 128.097 27.0294C128.335 26.6336 128.573 26.3187 128.811 26.0865C129.058 25.8542 129.291 25.7389 129.51 25.7389C129.738 25.7389 129.9 25.855 129.996 26.0865C130.091 26.2964 130.115 26.5777 130.069 26.9296L129.648 28.5143L129.696 28.2622C129.543 28.8808 129.362 29.4511 129.153 29.9733C128.971 30.4402 128.751 30.8911 128.496 31.3215C128.268 31.6983 128.044 31.9934 127.825 32.2059ZM123.065 31.7422C122.998 31.9744 122.979 32.1628 123.008 32.3074C123.036 32.4528 123.132 32.525 123.294 32.525C123.446 32.525 123.594 32.4433 123.736 32.279C123.888 32.1043 124.05 31.7714 124.221 31.2776L124.45 30.6255H124.721L124.379 31.6837C124.255 32.0803 124.088 32.3848 123.879 32.5973C123.701 32.7949 123.481 32.9488 123.236 33.0472C123.022 33.1317 122.795 33.176 122.565 33.178C121.976 33.178 121.623 32.9406 121.509 32.4674C121.449 32.2605 121.429 32.0435 121.452 31.829C121.471 31.5778 121.528 31.287 121.623 30.9593L121.717 30.5997C121.581 30.9042 121.445 31.1786 121.309 31.423C120.985 32.0226 120.638 32.4674 120.267 32.7565C119.905 33.034 119.463 33.1822 119.01 33.178C118.706 33.178 118.43 33.1092 118.182 32.975C117.927 32.8218 117.723 32.5943 117.597 32.322C117.454 32.0226 117.383 31.6406 117.383 31.1769C117.383 30.7321 117.454 30.2478 117.597 29.7264C117.739 29.1948 117.944 28.6683 118.21 28.146C118.474 27.6291 118.805 27.151 119.196 26.7248C119.586 26.2895 120.019 25.9419 120.495 25.6804C120.983 25.4187 121.528 25.2842 122.08 25.2889C122.365 25.2889 122.589 25.3664 122.751 25.5212C122.844 25.6047 122.914 25.7105 122.96 25.8395L123.621 23.3025C123.708 22.9738 123.693 22.7321 123.579 22.5772C123.465 22.4224 123.174 22.3449 122.708 22.3449L122.808 22.0413C123.369 22.038 123.928 21.9844 124.479 21.8812C124.952 21.7788 125.416 21.6334 125.864 21.4468L123.065 31.7422ZM121.894 29.581C122.021 29.2627 122.139 28.9272 122.246 28.5736L122.863 26.2095C122.834 26.0683 122.771 25.9367 122.68 25.8258C122.623 25.7591 122.553 25.7062 122.474 25.6711C122.395 25.6359 122.309 25.6194 122.223 25.6227C121.937 25.6227 121.647 25.7389 121.352 25.9703C121.066 26.2026 120.795 26.5218 120.538 26.9278C120.266 27.353 120.037 27.8046 119.853 28.2759C119.65 28.7878 119.492 29.317 119.382 29.8572C119.269 30.3812 119.212 30.9159 119.21 31.4522C119.21 31.8196 119.248 32.0949 119.324 32.2781C119.41 32.4528 119.544 32.5397 119.724 32.5397C119.915 32.5397 120.133 32.4235 120.381 32.1912C120.629 31.9503 120.88 31.6114 121.138 31.1761C121.435 30.6674 121.688 30.1338 121.894 29.581Z" fill="#27272A"/>
<path d="M109.52 32.9741H111.276L111.441 32.3186L111.432 32.3659C111.613 31.6888 111.818 31.0367 112.046 30.4078C112.268 29.8076 112.516 29.2175 112.788 28.639C113.046 28.097 113.303 27.6238 113.56 27.2178C113.817 26.8117 114.064 26.4977 114.302 26.2749C114.54 26.0426 114.759 25.9273 114.959 25.9273C115.12 25.9273 115.22 25.9849 115.258 26.1011C115.298 26.2329 115.303 26.3728 115.273 26.5071C115.244 26.6643 115.206 26.8194 115.158 26.9717L113.86 30.9593C113.726 31.3653 113.65 31.7129 113.631 32.0028C113.612 32.2928 113.664 32.5302 113.788 32.7134C113.884 32.8588 114.017 32.9698 114.188 33.0472C114.369 33.1333 114.583 33.178 114.831 33.178C115.059 33.178 115.287 33.1341 115.516 33.0472C115.754 32.9698 115.973 32.8244 116.172 32.6119C116.382 32.3994 116.554 32.0897 116.687 31.6837L117.043 30.6255H116.772L116.543 31.2776C116.363 31.7809 116.192 32.1138 116.03 32.2781C115.878 32.4433 115.73 32.525 115.587 32.525C115.435 32.525 115.34 32.4622 115.302 32.3358C115.264 32.2016 115.287 32.0028 115.373 31.7422L116.772 27.4784C116.896 27.1016 116.958 26.7489 116.958 26.4203C116.967 26.0821 116.877 25.8112 116.687 25.6081C116.505 25.3956 116.182 25.2898 115.716 25.2898C115.363 25.2898 115.025 25.3672 114.702 25.5212C114.378 25.6761 114.064 25.9462 113.76 26.3334C113.455 26.7102 113.141 27.2229 112.817 27.8699C112.602 28.3063 112.406 28.7514 112.227 29.2042L112.703 27.3193C112.76 27.087 112.803 26.8547 112.832 26.6233C112.86 26.3824 112.85 26.1639 112.803 25.9703C112.757 25.7704 112.641 25.5948 112.475 25.4773C112.313 25.3517 112.075 25.2889 111.761 25.2889C111.38 25.2889 111.032 25.3956 110.718 25.6081C110.405 25.8206 110.147 26.2121 109.947 26.7824L109.576 27.8699H109.847L110.09 27.1885C110.262 26.7153 110.418 26.391 110.561 26.2172C110.714 26.034 110.88 25.9419 111.061 25.9419C111.194 25.9419 111.276 25.9806 111.304 26.0581C111.342 26.1355 111.352 26.2318 111.332 26.348C111.311 26.4752 111.282 26.601 111.247 26.7248L109.52 32.9741Z" fill="#27272A"/>
<path fill-rule="evenodd" clip-rule="evenodd" d="M105.884 30.9593L105.944 30.7339C105.791 31.1041 105.609 31.461 105.398 31.8007C105.093 32.2928 104.77 32.6463 104.427 32.8588C104.094 33.0713 103.747 33.1772 103.385 33.1772C102.871 33.1772 102.49 33.018 102.243 32.6988C101.995 32.3702 101.871 31.9357 101.871 31.3937C101.871 30.8913 101.952 30.3648 102.114 29.8133C102.279 29.2442 102.504 28.6947 102.785 28.1744C103.065 27.6554 103.4 27.1693 103.785 26.7248C104.125 26.317 104.524 25.9648 104.97 25.6804C105.388 25.4197 105.807 25.2889 106.226 25.2889C106.549 25.2889 106.797 25.4292 106.969 25.7105C107.06 25.8542 107.115 26.04 107.133 26.268L107.34 25.492C107.682 25.4825 108.001 25.4636 108.296 25.4343C108.601 25.4051 108.891 25.3569 109.167 25.2889L107.325 31.7284C107.287 31.8464 107.258 31.9676 107.24 32.0906C107.229 32.193 107.239 32.2966 107.269 32.3951C107.307 32.4726 107.387 32.5113 107.511 32.5113C107.663 32.5113 107.82 32.4295 107.982 32.2652C108.144 32.1009 108.311 31.7662 108.482 31.2647L108.696 30.6117H108.967L108.61 31.6699C108.477 32.0665 108.311 32.3753 108.111 32.599C107.933 32.7961 107.713 32.9497 107.469 33.0481C107.259 33.1332 107.036 33.1776 106.811 33.1789C106.355 33.1789 106.031 33.0335 105.84 32.7436C105.717 32.5311 105.669 32.2704 105.698 31.9607C105.731 31.6223 105.793 31.2867 105.884 30.9593ZM104.127 32.5104C104.299 32.5104 104.494 32.4089 104.713 32.2059C104.932 31.9934 105.155 31.6983 105.384 31.3215C105.612 30.9446 105.831 30.4956 106.04 29.9733C106.25 29.4511 106.431 28.8807 106.583 28.2613L106.535 28.5143L106.957 26.9304C107.002 26.5777 106.977 26.2964 106.883 26.0873C106.787 25.855 106.626 25.7389 106.397 25.7389C106.178 25.7389 105.945 25.855 105.698 26.0865C105.46 26.3187 105.222 26.6327 104.984 27.0294C104.746 27.4251 104.527 27.875 104.327 28.3775C104.135 28.8866 103.982 29.4101 103.87 29.9432C103.758 30.4627 103.701 30.9928 103.699 31.5245C103.699 31.8824 103.732 32.1388 103.799 32.2928C103.875 32.4381 103.985 32.5104 104.127 32.5104Z" fill="#27272A"/>
<path d="M102.86 25.7819L102.903 25.492H101.202L101.875 23.114C101.594 23.1844 101.307 23.233 101.019 23.2594C100.724 23.2878 100.404 23.3076 100.062 23.3171L99.4481 25.492H98.1487L98.0775 25.7819H99.3668L97.9056 30.9592C97.7819 31.3842 97.7396 31.7662 97.7777 32.1043C97.8251 32.433 97.9581 32.6945 98.1775 32.8872C98.4054 33.0808 98.734 33.178 99.1626 33.178C99.648 33.178 100.066 33.0472 100.419 32.7857C100.771 32.525 101.047 32.0949 101.247 31.4952L101.533 30.6254H101.261L101.047 31.2199C100.875 31.7034 100.686 32.0415 100.476 32.2351C100.276 32.4287 100.076 32.525 99.8759 32.525C99.7973 32.5277 99.7192 32.512 99.6475 32.4792C99.5759 32.4464 99.5126 32.3973 99.4625 32.3357C99.3668 32.211 99.3575 32.0131 99.4337 31.7421L101.12 25.7819H102.86ZM98.1318 22.6065C98.0369 22.8577 97.9081 23.2259 97.7463 23.7085C97.5939 24.1817 97.4422 24.8011 97.2898 25.5642H97.0043C97.0323 25.4292 97.0517 25.2889 97.0611 25.1444C97.0793 25.0147 97.0889 24.8839 97.0899 24.7529C97.0899 24.3753 97.0136 24.0475 96.8612 23.767C96.7147 23.4729 96.4797 23.2339 96.1903 23.0848C95.8955 22.911 95.5143 22.8241 95.0484 22.8241C94.5436 22.8241 94.115 22.9592 93.7634 23.2302C93.411 23.4909 93.2348 23.9116 93.2348 24.4914C93.2348 24.8493 93.3153 25.1883 93.4771 25.5066C93.6491 25.8163 93.8634 26.1208 94.12 26.4202C94.3869 26.7102 94.6672 27.0052 94.962 27.3046C95.2577 27.5946 95.5338 27.8948 95.7905 28.2037C96.0471 28.5134 96.2572 28.842 96.419 29.1896C96.5901 29.5285 96.6756 29.9002 96.6756 30.3063C96.6756 30.819 96.552 31.2586 96.3046 31.626C96.0633 31.9869 95.7463 32.2889 95.3762 32.5104C94.9883 32.7357 94.5699 32.9018 94.1344 33.0034C93.7152 33.1171 93.2834 33.1758 92.8494 33.178C92.4208 33.178 92.0642 33.1436 91.7787 33.0765C91.5348 33.0298 91.299 32.9466 91.0791 32.8296C90.8922 32.7255 90.7063 32.6194 90.5217 32.5113C90.4376 32.4396 90.3407 32.3853 90.2362 32.3512C90.1697 32.3173 90.0971 32.2974 90.0228 32.2927C89.8982 32.2927 89.794 32.3555 89.7085 32.482C89.5962 32.6709 89.5006 32.8695 89.423 33.0756H89.1367C89.3725 32.486 89.5684 31.8806 89.7229 31.2638C89.8364 30.819 89.9652 30.2633 90.1083 29.5957H90.3938C90.3539 29.7877 90.3206 29.9811 90.2938 30.1755C90.265 30.3691 90.2557 30.5626 90.265 30.7562C90.2938 31.4324 90.498 31.9546 90.8791 32.322C91.2696 32.6893 91.8406 32.8726 92.5919 32.8726C93.2298 32.8726 93.7109 32.7375 94.0345 32.4674C94.3581 32.1869 94.5199 31.7808 94.5199 31.2492C94.5199 30.8431 94.4436 30.4749 94.2911 30.1471C94.1472 29.8062 93.9549 29.4885 93.7202 29.2042C93.4782 28.91 93.2259 28.6248 92.9638 28.3491C92.7011 28.0733 92.4485 27.7877 92.2065 27.493C91.9728 27.2002 91.7762 26.8789 91.6212 26.5364C91.4653 26.1702 91.3876 25.7747 91.3933 25.3758C91.3933 24.8932 91.4933 24.4725 91.6932 24.1146C91.8946 23.7655 92.1669 23.464 92.492 23.2302C92.8254 22.9884 93.1973 22.8068 93.5915 22.6934C93.9749 22.5704 94.3744 22.5069 94.7765 22.5049C95.2907 22.5049 95.7142 22.5677 96.0471 22.6942C96.3809 22.819 96.6663 22.9695 96.9044 23.1433L97.1754 23.3171C97.261 23.3558 97.3279 23.3747 97.3753 23.3747C97.5083 23.3747 97.6659 23.1192 97.8463 22.6065H98.1318Z" fill="#27272A"/>
<path fill-rule="evenodd" clip-rule="evenodd" d="M84.3481 32.3074C84.3193 32.1628 84.3387 31.9744 84.4057 31.7422L87.2035 21.4468C86.7556 21.6334 86.2921 21.7788 85.8186 21.8812C85.3332 21.9785 84.7767 22.0309 84.1481 22.0413L84.0482 22.3458C84.5141 22.3458 84.8055 22.4232 84.919 22.5781C85.0333 22.7329 85.0477 22.9738 84.9622 23.3025L84.2998 25.8395C84.2582 25.7171 84.1864 25.6076 84.0914 25.5212C83.9296 25.3664 83.706 25.2889 83.4205 25.2889C82.8487 25.2889 82.321 25.4197 81.8356 25.6804C81.3474 25.9513 80.908 26.3044 80.5362 26.7248C80.1456 27.1507 79.8142 27.6289 79.5511 28.146C79.2918 28.6492 79.0859 29.179 78.937 29.7264C78.8014 30.1979 78.7293 30.6858 78.7227 31.1769C78.7227 31.6406 78.7947 32.0226 78.937 32.322C79.0801 32.6119 79.2749 32.8296 79.5223 32.9741C79.7696 33.1101 80.0458 33.1772 80.3507 33.1772C80.8166 33.1772 81.2359 33.0378 81.6069 32.7573C81.978 32.4674 82.3252 32.0226 82.6488 31.423C82.7844 31.1786 82.9207 30.9042 83.0571 30.5997L82.9639 30.9593C82.8773 31.2424 82.8197 31.5339 82.792 31.829C82.7692 32.0435 82.7885 32.2605 82.8487 32.4674C82.9631 32.9406 83.3146 33.178 83.9059 33.178C84.1244 33.178 84.3481 33.1341 84.5768 33.0472C84.8055 32.9604 85.0189 32.8107 85.2188 32.5973C85.4289 32.3848 85.5949 32.0811 85.7186 31.6837L86.0617 30.6255H85.7906L85.5619 31.2776C85.3908 31.7714 85.229 32.1043 85.0765 32.2781C84.9334 32.4433 84.786 32.525 84.6335 32.525C84.4726 32.525 84.3769 32.4528 84.3481 32.3074ZM83.5857 28.5736C83.479 28.9272 83.3621 29.2636 83.2342 29.581C82.997 30.2005 82.7446 30.7321 82.4777 31.1769C82.2211 31.6114 81.9686 31.9495 81.7213 32.1921C81.4739 32.4235 81.2554 32.5397 81.064 32.5397C80.8835 32.5397 80.7505 32.4528 80.665 32.279C80.5888 32.0949 80.5506 31.8196 80.5506 31.4522C80.5506 30.93 80.6074 30.3983 80.7217 29.8572C80.8361 29.3066 80.9928 28.7792 81.1927 28.2768C81.3769 27.8052 81.6067 27.3533 81.8788 26.9278C82.1355 26.5218 82.4066 26.2026 82.692 25.9703C82.9868 25.738 83.2774 25.6227 83.5628 25.6227C83.7534 25.6227 83.9059 25.6907 84.0202 25.8258C84.0999 25.9135 84.1608 26.0409 84.2032 26.2095L83.5857 28.5736Z" fill="#27272A"/>
<path d="M72.6193 32.9741H70.8633L72.5913 26.7248C72.6294 26.5897 72.6574 26.4641 72.676 26.348C72.6972 26.2508 72.6875 26.1492 72.6481 26.0581C72.6193 25.9806 72.5379 25.9419 72.4049 25.9419C72.2245 25.9419 72.0577 26.034 71.9052 26.2172C71.7629 26.391 71.6053 26.7153 71.4342 27.1894L71.1919 27.8699H70.9209L71.2919 26.7824C71.4918 26.2121 71.7493 25.8206 72.0627 25.6081C72.3761 25.3956 72.7235 25.2898 73.1046 25.2898C73.4189 25.2898 73.6569 25.3517 73.8187 25.4773C73.9846 25.5946 74.1017 25.7703 74.1474 25.9703C74.1948 26.1639 74.2041 26.3815 74.1762 26.6233C74.1471 26.8577 74.1041 27.0901 74.0474 27.3193L73.5714 29.2051C73.773 28.6984 73.9695 28.2544 74.1618 27.8699C74.4854 27.2229 74.7988 26.7102 75.1037 26.3334C75.4087 25.9462 75.7221 25.6761 76.0457 25.5212C76.3701 25.3664 76.7072 25.2889 77.0596 25.2889C77.5255 25.2889 77.8499 25.3956 78.0303 25.6081C78.2209 25.8112 78.3116 26.0813 78.3014 26.4203C78.3014 26.7489 78.2404 27.1016 78.1159 27.4784L76.7174 31.7422C76.631 32.0028 76.6073 32.2016 76.6454 32.3358C76.6835 32.4622 76.7792 32.525 76.9317 32.525C77.074 32.525 77.2214 32.4433 77.3739 32.279C77.5357 32.1138 77.7068 31.78 77.888 31.2776L78.1167 30.6255H78.3878L78.0303 31.6837C77.8974 32.0897 77.7254 32.3994 77.517 32.6128C77.3376 32.8117 77.1115 32.9612 76.8597 33.0472C76.6409 33.1325 76.4087 33.1768 76.1744 33.178C75.9271 33.178 75.7128 33.1341 75.5323 33.0472C75.3604 32.9698 75.2274 32.858 75.1325 32.7134C75.0088 32.5302 74.9563 32.2928 74.975 32.0028C74.9944 31.7129 75.0707 31.3653 75.2037 30.9593L76.5031 26.9717C76.5505 26.8169 76.5886 26.662 76.6174 26.5071C76.6474 26.3728 76.6424 26.2329 76.603 26.1011C76.5649 25.9849 76.465 25.9273 76.3032 25.9273C76.1033 25.9273 75.8839 26.0434 75.6467 26.2749C75.4087 26.4977 75.1605 26.8117 74.9038 27.2178C74.6189 27.6753 74.3615 28.1499 74.133 28.639C73.8763 29.181 73.6281 29.7695 73.3901 30.4078C73.1614 31.0358 72.9581 31.6888 72.7768 32.3659L72.7853 32.3186L72.6193 32.9741Z" fill="#27272A"/>
<path fill-rule="evenodd" clip-rule="evenodd" d="M67.2828 30.7338L67.2235 30.9592C67.1335 31.2868 67.0712 31.6215 67.0371 31.9598C67.0083 32.2695 67.0558 32.5302 67.1794 32.7427C67.37 33.0326 67.6936 33.178 68.151 33.178C68.3951 33.1762 68.6363 33.1238 68.8598 33.0239C69.0832 32.9241 69.2842 32.7789 69.4504 32.5973C69.6503 32.3753 69.8164 32.0656 69.9502 31.6699L70.306 30.6117H70.0349L69.8214 31.2638C69.6495 31.7662 69.4826 32.1 69.3217 32.2643C69.1599 32.4278 69.0023 32.5104 68.8507 32.5104C68.7262 32.5104 68.6457 32.4717 68.6076 32.3942C68.5778 32.2957 68.568 32.1921 68.5788 32.0897C68.5983 31.9641 68.6262 31.8436 68.6652 31.7275L70.5067 25.2889C70.2203 25.3585 69.9292 25.4071 69.6359 25.4343C69.3403 25.4636 69.0218 25.4825 68.6787 25.4919L68.4721 26.2679C68.4632 26.071 68.4068 25.8792 68.3077 25.7096C68.2334 25.5776 68.125 25.4686 67.9943 25.3945C67.8635 25.3204 67.7154 25.2839 67.5657 25.2889C67.1464 25.2889 66.7271 25.4197 66.3086 25.6804C65.8902 25.9419 65.4955 26.2895 65.1236 26.7248C64.739 27.1693 64.4038 27.6554 64.124 28.1744C63.8433 28.6947 63.6183 29.2442 63.4532 29.8133C63.2974 30.3254 63.2158 30.8578 63.2109 31.3937C63.2109 31.9357 63.3346 32.3702 63.5819 32.6988C63.8293 33.018 64.2104 33.1771 64.7238 33.1771C65.0855 33.1771 65.4336 33.0713 65.7657 32.8588C66.1087 32.6455 66.4332 32.2927 66.7373 31.8006C66.9262 31.5038 67.1074 31.1485 67.2828 30.7338ZM66.052 32.2058C65.8334 32.4089 65.6378 32.5104 65.4667 32.5104C65.3235 32.5104 65.2142 32.4381 65.138 32.2927C65.0719 32.1379 65.038 31.8824 65.038 31.5245C65.038 31.0117 65.0956 30.4852 65.21 29.9441C65.3235 29.4021 65.476 28.8807 65.6666 28.3783C65.8665 27.875 66.085 27.4259 66.323 27.0293C66.5611 26.6336 66.7991 26.3187 67.0371 26.0864C67.2845 25.8541 67.5174 25.7389 67.7368 25.7389C67.9655 25.7389 68.1265 25.855 68.2222 26.0864C68.317 26.2963 68.3408 26.5777 68.2959 26.9295L67.874 28.5142L67.9223 28.2622C67.7698 28.8807 67.5894 29.4511 67.3802 29.9733C67.1701 30.4947 66.9516 30.9446 66.7229 31.3214C66.4941 31.6983 66.2705 31.9933 66.052 32.2058Z" fill="#27272A"/>
<path d="M59.3927 32.9741H57.6367L59.3495 26.7248C59.4351 26.4349 59.4638 26.2319 59.435 26.1157C59.4071 25.9996 59.3215 25.9419 59.1784 25.9419C58.998 25.9419 58.8311 26.034 58.6786 26.2172C58.5261 26.4005 58.3694 26.7248 58.2076 27.1894L57.9645 27.8699H57.6935L58.0645 26.7825C58.1983 26.3953 58.3644 26.0968 58.5643 25.8834C58.7642 25.6615 58.9836 25.5066 59.2216 25.4197C59.4588 25.3328 59.7019 25.289 59.9501 25.289C60.2542 25.289 60.4778 25.3518 60.6201 25.4782C60.7715 25.6016 60.8733 25.7769 60.9064 25.9712C60.9538 26.1742 60.9632 26.3962 60.9344 26.6379C60.9157 26.8702 60.8776 27.0973 60.82 27.3193L60.5913 28.2287L60.6142 28.1659L60.6489 28.0738C60.9157 27.3873 61.1724 26.841 61.4197 26.4349C61.6772 26.0194 61.9483 25.7243 62.2338 25.5505C62.5135 25.3778 62.8348 25.2873 63.1622 25.289C63.5044 25.289 63.7661 25.3905 63.9474 25.5935C64.1371 25.7965 64.2329 26.0478 64.2329 26.348C64.2329 26.5889 64.1753 26.8169 64.0609 27.0294C63.9501 27.2287 63.7935 27.3979 63.6043 27.5223C63.4156 27.6405 63.1974 27.7008 62.9758 27.6961C62.7386 27.6961 62.548 27.6333 62.4049 27.5077C62.2719 27.3821 62.205 27.198 62.205 26.9571C62.205 26.7438 62.2524 26.551 62.3481 26.3764C62.443 26.2026 62.5667 26.0581 62.7191 25.9419C62.8716 25.8163 63.0376 25.7294 63.2189 25.6804C63.1988 25.6606 63.1745 25.6459 63.1478 25.6374C63.1288 25.6309 63.1092 25.6265 63.0893 25.6245C63.0752 25.6231 63.0611 25.6226 63.047 25.6228C62.8386 25.6228 62.6234 25.7002 62.4049 25.855C62.1863 25.9996 61.9576 26.237 61.7196 26.5657C61.4824 26.8943 61.2393 27.3288 60.9911 27.8699C60.712 28.5097 60.4644 29.1632 60.2491 29.828C60.1415 30.1489 60.0331 30.4956 59.9247 30.8664L59.3927 32.9741Z" fill="#27272A"/>
<path fill-rule="evenodd" clip-rule="evenodd" d="M56.7214 23.2448C56.2454 22.8964 55.4839 22.7226 54.4369 22.7226C54.1133 22.7226 53.7897 22.7278 53.4653 22.7373C53.1519 22.7467 52.7902 22.7519 52.381 22.7519H51.667C51.4095 22.7416 51.1672 22.7373 50.9385 22.7373C50.7481 22.7287 50.5578 22.719 50.3676 22.708L50.2964 22.9979C50.6674 22.9979 50.9199 23.0461 51.0528 23.1433C51.196 23.2294 51.2621 23.3653 51.2527 23.5494C51.2335 23.7842 51.1953 24.017 51.1384 24.2454L49.2537 31.4376C49.169 31.7852 49.0732 32.0467 48.9682 32.2205C48.8733 32.3867 48.7208 32.511 48.5404 32.5689C48.3592 32.6266 48.1067 32.6653 47.7831 32.6842L47.7264 32.9741C47.8873 32.9655 48.083 32.9604 48.3109 32.9604C48.5396 32.95 48.7827 32.9457 49.0394 32.9457C49.7579 32.9235 50.477 32.9284 51.1951 32.9604C51.5856 32.969 51.9431 32.975 52.2667 32.975C52.8851 32.975 53.4704 32.9113 54.0227 32.7857C54.5317 32.6684 55.0186 32.468 55.4644 32.1921C55.8632 31.9508 56.2006 31.6179 56.4495 31.22C56.6969 30.8328 56.8205 30.3794 56.8205 29.8572C56.8205 29.267 56.5834 28.7595 56.1073 28.3345C55.6414 27.9086 54.9028 27.6574 53.8939 27.58C54.5234 27.4882 55.1349 27.2975 55.7066 27.0147C56.2403 26.7343 56.6588 26.391 56.9637 25.9849C57.2706 25.5994 57.437 25.118 57.4347 24.6222C57.4347 24.0424 57.1983 23.5829 56.7214 23.2448ZM52.1642 27.7692L51.2095 31.4376C51.1528 31.6785 51.1147 31.8919 51.096 32.0751C51.0859 32.2592 51.1333 32.3994 51.2383 32.4967C51.3434 32.593 51.5382 32.6412 51.8237 32.6412C52.4996 32.6412 53.0519 32.5104 53.4797 32.2497C53.8988 31.9994 54.2328 31.6251 54.4369 31.1769C54.6461 30.7124 54.7503 30.1902 54.7503 29.6112C54.7503 29.2524 54.6885 28.9384 54.5648 28.6683C54.4559 28.3938 54.2601 28.1641 54.0083 28.0153C53.7516 27.851 53.4085 27.7692 52.9799 27.7692H52.1642ZM52.2286 27.5223H52.8808C53.4229 27.5223 53.8846 27.3821 54.2649 27.1016C54.6554 26.8117 54.9511 26.4349 55.151 25.9712C55.3591 25.5118 55.4661 25.0118 55.4644 24.5061C55.4644 24.0226 55.3695 23.6509 55.1789 23.3894C54.9985 23.1287 54.6791 22.9979 54.2217 22.9979C53.8897 22.9979 53.6516 23.0659 53.5085 23.201C53.3662 23.3266 53.2425 23.6019 53.1375 24.0269L52.2286 27.5223Z" fill="#27272A"/>
</g>
<defs>
<clipPath id="clip0_3_69">
<rect width="147.39" height="33.5522" fill="white"/>
</clipPath>
</defs>
</svg>
