<svg width="608" height="283" viewBox="0 0 608 283" fill="none" xmlns="http://www.w3.org/2000/svg">
<mask id="mask0_9_78" style="mask-type:alpha" maskUnits="userSpaceOnUse" x="0" y="0" width="608" height="283">
<rect width="608" height="283" fill="white"/>
</mask>
<g mask="url(#mask0_9_78)">
<g opacity="0.5">
<rect x="483.209" y="80.5" width="71.7521" height="59.9538" rx="7.5" fill="white" stroke="#E6E6EB"/>
<rect x="35.5" y="80.5" width="71.7521" height="59.9538" rx="7.5" fill="white" stroke="#E6E6EB"/>
<rect x="5.69653" y="153.185" width="55" height="55" rx="7.5" fill="white" stroke="#E6E6EB"/>
<rect x="73.6965" y="153.185" width="123" height="55" rx="7.5" fill="white" stroke="#E6E6EB"/>
<rect x="209.697" y="153.185" width="55" height="55" rx="7.5" fill="white" stroke="#E6E6EB"/>
<rect x="277.697" y="153.185" width="55" height="55" rx="7.5" fill="white" stroke="#E6E6EB"/>
<rect x="345.697" y="153.185" width="55" height="55" rx="7.5" fill="white" stroke="#E6E6EB"/>
<rect x="413.697" y="153.185" width="55" height="55" rx="7.5" fill="white" stroke="#E6E6EB"/>
<rect x="481.697" y="153.185" width="55" height="55" rx="7.5" fill="white" stroke="#E6E6EB"/>
<rect x="549.697" y="153.185" width="55" height="55" rx="7.5" fill="white" stroke="#E6E6EB"/>
<rect x="0.5" y="225.023" width="55" height="55" rx="7.5" fill="white" stroke="#E6E6EB"/>
<rect x="68.5" y="225.023" width="55" height="55" rx="7.5" fill="white" stroke="#E6E6EB"/>
<rect x="136.5" y="225.023" width="55" height="55" rx="7.5" fill="white" stroke="#E6E6EB"/>
<rect x="204.5" y="225.023" width="55" height="55" rx="7.5" fill="white" stroke="#E6E6EB"/>
<rect x="272.5" y="225.023" width="111" height="55" rx="7.5" fill="white" stroke="#E6E6EB"/>
<rect x="396.5" y="225.023" width="55" height="55" rx="7.5" fill="white" stroke="#E6E6EB"/>
<rect x="464.5" y="225.023" width="55" height="55" rx="7.5" fill="white" stroke="#E6E6EB"/>
<rect x="532.5" y="225.023" width="55" height="55" rx="7.5" fill="white" stroke="#E6E6EB"/>
<rect x="0.5" y="13.8618" width="55" height="55" rx="7.5" fill="white" stroke="#E6E6EB"/>
<rect x="68.5" y="13.8618" width="55" height="55" rx="7.5" fill="white" stroke="#E6E6EB"/>
<rect x="136.5" y="13.8618" width="55" height="55" rx="7.5" fill="white" stroke="#E6E6EB"/>
<rect x="204.5" y="13.8618" width="55" height="55" rx="7.5" fill="white" stroke="#E6E6EB"/>
<rect x="272.5" y="13.8618" width="111" height="55" rx="7.5" fill="white" stroke="#E6E6EB"/>
<rect x="396.5" y="13.8618" width="55" height="55" rx="7.5" fill="white" stroke="#E6E6EB"/>
<rect x="464.5" y="13.8618" width="55" height="55" rx="7.5" fill="white" stroke="#E6E6EB"/>
<rect x="532.5" y="13.8618" width="55" height="55" rx="7.5" fill="white" stroke="#E6E6EB"/>
<rect width="608" height="283" fill="url(#paint0_linear_9_78)"/>
</g>
</g>
<g filter="url(#filter0_d_9_78)">
<rect x="240" y="34.9961" width="111" height="33" rx="16" fill="white" shape-rendering="crispEdges"/>
<rect x="240.5" y="35.4961" width="110" height="32" rx="15.5" stroke="#E6E6EB" shape-rendering="crispEdges"/>
<path d="M257.233 56.9961V46.8143H260.673C261.472 46.8143 262.125 46.9585 262.632 47.2468C263.143 47.5318 263.52 47.918 263.766 48.4052C264.011 48.8924 264.134 49.436 264.134 50.0359C264.134 50.6358 264.011 51.181 263.766 51.6715C263.524 52.162 263.149 52.5531 262.642 52.8448C262.135 53.1332 261.485 53.2773 260.693 53.2773H258.227V52.1836H260.653C261.2 52.1836 261.639 52.0891 261.971 51.9002C262.302 51.7113 262.543 51.4561 262.692 51.1346C262.844 50.8098 262.92 50.4435 262.92 50.0359C262.92 49.6282 262.844 49.2636 262.692 48.9421C262.543 48.6206 262.301 48.3687 261.966 48.1864C261.631 48.0008 261.187 47.908 260.634 47.908H258.466V56.9961H257.233ZM268.981 57.1552C268.291 57.1552 267.687 56.9911 267.166 56.663C266.649 56.3349 266.245 55.8758 265.953 55.2859C265.665 54.6959 265.521 54.0065 265.521 53.2177C265.521 52.4222 265.665 51.7279 265.953 51.1346C266.245 50.5413 266.649 50.0806 267.166 49.7525C267.687 49.4244 268.291 49.2603 268.981 49.2603C269.67 49.2603 270.273 49.4244 270.79 49.7525C271.311 50.0806 271.715 50.5413 272.004 51.1346C272.295 51.7279 272.441 52.4222 272.441 53.2177C272.441 54.0065 272.295 54.6959 272.004 55.2859C271.715 55.8758 271.311 56.3349 270.79 56.663C270.273 56.9911 269.67 57.1552 268.981 57.1552ZM268.981 56.1012C269.504 56.1012 269.935 55.967 270.273 55.6985C270.612 55.43 270.862 55.0771 271.024 54.6396C271.187 54.2021 271.268 53.7281 271.268 53.2177C271.268 52.7073 271.187 52.2317 271.024 51.7908C270.862 51.35 270.612 50.9937 270.273 50.7219C269.935 50.4502 269.504 50.3143 268.981 50.3143C268.457 50.3143 268.026 50.4502 267.688 50.7219C267.35 50.9937 267.1 51.35 266.938 51.7908C266.775 52.2317 266.694 52.7073 266.694 53.2177C266.694 53.7281 266.775 54.2021 266.938 54.6396C267.1 55.0771 267.35 55.43 267.688 55.6985C268.026 55.967 268.457 56.1012 268.981 56.1012ZM275.702 56.9961L273.376 49.3597H274.609L276.259 55.2063H276.339L277.969 49.3597H279.222L280.833 55.1864H280.913L282.563 49.3597H283.796L281.469 56.9961H280.316L278.646 51.1296H278.526L276.856 56.9961H275.702ZM288.289 57.1552C287.553 57.1552 286.919 56.9928 286.385 56.668C285.855 56.3398 285.445 55.8825 285.157 55.2958C284.872 54.7058 284.73 54.0198 284.73 53.2376C284.73 52.4554 284.872 51.766 285.157 51.1694C285.445 50.5695 285.847 50.1022 286.36 49.7674C286.877 49.4293 287.481 49.2603 288.17 49.2603C288.568 49.2603 288.96 49.3266 289.348 49.4592C289.736 49.5917 290.089 49.8072 290.407 50.1055C290.725 50.4004 290.979 50.7915 291.168 51.2788C291.357 51.766 291.451 52.3659 291.451 53.0785V53.5756H285.565V52.5614H290.258C290.258 52.1306 290.172 51.7461 289.999 51.408C289.83 51.07 289.588 50.8031 289.274 50.6076C288.962 50.412 288.594 50.3143 288.17 50.3143C287.703 50.3143 287.298 50.4303 286.957 50.6623C286.619 50.891 286.359 51.1893 286.176 51.5572C285.994 51.9251 285.903 52.3195 285.903 52.7404V53.4165C285.903 53.9933 286.002 54.4821 286.201 54.8832C286.403 55.2809 286.683 55.5842 287.041 55.793C287.399 55.9985 287.815 56.1012 288.289 56.1012C288.597 56.1012 288.876 56.0581 289.124 55.9719C289.376 55.8825 289.593 55.7499 289.776 55.5742C289.958 55.3952 290.099 55.1732 290.198 54.908L291.332 55.2262C291.213 55.6107 291.012 55.9487 290.73 56.2404C290.449 56.5288 290.101 56.7541 289.686 56.9165C289.272 57.0756 288.806 57.1552 288.289 57.1552ZM293.236 56.9961V49.3597H294.369V50.5131H294.449C294.588 50.1353 294.84 49.8287 295.205 49.5934C295.569 49.3581 295.98 49.2404 296.438 49.2404C296.524 49.2404 296.632 49.2421 296.761 49.2454C296.89 49.2487 296.988 49.2537 297.054 49.2603V50.4535C297.014 50.4435 296.923 50.4286 296.781 50.4087C296.642 50.3855 296.494 50.3739 296.338 50.3739C295.967 50.3739 295.636 50.4518 295.344 50.6076C295.056 50.7601 294.827 50.9722 294.658 51.244C294.492 51.5124 294.409 51.819 294.409 52.1637V56.9961H293.236ZM301.414 57.1552C300.678 57.1552 300.044 56.9928 299.51 56.668C298.98 56.3398 298.57 55.8825 298.282 55.2958C297.997 54.7058 297.855 54.0198 297.855 53.2376C297.855 52.4554 297.997 51.766 298.282 51.1694C298.57 50.5695 298.972 50.1022 299.485 49.7674C300.002 49.4293 300.606 49.2603 301.295 49.2603C301.693 49.2603 302.085 49.3266 302.473 49.4592C302.861 49.5917 303.214 49.8072 303.532 50.1055C303.85 50.4004 304.104 50.7915 304.293 51.2788C304.482 51.766 304.576 52.3659 304.576 53.0785V53.5756H298.69V52.5614H303.383C303.383 52.1306 303.297 51.7461 303.124 51.408C302.955 51.07 302.713 50.8031 302.399 50.6076C302.087 50.412 301.719 50.3143 301.295 50.3143C300.828 50.3143 300.423 50.4303 300.082 50.6623C299.744 50.891 299.484 51.1893 299.301 51.5572C299.119 51.9251 299.028 52.3195 299.028 52.7404V53.4165C299.028 53.9933 299.127 54.4821 299.326 54.8832C299.528 55.2809 299.808 55.5842 300.166 55.793C300.524 55.9985 300.94 56.1012 301.414 56.1012C301.722 56.1012 302.001 56.0581 302.249 55.9719C302.501 55.8825 302.718 55.7499 302.901 55.5742C303.083 55.3952 303.224 55.1732 303.323 54.908L304.457 55.2262C304.338 55.6107 304.137 55.9487 303.855 56.2404C303.574 56.5288 303.226 56.7541 302.811 56.9165C302.397 57.0756 301.931 57.1552 301.414 57.1552ZM309.244 57.1552C308.608 57.1552 308.046 56.9944 307.559 56.6729C307.072 56.3481 306.691 55.8907 306.416 55.3008C306.141 54.7075 306.003 54.0065 306.003 53.1978C306.003 52.3957 306.141 51.6997 306.416 51.1097C306.691 50.5198 307.074 50.064 307.564 49.7425C308.055 49.421 308.621 49.2603 309.264 49.2603C309.762 49.2603 310.154 49.3432 310.443 49.5089C310.734 49.6713 310.956 49.8569 311.109 50.0657C311.265 50.2712 311.386 50.4402 311.472 50.5728H311.571V46.8143H312.744V56.9961H311.611V55.8228H311.472C311.386 55.962 311.263 56.1377 311.104 56.3498C310.945 56.5586 310.718 56.7459 310.423 56.9116C310.128 57.074 309.735 57.1552 309.244 57.1552ZM309.404 56.1012C309.874 56.1012 310.272 55.9786 310.597 55.7333C310.922 55.4847 311.169 55.1417 311.338 54.7042C311.507 54.2634 311.591 53.7546 311.591 53.1779C311.591 52.6078 311.508 52.109 311.343 51.6815C311.177 51.2506 310.932 50.9158 310.607 50.6772C310.282 50.4353 309.881 50.3143 309.404 50.3143C308.906 50.3143 308.492 50.4419 308.161 50.6971C307.833 50.949 307.586 51.292 307.42 51.7262C307.258 52.1571 307.176 52.641 307.176 53.1779C307.176 53.7215 307.259 54.2153 307.425 54.6594C307.594 55.1003 307.843 55.4516 308.171 55.7134C308.502 55.9719 308.913 56.1012 309.404 56.1012ZM319.153 56.9961V46.8143H322.713C323.422 46.8143 324.007 46.9369 324.468 47.1822C324.928 47.4241 325.271 47.7506 325.497 48.1616C325.722 48.5692 325.835 49.0217 325.835 49.5188C325.835 49.9563 325.757 50.3176 325.601 50.6026C325.449 50.8877 325.246 51.113 324.994 51.2788C324.746 51.4445 324.476 51.5671 324.184 51.6467V51.7461C324.496 51.766 324.809 51.8754 325.124 52.0742C325.439 52.2731 325.702 52.5581 325.914 52.9293C326.126 53.3005 326.232 53.7546 326.232 54.2915C326.232 54.802 326.116 55.261 325.884 55.6687C325.652 56.0763 325.286 56.3995 324.786 56.6381C324.285 56.8768 323.634 56.9961 322.832 56.9961H319.153ZM320.386 55.9023H322.832C323.637 55.9023 324.209 55.7466 324.547 55.435C324.888 55.1201 325.059 54.739 325.059 54.2915C325.059 53.9469 324.971 53.6287 324.796 53.337C324.62 53.042 324.37 52.8067 324.045 52.631C323.72 52.4521 323.336 52.3626 322.892 52.3626H320.386V55.9023ZM320.386 51.2887H322.673C323.044 51.2887 323.379 51.2158 323.677 51.07C323.979 50.9241 324.217 50.7186 324.393 50.4535C324.572 50.1883 324.661 49.8768 324.661 49.5188C324.661 49.0714 324.506 48.6919 324.194 48.3803C323.883 48.0655 323.389 47.908 322.713 47.908H320.386V51.2887ZM328.855 59.8597C328.656 59.8597 328.479 59.8432 328.323 59.81C328.167 59.7802 328.059 59.7504 328 59.7205L328.298 58.6864C328.583 58.7594 328.835 58.7859 329.054 58.766C329.273 58.7461 329.466 58.6483 329.635 58.4727C329.808 58.3003 329.965 58.0202 330.108 57.6325L330.327 57.0359L327.503 49.3597H328.775L330.883 55.445H330.963L333.071 49.3597H334.344L331.102 58.1097C330.956 58.5041 330.776 58.8306 330.56 59.0891C330.345 59.351 330.095 59.5449 329.809 59.6708C329.528 59.7968 329.21 59.8597 328.855 59.8597Z" fill="#525252"/>
</g>
<g filter="url(#filter1_dd_9_78)">
<rect x="125" y="80" width="340" height="127" rx="15.1955" fill="white"/>
</g>
<rect x="125.95" y="80.9497" width="338.101" height="125.101" rx="14.2458" fill="white" stroke="#FAFAFA" stroke-width="1.89944"/>
<g clip-path="url(#clip0_9_78)">
<mask id="mask1_9_78" style="mask-type:alpha" maskUnits="userSpaceOnUse" x="162" y="123" width="45" height="45">
<path d="M184.723 123.718C185.183 123.718 185.584 124.033 185.697 124.479C186.04 125.845 186.492 127.181 187.049 128.474C188.505 131.856 190.502 134.816 193.038 137.352C195.576 139.889 198.535 141.886 201.917 143.342C203.21 143.899 204.546 144.351 205.912 144.694C206.358 144.807 206.672 145.207 206.672 145.667C206.672 146.127 206.358 146.528 205.911 146.64C204.546 146.984 203.21 147.436 201.917 147.993C198.534 149.448 195.575 151.446 193.038 153.982C190.502 156.519 188.505 159.479 187.049 162.86C186.492 164.154 186.04 165.49 185.696 166.856C185.642 167.072 185.516 167.265 185.34 167.403C185.164 167.541 184.947 167.616 184.723 167.616C184.263 167.616 183.863 167.302 183.751 166.855C183.407 165.489 182.955 164.154 182.398 162.86C180.943 159.478 178.946 156.519 176.408 153.982C173.872 151.446 170.912 149.448 167.53 147.993C166.237 147.436 164.901 146.983 163.535 146.64C163.319 146.586 163.126 146.461 162.988 146.284C162.85 146.108 162.775 145.891 162.774 145.668C162.774 145.208 163.089 144.807 163.535 144.695C164.901 144.352 166.237 143.899 167.53 143.342C170.912 141.887 173.872 139.89 176.408 137.353C178.945 134.817 180.943 131.857 182.398 128.474C182.955 127.181 183.407 125.845 183.751 124.48C183.805 124.263 183.93 124.07 184.106 123.932C184.282 123.794 184.499 123.719 184.723 123.718Z" fill="black"/>
<path d="M184.723 123.718C185.183 123.718 185.584 124.033 185.697 124.479C186.04 125.845 186.492 127.181 187.049 128.474C188.505 131.856 190.502 134.816 193.038 137.352C195.576 139.889 198.535 141.886 201.917 143.342C203.21 143.899 204.546 144.351 205.912 144.694C206.358 144.807 206.672 145.207 206.672 145.667C206.672 146.127 206.358 146.528 205.911 146.64C204.546 146.984 203.21 147.436 201.917 147.993C198.534 149.448 195.575 151.446 193.038 153.982C190.502 156.519 188.505 159.479 187.049 162.86C186.492 164.154 186.04 165.49 185.696 166.856C185.642 167.072 185.516 167.265 185.34 167.403C185.164 167.541 184.947 167.616 184.723 167.616C184.263 167.616 183.863 167.302 183.751 166.855C183.407 165.489 182.955 164.154 182.398 162.86C180.943 159.478 178.946 156.519 176.408 153.982C173.872 151.446 170.912 149.448 167.53 147.993C166.237 147.436 164.901 146.983 163.535 146.64C163.319 146.586 163.126 146.461 162.988 146.284C162.85 146.108 162.775 145.891 162.774 145.668C162.774 145.208 163.089 144.807 163.535 144.695C164.901 144.352 166.237 143.899 167.53 143.342C170.912 141.887 173.872 139.89 176.408 137.353C178.945 134.817 180.943 131.857 182.398 128.474C182.955 127.181 183.407 125.845 183.751 124.48C183.805 124.263 183.93 124.07 184.106 123.932C184.282 123.794 184.499 123.719 184.723 123.718Z" fill="url(#paint1_linear_9_78)"/>
</mask>
<g mask="url(#mask1_9_78)">
<g filter="url(#filter2_f_9_78)">
<path d="M158.811 158.038C163.883 159.839 169.713 156.462 171.832 150.494C173.951 144.527 171.557 138.229 166.485 136.428C161.413 134.627 155.584 138.004 153.464 143.971C151.345 149.939 153.739 156.236 158.811 158.038Z" fill="#FFE432"/>
</g>
<g filter="url(#filter3_f_9_78)">
<path d="M181.332 138.363C188.299 138.363 193.948 132.589 193.948 125.468C193.948 118.347 188.3 112.574 181.332 112.574C174.363 112.574 168.714 118.347 168.714 125.468C168.714 132.589 174.363 138.363 181.332 138.363Z" fill="#FC413D"/>
</g>
<g filter="url(#filter4_f_9_78)">
<path d="M176.428 179.598C183.702 179.243 189.225 171.316 188.764 161.893C188.304 152.47 182.034 145.119 174.76 145.475C167.486 145.831 161.963 153.757 162.423 163.18C162.884 172.603 169.154 179.954 176.428 179.598Z" fill="#00B95C"/>
</g>
<g filter="url(#filter5_f_9_78)">
<path d="M176.428 179.598C183.702 179.243 189.225 171.316 188.764 161.893C188.304 152.47 182.034 145.119 174.76 145.475C167.486 145.831 161.963 153.757 162.423 163.18C162.884 172.603 169.154 179.954 176.428 179.598Z" fill="#00B95C"/>
</g>
<g filter="url(#filter6_f_9_78)">
<path d="M183.713 173.898C189.811 170.188 191.443 161.738 187.359 155.025C183.274 148.311 175.02 145.877 168.921 149.587C162.823 153.298 161.191 161.747 165.275 168.461C169.361 175.174 177.615 177.609 183.713 173.898Z" fill="#00B95C"/>
</g>
<g filter="url(#filter7_f_9_78)">
<path d="M208.361 152.801C215.215 152.801 220.771 147.45 220.771 140.851C220.771 134.251 215.215 128.9 208.361 128.9C201.507 128.9 195.951 134.251 195.951 140.851C195.951 147.451 201.507 152.801 208.361 152.801Z" fill="#3186FF"/>
</g>
<g filter="url(#filter8_f_9_78)">
<path d="M153.937 151.415C160.248 156.213 169.467 154.708 174.529 148.051C179.591 141.395 178.579 132.108 172.268 127.309C165.956 122.51 156.738 124.015 151.675 130.672C146.613 137.328 147.626 146.616 153.937 151.415Z" fill="#FBBC04"/>
</g>
<g filter="url(#filter9_f_9_78)">
<path d="M186.274 158.508C193.807 163.687 203.792 162.245 208.576 155.286C213.36 148.327 211.132 138.488 203.599 133.309C196.066 128.129 186.082 129.572 181.297 136.53C176.513 143.49 178.741 153.329 186.274 158.508H186.274Z" fill="#3186FF"/>
</g>
<g filter="url(#filter10_f_9_78)">
<path d="M199.968 122.138C201.885 124.743 199.422 129.809 194.468 133.453C189.514 137.097 183.945 137.938 182.028 135.333C180.112 132.727 182.574 127.661 187.528 124.018C192.482 120.373 198.052 119.532 199.968 122.137L199.968 122.138Z" fill="#749BFF"/>
</g>
<g filter="url(#filter11_f_9_78)">
<path d="M184.236 134.612C191.898 127.505 194.527 117.883 190.11 113.121C185.693 108.359 175.9 110.258 168.239 117.365C160.577 124.472 157.947 134.094 162.365 138.856C166.782 143.618 176.575 141.719 184.236 134.612Z" fill="#FC413D"/>
</g>
<g filter="url(#filter12_f_9_78)">
<path d="M168.531 160.137C173.085 163.396 178.312 163.891 180.208 161.243C182.103 158.595 179.948 153.806 175.394 150.547C170.841 147.288 165.613 146.793 163.718 149.441C161.823 152.089 163.977 156.877 168.531 160.137Z" fill="#FFEE48"/>
</g>
</g>
</g>
<g clip-path="url(#clip1_9_78)">
<path fill-rule="evenodd" clip-rule="evenodd" d="M335.176 123.829C335.867 125.403 336.212 127.086 336.212 128.876C336.212 127.086 336.546 125.403 337.215 123.829C337.904 122.255 338.832 120.885 339.996 119.721C341.161 118.556 342.53 117.64 344.105 116.971C345.679 116.281 347.361 115.936 349.151 115.936C347.361 115.936 345.679 115.602 344.105 114.933C342.53 114.243 341.161 113.316 339.996 112.151C338.832 110.987 337.904 109.617 337.215 108.043C336.546 106.469 336.212 104.787 336.212 102.997C336.212 104.787 335.867 106.469 335.176 108.043C334.508 109.617 333.591 110.987 332.427 112.151C331.262 113.316 329.893 114.243 328.319 114.933C326.744 115.602 325.062 115.936 323.272 115.936C325.062 115.936 326.744 116.281 328.319 116.971C329.893 117.64 331.262 118.556 332.427 119.721C333.591 120.885 334.508 122.255 335.176 123.829ZM230.069 165.231C232.709 166.318 235.523 166.861 238.512 166.861C241.54 166.861 244.296 166.376 246.781 165.406C249.265 164.435 251.42 163.057 253.244 161.272C255.069 159.486 256.485 157.37 257.495 154.925C258.504 152.44 259.009 149.723 259.009 146.773V146.715C259.009 146.171 258.97 145.667 258.892 145.201C258.853 144.735 258.795 144.25 258.717 143.745H238.629V148.578H253.768C253.613 150.907 253.069 152.926 252.138 154.634C251.245 156.303 250.1 157.681 248.702 158.768C247.344 159.854 245.772 160.67 243.986 161.213C242.239 161.718 240.415 161.971 238.512 161.971C236.416 161.971 234.378 161.582 232.399 160.806C230.419 160.029 228.653 158.904 227.1 157.429C225.586 155.953 224.383 154.187 223.49 152.13C222.597 150.034 222.15 147.685 222.15 145.084C222.15 142.483 222.577 140.154 223.431 138.097C224.324 136.001 225.528 134.235 227.042 132.798C228.556 131.323 230.302 130.197 232.282 129.421C234.301 128.645 236.377 128.256 238.512 128.256C240.104 128.256 241.618 128.47 243.054 128.897C244.491 129.285 245.81 129.848 247.014 130.586C248.256 131.323 249.323 132.216 250.216 133.264L253.826 129.537C252.08 127.558 249.847 126.024 247.13 124.937C244.452 123.851 241.579 123.307 238.512 123.307C235.562 123.307 232.767 123.851 230.128 124.937C227.527 126.024 225.217 127.558 223.199 129.537C221.219 131.517 219.666 133.827 218.54 136.467C217.415 139.106 216.852 141.979 216.852 145.084C216.852 148.19 217.415 151.062 218.54 153.702C219.666 156.341 221.219 158.651 223.199 160.631C225.178 162.611 227.469 164.144 230.069 165.231ZM269.442 164.824C271.693 166.182 274.255 166.861 277.128 166.861C280.388 166.861 283.125 166.124 285.338 164.649C287.551 163.174 289.239 161.311 290.404 159.059L285.979 156.963C285.163 158.438 284.037 159.68 282.602 160.689C281.204 161.699 279.457 162.203 277.361 162.203C275.73 162.203 274.158 161.796 272.644 160.981C271.131 160.165 269.888 158.942 268.918 157.312C268.08 155.903 267.603 154.176 267.489 152.13H290.87C290.909 151.936 290.928 151.683 290.928 151.373C290.967 151.062 290.986 150.771 290.986 150.499C290.986 147.549 290.404 144.929 289.239 142.639C288.113 140.348 286.483 138.563 284.348 137.282C282.213 135.962 279.671 135.302 276.72 135.302C273.809 135.302 271.267 136.04 269.092 137.515C266.919 138.951 265.23 140.872 264.027 143.279C262.862 145.686 262.28 148.306 262.28 151.14C262.28 154.168 262.901 156.866 264.143 159.234C265.424 161.602 267.19 163.465 269.442 164.824ZM267.786 147.879C267.969 147.015 268.23 146.2 268.568 145.434C269.306 143.764 270.374 142.445 271.771 141.474C273.207 140.465 274.877 139.96 276.778 139.96C278.37 139.96 279.709 140.232 280.796 140.775C281.883 141.28 282.776 141.94 283.475 142.755C284.173 143.57 284.678 144.444 284.989 145.375C285.299 146.268 285.474 147.103 285.513 147.879H267.786ZM295.439 136.234V165.93H300.68V149.393C300.68 147.763 301.01 146.229 301.67 144.793C302.33 143.357 303.242 142.212 304.406 141.358C305.571 140.465 306.891 140.018 308.366 140.018C310.423 140.018 312.015 140.62 313.141 141.824C314.305 142.988 314.887 144.987 314.887 147.821V165.93H320.069V149.277C320.069 147.646 320.4 146.132 321.06 144.735C321.719 143.299 322.631 142.153 323.796 141.299C324.961 140.445 326.28 140.018 327.756 140.018C329.852 140.018 331.463 140.601 332.589 141.765C333.753 142.93 334.335 144.929 334.335 147.763V165.93H339.518V146.889C339.518 143.435 338.663 140.64 336.956 138.505C335.286 136.37 332.666 135.302 329.095 135.302C326.727 135.302 324.689 135.845 322.981 136.932C321.273 138.019 319.914 139.397 318.905 141.067C318.206 139.359 317.061 137.98 315.469 136.932C313.917 135.845 312.034 135.302 309.822 135.302C308.579 135.302 307.337 135.554 306.095 136.059C304.891 136.525 303.824 137.165 302.892 137.98C301.961 138.757 301.223 139.63 300.68 140.601H300.447V136.234H295.439ZM344.234 136.234V165.93H349.416V136.234H344.234ZM344.176 129.945C344.913 130.644 345.787 130.993 346.796 130.993C347.844 130.993 348.718 130.644 349.416 129.945C350.115 129.208 350.464 128.334 350.464 127.325C350.464 126.277 350.115 125.403 349.416 124.705C348.718 123.967 347.844 123.598 346.796 123.598C345.787 123.598 344.913 123.967 344.176 124.705C343.477 125.403 343.128 126.277 343.128 127.325C343.128 128.334 343.477 129.208 344.176 129.945ZM354.283 136.234V165.93H359.524V149.393C359.524 147.802 359.854 146.307 360.514 144.91C361.213 143.473 362.163 142.309 363.367 141.416C364.57 140.484 365.987 140.018 367.618 140.018C369.791 140.018 371.538 140.62 372.858 141.824C374.178 142.988 374.838 144.987 374.838 147.821V165.93H380.078V146.889C380.078 143.396 379.147 140.601 377.283 138.505C375.42 136.37 372.683 135.302 369.073 135.302C366.938 135.302 364.997 135.826 363.25 136.874C361.504 137.922 360.242 139.164 359.466 140.601H359.233V136.234H354.283ZM384.477 136.234V165.93H389.659V136.234H384.477ZM384.419 129.945C385.156 130.644 386.03 130.993 387.039 130.993C388.087 130.993 388.961 130.644 389.659 129.945C390.358 129.208 390.707 128.334 390.707 127.325C390.707 126.277 390.358 125.403 389.659 124.705C388.961 123.967 388.087 123.598 387.039 123.598C386.03 123.598 385.156 123.967 384.419 124.705C383.72 125.403 383.371 126.277 383.371 127.325C383.371 128.334 383.72 129.208 384.419 129.945Z" fill="url(#paint2_linear_9_78)"/>
</g>
<defs>
<filter id="filter0_d_9_78" x="236" y="32.9961" width="119" height="41" filterUnits="userSpaceOnUse" color-interpolation-filters="sRGB">
<feFlood flood-opacity="0" result="BackgroundImageFix"/>
<feColorMatrix in="SourceAlpha" type="matrix" values="0 0 0 0 0 0 0 0 0 0 0 0 0 0 0 0 0 0 127 0" result="hardAlpha"/>
<feOffset dy="2"/>
<feGaussianBlur stdDeviation="2"/>
<feComposite in2="hardAlpha" operator="out"/>
<feColorMatrix type="matrix" values="0 0 0 0 0.405029 0 0 0 0 0.405029 0 0 0 0 0.405029 0 0 0 0.08 0"/>
<feBlend mode="normal" in2="BackgroundImageFix" result="effect1_dropShadow_9_78"/>
<feBlend mode="normal" in="SourceGraphic" in2="effect1_dropShadow_9_78" result="shape"/>
</filter>
<filter id="filter1_dd_9_78" x="117.402" y="76.2011" width="355.196" height="142.196" filterUnits="userSpaceOnUse" color-interpolation-filters="sRGB">
<feFlood flood-opacity="0" result="BackgroundImageFix"/>
<feColorMatrix in="SourceAlpha" type="matrix" values="0 0 0 0 0 0 0 0 0 0 0 0 0 0 0 0 0 0 127 0" result="hardAlpha"/>
<feMorphology radius="1.89944" operator="dilate" in="SourceAlpha" result="effect1_dropShadow_9_78"/>
<feOffset/>
<feComposite in2="hardAlpha" operator="out"/>
<feColorMatrix type="matrix" values="0 0 0 0 0.403922 0 0 0 0 0.403922 0 0 0 0 0.403922 0 0 0 0.08 0"/>
<feBlend mode="normal" in2="BackgroundImageFix" result="effect1_dropShadow_9_78"/>
<feColorMatrix in="SourceAlpha" type="matrix" values="0 0 0 0 0 0 0 0 0 0 0 0 0 0 0 0 0 0 127 0" result="hardAlpha"/>
<feOffset dy="3.79888"/>
<feGaussianBlur stdDeviation="3.79888"/>
<feComposite in2="hardAlpha" operator="out"/>
<feColorMatrix type="matrix" values="0 0 0 0 0.405029 0 0 0 0 0.405029 0 0 0 0 0.405029 0 0 0 0.08 0"/>
<feBlend mode="normal" in2="effect1_dropShadow_9_78" result="effect2_dropShadow_9_78"/>
<feBlend mode="normal" in="SourceGraphic" in2="effect2_dropShadow_9_78" result="shape"/>
</filter>
<filter id="filter2_f_9_78" x="149.364" y="132.615" width="26.5683" height="29.2354" filterUnits="userSpaceOnUse" color-interpolation-filters="sRGB">
<feFlood flood-opacity="0" result="BackgroundImageFix"/>
<feBlend mode="normal" in="SourceGraphic" in2="BackgroundImageFix" result="shape"/>
<feGaussianBlur stdDeviation="1.66407" result="effect1_foregroundBlur_9_78"/>
</filter>
<filter id="filter3_f_9_78" x="152.626" y="96.4864" width="57.409" height="57.9638" filterUnits="userSpaceOnUse" color-interpolation-filters="sRGB">
<feFlood flood-opacity="0" result="BackgroundImageFix"/>
<feBlend mode="normal" in="SourceGraphic" in2="BackgroundImageFix" result="shape"/>
<feGaussianBlur stdDeviation="8.04368" result="effect1_foregroundBlur_9_78"/>
</filter>
<filter id="filter4_f_9_78" x="148.72" y="131.786" width="53.7477" height="61.5014" filterUnits="userSpaceOnUse" color-interpolation-filters="sRGB">
<feFlood flood-opacity="0" result="BackgroundImageFix"/>
<feBlend mode="normal" in="SourceGraphic" in2="BackgroundImageFix" result="shape"/>
<feGaussianBlur stdDeviation="6.83824" result="effect1_foregroundBlur_9_78"/>
</filter>
<filter id="filter5_f_9_78" x="148.72" y="131.786" width="53.7477" height="61.5014" filterUnits="userSpaceOnUse" color-interpolation-filters="sRGB">
<feFlood flood-opacity="0" result="BackgroundImageFix"/>
<feBlend mode="normal" in="SourceGraphic" in2="BackgroundImageFix" result="shape"/>
<feGaussianBlur stdDeviation="6.83824" result="effect1_foregroundBlur_9_78"/>
</filter>
<filter id="filter6_f_9_78" x="149.349" y="134.175" width="53.935" height="55.1352" filterUnits="userSpaceOnUse" color-interpolation-filters="sRGB">
<feFlood flood-opacity="0" result="BackgroundImageFix"/>
<feBlend mode="normal" in="SourceGraphic" in2="BackgroundImageFix" result="shape"/>
<feGaussianBlur stdDeviation="6.83824" result="effect1_foregroundBlur_9_78"/>
</filter>
<filter id="filter7_f_9_78" x="182.955" y="115.904" width="50.8123" height="49.8928" filterUnits="userSpaceOnUse" color-interpolation-filters="sRGB">
<feFlood flood-opacity="0" result="BackgroundImageFix"/>
<feBlend mode="normal" in="SourceGraphic" in2="BackgroundImageFix" result="shape"/>
<feGaussianBlur stdDeviation="6.49799" result="effect1_foregroundBlur_9_78"/>
</filter>
<filter id="filter8_f_9_78" x="136.675" y="112.724" width="52.855" height="53.2765" filterUnits="userSpaceOnUse" color-interpolation-filters="sRGB">
<feFlood flood-opacity="0" result="BackgroundImageFix"/>
<feBlend mode="normal" in="SourceGraphic" in2="BackgroundImageFix" result="shape"/>
<feGaussianBlur stdDeviation="5.88918" result="effect1_foregroundBlur_9_78"/>
</filter>
<filter id="filter9_f_9_78" x="168.258" y="119.682" width="53.3572" height="52.4527" filterUnits="userSpaceOnUse" color-interpolation-filters="sRGB">
<feFlood flood-opacity="0" result="BackgroundImageFix"/>
<feBlend mode="normal" in="SourceGraphic" in2="BackgroundImageFix" result="shape"/>
<feGaussianBlur stdDeviation="5.25941" result="effect1_foregroundBlur_9_78"/>
</filter>
<filter id="filter10_f_9_78" x="171.966" y="111.211" width="38.0651" height="35.0474" filterUnits="userSpaceOnUse" color-interpolation-filters="sRGB">
<feFlood flood-opacity="0" result="BackgroundImageFix"/>
<feBlend mode="normal" in="SourceGraphic" in2="BackgroundImageFix" result="shape"/>
<feGaussianBlur stdDeviation="4.70607" result="effect1_foregroundBlur_9_78"/>
</filter>
<filter id="filter11_f_9_78" x="152.272" y="102.547" width="47.9309" height="46.8822" filterUnits="userSpaceOnUse" color-interpolation-filters="sRGB">
<feFlood flood-opacity="0" result="BackgroundImageFix"/>
<feBlend mode="normal" in="SourceGraphic" in2="BackgroundImageFix" result="shape"/>
<feGaussianBlur stdDeviation="3.97483" result="effect1_foregroundBlur_9_78"/>
</filter>
<filter id="filter12_f_9_78" x="153.19" y="137.899" width="37.5453" height="34.8868" filterUnits="userSpaceOnUse" color-interpolation-filters="sRGB">
<feFlood flood-opacity="0" result="BackgroundImageFix"/>
<feBlend mode="normal" in="SourceGraphic" in2="BackgroundImageFix" result="shape"/>
<feGaussianBlur stdDeviation="4.91983" result="effect1_foregroundBlur_9_78"/>
</filter>
<linearGradient id="paint0_linear_9_78" x1="624.844" y1="175.349" x2="-53.7414" y2="175.349" gradientUnits="userSpaceOnUse">
<stop stop-color="white"/>
<stop offset="0.505" stop-color="white" stop-opacity="0"/>
<stop offset="1" stop-color="white"/>
</linearGradient>
<linearGradient id="paint1_linear_9_78" x1="175.253" y1="153.09" x2="198.053" y2="133.868" gradientUnits="userSpaceOnUse">
<stop stop-color="#4893FC"/>
<stop offset="0.27" stop-color="#4893FC"/>
<stop offset="0.777" stop-color="#969DFF"/>
<stop offset="1" stop-color="#BD99FE"/>
</linearGradient>
<linearGradient id="paint2_linear_9_78" x1="237.922" y1="157.595" x2="353.053" y2="53.8376" gradientUnits="userSpaceOnUse">
<stop stop-color="#439DDF"/>
<stop offset="0.524208" stop-color="#4F87ED"/>
<stop offset="0.781452" stop-color="#9476C5"/>
<stop offset="0.888252" stop-color="#BC688E"/>
<stop offset="1" stop-color="#D6645D"/>
</linearGradient>
<clipPath id="clip0_9_78">
<rect width="43.9693" height="43.9693" fill="white" transform="translate(162.774 123.212)"/>
</clipPath>
<clipPath id="clip1_9_78">
<rect width="173.856" height="64.1851" fill="white" transform="translate(216.852 102.997)"/>
</clipPath>
</defs>
</svg>
