<svg width="608" height="340" viewBox="0 0 608 340" fill="none" xmlns="http://www.w3.org/2000/svg">
<g filter="url(#filter0_d_67_1989)">
<path d="M54.8809 85.4278C54.4465 77.1389 60.8139 70.0673 69.1028 69.6329L260.46 59.6043C268.749 59.1699 275.821 65.5372 276.255 73.8261L289.758 331.471C290.192 339.76 283.825 346.831 275.536 347.266L84.1785 357.294C75.8896 357.729 68.8179 351.361 68.3835 343.073L54.8809 85.4278Z" fill="white"/>
<path d="M75.3963 102.134L74.8339 91.4033L79.5465 91.1563C80.7672 91.0924 81.7203 91.3785 82.4058 92.0148C83.0808 92.6416 83.4437 93.4403 83.4946 94.4108C83.5481 95.4314 83.2709 96.2687 82.663 96.9226C82.0552 97.5765 81.1959 97.9325 80.0853 97.9907L77.4438 98.1292L77.6476 102.016L75.3963 102.134ZM77.1843 93.1764L77.351 96.3582L79.6023 96.2402C80.1626 96.2108 80.5855 96.0482 80.871 95.7523C81.1559 95.4464 81.2853 95.0433 81.2591 94.543C81.2329 94.0428 81.0626 93.6654 80.7483 93.411C80.4334 93.1466 80.0059 93.0285 79.4655 93.0568L77.1843 93.1764ZM84.6523 101.649L84.0899 90.9182L88.2772 90.6988C89.698 90.6243 90.8657 91.0798 91.7802 92.0653C92.6941 93.0408 93.1931 94.329 93.277 95.9299C93.374 97.7809 92.8773 99.2166 91.787 100.237C90.9927 100.971 89.9502 101.372 88.6595 101.439L84.6523 101.649ZM86.7302 99.6591L88.4111 99.571C89.4017 99.5191 90.1071 99.1962 90.5275 98.6023C90.9473 97.9984 91.1284 97.1461 91.0707 96.0455C91.013 94.9449 90.727 94.082 90.2127 93.4568C89.7078 92.821 89.0051 92.5268 88.1046 92.574L86.3636 92.6652L86.7302 99.6591ZM94.4359 101.137L93.8735 90.4055L101.558 90.0028L101.655 91.8488L96.1465 92.1375L96.2818 94.7189L100.949 94.4743L101.047 96.3353L96.3793 96.58L96.6121 101.022L94.4359 101.137ZM105.268 100.569L104.705 89.8378L109.508 89.5861C110.659 89.5258 111.538 89.7406 112.145 90.2305C112.742 90.7109 113.063 91.3663 113.106 92.1968C113.161 93.2474 112.639 93.9921 111.538 94.4311L111.54 94.4761C112.15 94.6247 112.647 94.9247 113.032 95.3761C113.427 95.827 113.641 96.3776 113.676 97.028C113.725 97.9785 113.449 98.7404 112.847 99.3138C112.227 99.9182 111.341 100.251 110.191 100.311L105.268 100.569ZM107.192 95.6521L107.35 98.6538L109.856 98.5224C110.376 98.4951 110.78 98.3436 111.066 98.0677C111.352 97.7818 111.484 97.4188 111.461 96.9785C111.435 96.4882 111.25 96.1167 110.906 95.8638C110.571 95.6104 110.149 95.4971 109.639 95.5239L107.192 95.6521ZM107.108 94.0462L109.464 93.9227C109.945 93.8975 110.324 93.7673 110.603 93.5319C110.881 93.2866 111.009 92.9588 110.988 92.5486C110.967 92.1484 110.81 91.8455 110.519 91.6401C110.237 91.4341 109.856 91.3437 109.376 91.3689L106.974 91.4948L107.108 94.0462ZM119.499 99.823C119.393 99.6981 119.298 99.4172 119.215 98.9801L119.185 98.9817C118.982 99.3234 118.715 99.5932 118.384 99.7911C118.053 99.9891 117.583 100.104 116.973 100.136C116.162 100.178 115.501 100.007 114.989 99.6229C114.477 99.2384 114.202 98.6709 114.163 97.9205C114.122 97.14 114.362 96.5556 114.883 96.167C115.404 95.7685 116.151 95.4735 117.124 95.2821C117.84 95.1442 118.325 95.0185 118.58 94.9048C118.834 94.7811 118.954 94.5842 118.94 94.314C118.925 94.0339 118.804 93.8195 118.575 93.671C118.346 93.5124 118.021 93.4441 117.601 93.4662C116.671 93.5149 116.194 93.9011 116.172 94.6246L114.356 94.7198C114.348 93.9878 114.611 93.367 115.146 92.8574C115.681 92.3478 116.479 92.0651 117.54 92.0096C119.701 91.8963 120.831 92.7852 120.93 94.6763L121.136 98.5935C121.166 99.1738 121.275 99.5243 121.462 99.6449L121.466 99.7199L119.499 99.823ZM117.393 98.6843C117.953 98.6549 118.386 98.4867 118.691 98.1798C119.006 97.8723 119.153 97.5185 119.132 97.1183L119.071 95.9626C118.858 96.1042 118.391 96.2792 117.669 96.4876C117.096 96.6481 116.693 96.8196 116.462 97.0023C116.23 97.175 116.123 97.4314 116.141 97.7716C116.175 98.422 116.593 98.7262 117.393 98.6843ZM123.786 91.8779L123.841 92.9285L123.886 92.9261C124.372 92.0579 125.11 91.5978 126.101 91.5459C126.891 91.5044 127.546 91.741 128.064 92.2556C128.582 92.7602 128.864 93.4378 128.908 94.2882L129.172 99.3161L127.131 99.423L126.883 94.6954C126.861 94.2752 126.723 93.9413 126.469 93.6937C126.225 93.4456 125.893 93.3326 125.473 93.3546C125.023 93.3782 124.656 93.563 124.374 93.9089C124.101 94.2543 123.978 94.6871 124.005 95.2074L124.234 99.5749L122.193 99.6818L121.789 91.9825L123.786 91.8779ZM135.203 99L132.857 95.6013L132.02 96.5632L132.156 99.1597L130.13 99.2659L129.567 88.5348L131.594 88.4287L131.905 94.372L134.484 91.3172L136.93 91.189L134.247 94.2643L137.679 98.8702L135.203 99ZM144.578 98.7494C143.128 98.8255 141.986 98.5793 141.154 98.0109C140.321 97.4325 139.854 96.574 139.754 95.4355L141.886 95.3238C141.989 95.9605 142.239 96.4089 142.633 96.6692C143.038 96.9289 143.626 97.0385 144.396 96.9982C145.007 96.9662 145.501 96.8299 145.88 96.5893C146.258 96.3388 146.435 95.9783 146.41 95.5081C146.401 95.338 146.368 95.1892 146.312 95.0617C146.264 94.9238 146.168 94.8084 146.023 94.7157C145.877 94.613 145.752 94.5342 145.649 94.4794C145.545 94.4146 145.356 94.3543 145.083 94.2984C144.808 94.2325 144.6 94.1883 144.459 94.1656C144.316 94.1329 144.053 94.0815 143.668 94.0114C143.202 93.9254 142.817 93.8503 142.512 93.786C142.218 93.7211 141.886 93.6131 141.517 93.4619C141.158 93.3102 140.868 93.1397 140.648 92.9506C140.437 92.751 140.252 92.4898 140.095 92.1669C139.937 91.8341 139.847 91.4525 139.824 91.0223C139.77 89.9917 140.104 89.1816 140.826 88.592C141.557 87.9918 142.537 87.6595 143.768 87.595C144.989 87.531 145.98 87.77 146.74 88.3121C147.501 88.8541 147.95 89.6583 148.086 90.7248L146 90.8341C145.912 90.3169 145.671 89.9283 145.276 89.668C144.892 89.4073 144.414 89.2918 143.844 89.3217C143.253 89.3527 142.789 89.4924 142.451 89.7409C142.113 89.9893 141.954 90.3037 141.974 90.6839C141.995 91.0941 142.181 91.3854 142.531 91.5577C142.891 91.7294 143.512 91.8875 144.392 92.032C144.918 92.1148 145.349 92.1976 145.684 92.2803C146.019 92.3531 146.381 92.4695 146.771 92.6297C147.17 92.7794 147.48 92.9537 147.701 93.1528C147.933 93.3514 148.127 93.6221 148.286 93.965C148.454 94.2973 148.549 94.6886 148.573 95.1389C148.629 96.1995 148.287 97.0501 147.548 97.6908C146.809 98.3315 145.819 98.6844 144.578 98.7494ZM148.716 91.9258L148.646 90.575L149.711 90.5192L149.585 88.1178L151.582 88.0132L151.707 90.4146L153.028 90.3453L153.099 91.6961L151.778 91.7653L151.992 95.8476C152.019 96.3579 152.287 96.5997 152.798 96.5729L153.397 96.5265L153.476 98.0273C153.167 98.0636 152.742 98.0959 152.202 98.1242C151.611 98.1551 151.109 98.041 150.694 97.7818C150.278 97.5126 150.053 97.0478 150.019 96.3875L149.782 91.8699L148.716 91.9258ZM159.104 97.7474C158.997 97.6226 158.902 97.3416 158.819 96.9045L158.789 96.9061C158.586 97.2478 158.319 97.5176 157.988 97.7156C157.657 97.9135 157.187 98.0285 156.577 98.0604C155.766 98.1029 155.105 97.9319 154.593 97.5474C154.081 97.1628 153.806 96.5953 153.767 95.8449C153.726 95.0645 153.966 94.48 154.487 94.0915C155.008 93.693 155.755 93.398 156.729 93.2065C157.444 93.0687 157.929 92.9429 158.184 92.8292C158.438 92.7055 158.558 92.5086 158.544 92.2385C158.529 91.9583 158.408 91.744 158.179 91.5954C157.95 91.4368 157.625 91.3686 157.205 91.3906C156.275 91.4394 155.798 91.8255 155.776 92.5491L153.96 92.6443C153.952 91.9123 154.215 91.2915 154.75 90.7818C155.286 90.2722 156.083 89.9896 157.144 89.934C159.305 89.8207 160.435 90.7096 160.534 92.6007L160.74 96.5179C160.77 97.0982 160.879 97.4487 161.066 97.5693L161.07 97.6444L159.104 97.7474ZM156.997 96.6087C157.557 96.5793 157.99 96.4112 158.295 96.1042C158.61 95.7968 158.757 95.4429 158.736 95.0427L158.676 93.887C158.462 94.0287 157.995 94.2036 157.273 94.412C156.7 94.5725 156.297 94.7441 156.066 94.9268C155.834 95.0994 155.728 95.3559 155.745 95.6961C155.779 96.3464 156.197 96.6506 156.997 96.6087ZM160.867 91.289L160.797 89.9382L161.862 89.8824L161.736 87.481L163.733 87.3764L163.858 89.7778L165.179 89.7085L165.25 91.0593L163.929 91.1285L164.143 95.2108C164.17 95.7211 164.438 95.9629 164.949 95.9361L165.548 95.8897L165.627 97.3905C165.318 97.4268 164.893 97.4591 164.353 97.4874C163.762 97.5183 163.26 97.4042 162.845 97.145C162.429 96.8758 162.204 96.411 162.17 95.7507L161.933 91.2331L160.867 91.289ZM166.334 97.3685L165.93 89.6692L167.896 89.5661L167.95 90.6017L167.995 90.5994C168.442 89.7432 169.166 89.2889 170.166 89.2365C170.647 89.2113 171.078 89.3141 171.462 89.5448C171.855 89.765 172.157 90.0753 172.368 90.4755L172.398 90.474C172.912 89.5441 173.658 89.0535 174.639 89.0021C175.439 88.9601 176.073 89.1728 176.538 89.64C177.014 90.0966 177.274 90.7502 177.318 91.6007L177.59 96.7786L175.549 96.8856L175.295 92.0529C175.249 91.1724 174.831 90.7528 174.041 90.7942C173.61 90.8168 173.278 90.9897 173.044 91.313C172.82 91.6257 172.721 92.0373 172.748 92.5476L172.982 97.0201L170.941 97.127L170.688 92.2943C170.642 91.4138 170.223 90.9943 169.433 91.0357C169.023 91.0572 168.696 91.2299 168.452 91.5537C168.217 91.867 168.114 92.2787 168.14 92.789L168.375 97.2615L166.334 97.3685ZM182.179 96.7638C180.938 96.8289 179.943 96.4998 179.193 95.7766C178.442 95.0434 178.035 94.0814 177.973 92.8908C177.912 91.7401 178.217 90.761 178.887 89.9533C179.557 89.1356 180.447 88.6977 181.558 88.6395C182.768 88.576 183.726 88.9472 184.43 89.7531C185.135 90.559 185.524 91.6673 185.598 93.0781L180.015 93.3707C180.127 93.9768 180.357 94.4414 180.705 94.7642C181.052 95.0771 181.511 95.2186 182.081 95.1887C182.832 95.1494 183.311 94.8083 183.518 94.1653L185.529 94.0599C185.416 94.7882 185.068 95.4085 184.483 95.9207C183.897 96.433 183.13 96.714 182.179 96.7638ZM181.67 90.2138C180.68 90.2657 180.113 90.8472 179.971 91.9583L183.393 91.779C183.337 91.2903 183.151 90.9037 182.835 90.6193C182.519 90.3248 182.13 90.1897 181.67 90.2138ZM188.006 88.5122L188.061 89.5628L188.106 89.5604C188.593 88.6922 189.331 88.2321 190.322 88.1802C191.112 88.1388 191.767 88.3753 192.285 88.89C192.803 89.3946 193.085 90.0721 193.129 90.9226L193.393 95.9504L191.352 96.0574L191.104 91.3297C191.082 90.9095 190.944 90.5756 190.69 90.328C190.446 90.0799 190.114 89.9669 189.694 89.9889C189.244 90.0125 188.877 90.1973 188.594 90.5432C188.322 90.8886 188.199 91.3214 188.226 91.8417L188.455 96.2092L186.414 96.3162L186.01 88.6168L188.006 88.5122ZM193.421 89.5829L193.35 88.2322L194.416 88.1763L194.29 85.775L196.286 85.6703L196.412 88.0717L197.733 88.0025L197.804 89.3532L196.483 89.4225L196.697 93.5047C196.723 94.015 196.992 94.2568 197.502 94.2301L198.102 94.1836L198.181 95.6844C197.871 95.7207 197.447 95.753 196.906 95.7813C196.316 95.8122 195.813 95.6981 195.399 95.4389C194.983 95.1698 194.758 94.705 194.723 94.0446L194.487 89.5271L193.421 89.5829Z" fill="black"/>
<rect x="76.3289" y="135.723" width="184.106" height="11.2718" rx="5.00968" transform="rotate(-3 76.3289 135.723)" fill="#E7E5E4"/>
<rect x="75.0871" y="118.549" width="184.106" height="11.2718" rx="5.00968" transform="rotate(-3 75.0871 118.549)" fill="#E7E5E4"/>
<rect x="79.4096" y="194.507" width="184.106" height="11.2718" rx="5.00968" transform="rotate(-3 79.4096 194.507)" fill="#E7E5E4"/>
<rect x="82.4903" y="253.29" width="50.0968" height="11.2718" rx="5.00968" transform="rotate(-3 82.4903 253.29)" fill="#E7E5E4"/>
<rect x="77.2465" y="153.233" width="184.106" height="11.2718" rx="5.00968" transform="rotate(-3 77.2465 153.233)" fill="#E7E5E4"/>
<rect x="80.3272" y="212.016" width="155.3" height="11.2718" rx="5.00968" transform="rotate(-3 80.3272 212.016)" fill="#E7E5E4"/>
<rect x="83.4079" y="270.799" width="184.106" height="11.2718" rx="5.00968" transform="rotate(-3 83.4079 270.799)" fill="#E7E5E4"/>
<rect x="85.2432" y="305.819" width="184.106" height="11.2718" rx="5.00968" transform="rotate(-3 85.2432 305.819)" fill="#E7E5E4"/>
<rect x="78.1642" y="170.743" width="184.106" height="11.2718" rx="5.00968" transform="rotate(-3 78.1642 170.743)" fill="#E7E5E4"/>
<rect x="81.2449" y="229.526" width="125.242" height="11.2718" rx="5.00968" transform="rotate(-3 81.2449 229.526)" fill="#E7E5E4"/>
<rect x="84.3256" y="288.309" width="184.106" height="11.2718" rx="5.00968" transform="rotate(-3 84.3256 288.309)" fill="#E7E5E4"/>
<rect x="86.1609" y="323.329" width="184.106" height="11.2718" rx="5.00968" transform="rotate(-3 86.1609 323.329)" fill="#E7E5E4"/>
</g>
<g filter="url(#filter1_d_67_1989)">
<g clip-path="url(#clip0_67_1989)">
<path d="M350.178 70.468C350.99 62.2076 358.346 56.1702 366.606 56.983L557.305 75.7477C565.566 76.5605 571.603 83.9158 570.79 92.1762L545.525 348.934C544.713 357.195 537.357 363.232 529.097 362.42L338.398 343.655C330.137 342.842 324.1 335.487 324.913 327.226L350.178 70.468Z" fill="white"/>
<path d="M367.847 90.0709L368.596 79.3513L370.77 79.5034L370.147 88.4089L375.185 88.7611L375.058 90.5752L367.847 90.0709ZM382.212 90.1414C381.408 90.8585 380.417 91.1759 379.238 91.0934C378.058 91.011 377.121 90.5587 376.425 89.7367C375.73 88.9047 375.423 87.9089 375.504 86.7495C375.585 85.5901 376.027 84.6518 376.83 83.9346C377.635 83.2074 378.626 82.8851 379.806 82.9675C380.985 83.05 381.922 83.5073 382.618 84.3393C383.313 85.1613 383.621 86.152 383.54 87.3115C383.459 88.4709 383.016 89.4142 382.212 90.1414ZM379.347 89.5342C379.956 89.5769 380.447 89.3852 380.818 88.9592C381.2 88.5239 381.418 87.9264 381.471 87.1668C381.524 86.4072 381.392 85.7852 381.074 85.301C380.766 84.8175 380.308 84.5544 379.698 84.5118C379.078 84.4684 378.582 84.6648 378.21 85.1008C377.839 85.5268 377.626 86.1246 377.573 86.8942C377.52 87.6538 377.647 88.2754 377.955 88.7589C378.263 89.2325 378.727 89.4909 379.347 89.5342ZM387.022 91.6378C385.922 91.5609 385.08 91.2609 384.494 90.7378C383.908 90.2047 383.615 89.5163 383.613 88.6725L385.503 88.8046C385.573 89.6633 386.103 90.1272 387.093 90.1964C387.542 90.2279 387.893 90.172 388.144 90.0289C388.405 89.8864 388.545 89.6803 388.564 89.4104C388.571 89.3104 388.557 89.2191 388.523 89.1363C388.498 89.0543 388.443 88.9801 388.357 88.9139C388.282 88.8383 388.211 88.7781 388.144 88.7332C388.087 88.6891 387.98 88.6414 387.823 88.5902C387.665 88.5391 387.543 88.5003 387.454 88.4741C387.376 88.4485 387.232 88.4134 387.025 88.3687C386.827 88.3147 386.69 88.275 386.611 88.2494C386.197 88.1401 385.858 88.036 385.593 87.9372C385.34 87.829 385.074 87.6849 384.795 87.5047C384.517 87.3145 384.313 87.0743 384.182 86.7839C384.063 86.4843 384.017 86.1346 384.045 85.7348C384.101 84.9352 384.433 84.3457 385.042 83.9665C385.661 83.5879 386.431 83.4308 387.35 83.4951C388.34 83.5643 389.098 83.8484 389.626 84.3473C390.164 84.8369 390.446 85.4793 390.47 86.2745L388.626 86.1455C388.599 85.3903 388.13 84.9809 387.221 84.9173C386.811 84.8886 386.481 84.9409 386.23 85.074C385.99 85.2079 385.86 85.4097 385.842 85.6796C385.835 85.7696 385.844 85.8556 385.869 85.9376C385.904 86.0104 385.959 86.0795 386.035 86.1451C386.121 86.2014 386.203 86.2523 386.28 86.2979C386.358 86.3334 386.471 86.3764 386.618 86.4269C386.766 86.4674 386.894 86.5065 387.001 86.5441C387.11 86.5718 387.258 86.6123 387.445 86.6655C387.633 86.7088 387.781 86.7443 387.889 86.7719C388.204 86.8643 388.46 86.9474 388.655 87.0214C388.862 87.086 389.095 87.1927 389.356 87.3415C389.618 87.4804 389.818 87.635 389.957 87.8054C390.106 87.9665 390.226 88.1858 390.317 88.4634C390.419 88.7316 390.458 89.0406 390.433 89.3905C390.38 90.1501 390.038 90.7338 389.407 91.1417C388.786 91.5402 387.991 91.7056 387.022 91.6378ZM393.999 92.1256C392.899 92.0488 392.056 91.7488 391.47 91.2257C390.885 90.6926 390.591 90.0042 390.59 89.1604L392.479 89.2925C392.55 90.1511 393.08 90.6151 394.069 90.6843C394.519 90.7157 394.87 90.6599 395.121 90.5167C395.382 90.3743 395.522 90.1681 395.54 89.8983C395.547 89.7983 395.534 89.707 395.499 89.6242C395.475 89.5421 395.42 89.468 395.334 89.4017C395.259 89.3262 395.188 89.266 395.121 89.2211C395.064 89.1769 394.956 89.1292 394.799 89.0781C394.642 89.0269 394.519 88.9882 394.431 88.9619C394.352 88.9363 394.209 88.9012 394.001 88.8566C393.804 88.8026 393.666 88.7628 393.588 88.7372C393.174 88.6279 392.834 88.5239 392.57 88.425C392.316 88.3169 392.05 88.1727 391.772 87.9926C391.494 87.8024 391.29 87.5621 391.159 87.2718C391.04 86.9721 390.994 86.6224 391.022 86.2226C391.078 85.423 391.41 84.8336 392.019 84.4543C392.638 84.0758 393.407 83.9187 394.327 83.983C395.317 84.0522 396.075 84.3362 396.603 84.8351C397.141 85.3247 397.422 85.9671 397.447 86.7623L395.603 86.6334C395.576 85.8782 395.107 85.4688 394.197 85.4052C393.788 85.3765 393.458 85.4287 393.207 85.5619C392.967 85.6957 392.837 85.8976 392.818 86.1675C392.812 86.2574 392.821 86.3434 392.845 86.4255C392.881 86.4982 392.936 86.5674 393.012 86.633C393.098 86.6892 393.18 86.7401 393.257 86.7857C393.335 86.8213 393.448 86.8643 393.595 86.9148C393.743 86.9552 393.87 86.9943 393.978 87.032C394.087 87.0597 394.235 87.1001 394.422 87.1534C394.609 87.1967 394.758 87.2321 394.866 87.2598C395.181 87.3521 395.436 87.4353 395.632 87.5092C395.839 87.5739 396.072 87.6806 396.333 87.8294C396.594 87.9682 396.795 88.1228 396.933 88.2932C397.083 88.4543 397.203 88.6737 397.294 88.9512C397.396 89.2195 397.434 89.5285 397.41 89.8783C397.357 90.6379 397.015 91.2217 396.384 91.6295C395.763 92.0281 394.968 92.1934 393.999 92.1256ZM404.392 92.8675C402.943 92.7661 401.84 92.3827 401.083 91.7171C400.327 91.0415 399.968 90.1326 400.008 88.9903L402.137 89.1392C402.162 89.7838 402.355 90.2593 402.715 90.5657C403.085 90.8728 403.655 91.0533 404.425 91.1071C405.035 91.1497 405.542 91.0747 405.947 90.8821C406.353 90.6795 406.572 90.3433 406.605 89.8735C406.617 89.7036 406.603 89.5519 406.562 89.4185C406.532 89.2758 406.45 89.1495 406.317 89.0398C406.185 88.9201 406.071 88.8267 405.975 88.7598C405.88 88.6828 405.7 88.5999 405.435 88.5111C405.171 88.4123 404.97 88.343 404.832 88.3032C404.695 88.2534 404.439 88.1703 404.066 88.0538C403.614 87.9117 403.241 87.7902 402.946 87.6892C402.662 87.589 402.346 87.4414 401.998 87.2463C401.66 87.0519 401.393 86.8474 401.197 86.6329C401.012 86.409 400.861 86.1272 400.744 85.7876C400.628 85.438 400.585 85.0483 400.615 84.6185C400.687 83.589 401.117 82.8257 401.905 82.3283C402.704 81.8217 403.718 81.6114 404.947 81.6974C406.167 81.7827 407.121 82.1407 407.81 82.7714C408.499 83.4021 408.846 84.255 408.851 85.3301L406.767 85.1843C406.744 84.6604 406.552 84.2452 406.192 83.9388C405.841 83.6331 405.381 83.4603 404.812 83.4205C404.222 83.3792 403.744 83.4613 403.378 83.6668C403.012 83.8722 402.816 84.1648 402.79 84.5446C402.761 84.9544 402.91 85.2661 403.236 85.4798C403.573 85.6942 404.169 85.9267 405.026 86.1774C405.538 86.3237 405.955 86.4583 406.278 86.5814C406.602 86.6944 406.947 86.8541 407.314 87.0606C407.692 87.2578 407.979 87.4686 408.174 87.6932C408.379 87.9185 408.539 88.2109 408.655 88.5705C408.781 88.9208 408.828 89.3209 408.797 89.7706C408.723 90.8301 408.28 91.6328 407.469 92.1787C406.657 92.7245 405.632 92.9541 404.392 92.8675ZM409.331 86.599L409.425 85.2497L410.49 85.3241L410.657 82.9253L412.651 83.0647L412.484 85.4635L413.803 85.5558L413.709 86.9051L412.389 86.8128L412.104 90.8908C412.069 91.4005 412.306 91.6732 412.815 91.7089L413.416 91.7358L413.311 93.235C413 93.2334 412.575 93.2137 412.035 93.1759C411.445 93.1347 410.96 92.9602 410.58 92.6523C410.2 92.3345 410.034 91.8458 410.08 91.1861L410.395 86.6734L409.331 86.599ZM418.931 93.6431C418.84 93.5062 418.78 93.2157 418.751 92.7717L418.721 92.7697C418.478 93.0841 418.18 93.3194 417.828 93.4756C417.476 93.6317 416.994 93.6885 416.385 93.6458C415.575 93.5892 414.94 93.3389 414.479 92.8948C414.018 92.4508 413.813 91.854 413.866 91.1044C413.92 90.3248 414.23 89.7739 414.795 89.4518C415.36 89.1198 416.138 88.918 417.127 88.8466C417.854 88.7969 418.351 88.7312 418.617 88.6495C418.885 88.5577 419.028 88.3769 419.047 88.107C419.067 87.8272 418.972 87.5996 418.763 87.4243C418.555 87.239 418.241 87.1317 417.822 87.1023C416.892 87.0373 416.372 87.3625 416.262 88.078L414.448 87.9511C414.529 87.2236 414.866 86.6395 415.459 86.1989C416.052 85.7583 416.879 85.575 417.938 85.6491C420.097 85.8001 421.111 86.8201 420.979 88.7091L420.705 92.6221C420.664 93.2018 420.73 93.563 420.9 93.7055L420.895 93.7804L418.931 93.6431ZM416.979 92.2561C417.539 92.2953 417.989 92.1811 418.329 91.9136C418.679 91.6468 418.868 91.3135 418.896 90.9137L418.977 89.7593C418.748 89.8739 418.262 89.9906 417.521 90.1095C416.932 90.1989 416.512 90.3202 416.26 90.4733C416.009 90.6165 415.872 90.8579 415.848 91.1978C415.802 91.8474 416.18 92.2002 416.979 92.2561ZM421.469 87.4478L421.563 86.0984L422.628 86.1729L422.795 83.7741L424.789 83.9135L424.622 86.3123L425.941 86.4046L425.847 87.7539L424.527 87.6616L424.242 91.7396C424.207 92.2493 424.444 92.522 424.953 92.5576L425.554 92.5846L425.449 94.0838C425.138 94.0821 424.713 94.0624 424.173 94.0247C423.583 93.9835 423.098 93.8089 422.718 93.5011C422.338 93.1833 422.172 92.6946 422.218 92.0349L422.533 87.5222L421.469 87.4478ZM429.678 94.6205C428.438 94.5339 427.49 94.0859 426.834 93.2767C426.178 92.4575 425.892 91.4531 425.975 90.2637C426.055 89.1143 426.477 88.1796 427.24 87.4596C428.005 86.7296 428.941 86.4034 430.051 86.481C431.26 86.5656 432.165 87.0507 432.766 87.9364C433.367 88.8221 433.619 89.9696 433.52 91.3789L427.943 90.9889C427.98 91.6042 428.152 92.0933 428.458 92.4562C428.765 92.8091 429.203 93.0055 429.773 93.0453C430.522 93.0977 431.039 92.8175 431.323 92.2046L433.332 92.345C433.132 93.0542 432.71 93.6273 432.067 94.0645C431.423 94.5016 430.627 94.6869 429.678 94.6205ZM429.971 88.0573C428.981 87.9881 428.348 88.4963 428.071 89.5817L431.49 89.8208C431.494 89.3289 431.357 88.9226 431.078 88.6018C430.8 88.271 430.431 88.0895 429.971 88.0573ZM433.935 94.6923L434.473 87.0012L436.437 87.1385L436.365 88.173L436.41 88.1761C436.958 87.3808 437.731 87.0181 438.731 87.088C439.21 87.1215 439.626 87.2762 439.979 87.5519C440.342 87.8183 440.604 88.1631 440.765 88.5862L440.795 88.5883C441.418 87.7279 442.219 87.3319 443.198 87.4004C443.998 87.4563 444.601 87.7445 445.006 88.265C445.422 88.7762 445.601 89.4566 445.541 90.3062L445.18 95.4786L443.141 95.336L443.478 90.5084C443.54 89.6289 443.176 89.1615 442.386 89.1063C441.956 89.0762 441.606 89.2074 441.334 89.4998C441.073 89.7828 440.925 90.1792 440.889 90.689L440.577 95.1567L438.538 95.0141L438.876 90.1866C438.937 89.307 438.573 88.8396 437.783 88.7844C437.374 88.7558 437.028 88.8873 436.746 89.179C436.476 89.4613 436.322 89.8574 436.287 90.3671L435.974 94.8349L433.935 94.6923ZM449.736 96.0232C448.497 95.9365 447.549 95.4886 446.893 94.6793C446.237 93.8601 445.95 92.8558 446.034 91.6664C446.114 90.517 446.536 89.5823 447.299 88.8623C448.063 88.1323 449 87.8061 450.11 87.8837C451.319 87.9682 452.224 88.4534 452.825 89.3391C453.426 90.2248 453.677 91.3723 453.579 92.7816L448.002 92.3916C448.039 93.0069 448.211 93.4959 448.517 93.8588C448.823 94.2117 449.262 94.4081 449.831 94.4479C450.581 94.5004 451.098 94.2201 451.382 93.6072L453.391 93.7477C453.19 94.4568 452.769 95.03 452.125 95.4671C451.482 95.9042 450.686 96.0896 449.736 96.0232ZM450.03 89.46C449.04 89.3908 448.407 89.8989 448.13 90.9844L451.548 91.2234C451.553 90.7316 451.415 90.3252 451.137 90.0044C450.858 89.6736 450.489 89.4921 450.03 89.46ZM456.526 88.5433L456.453 89.5927L456.498 89.5959C457.086 88.7933 457.875 88.4267 458.864 88.4959C459.654 88.5511 460.275 88.8657 460.727 89.4396C461.18 90.0036 461.376 90.7104 461.317 91.56L460.966 96.5824L458.927 96.4399L459.257 91.7172C459.286 91.2975 459.19 90.9492 458.968 90.6726C458.757 90.3967 458.441 90.244 458.021 90.2146C457.571 90.1832 457.185 90.3219 456.862 90.6308C456.549 90.9403 456.375 91.355 456.338 91.8747L456.033 96.2375L453.994 96.0949L454.532 88.4038L456.526 88.5433ZM461.77 90.2659L461.864 88.9165L462.929 88.991L463.096 86.5922L465.09 86.7316L464.923 89.1304L466.242 89.2227L466.148 90.572L464.828 90.4797L464.543 94.5577C464.507 95.0674 464.745 95.3401 465.254 95.3758L465.855 95.4027L465.75 96.9019C465.439 96.9003 465.013 96.8805 464.474 96.8428C463.884 96.8016 463.399 96.627 463.019 96.3192C462.639 96.0014 462.473 95.5127 462.519 94.853L462.834 90.3403L461.77 90.2659Z" fill="black"/>
<rect x="363.845" y="123.411" width="184.106" height="11.2718" rx="5.00968" transform="rotate(5.61979 363.845 123.411)" fill="#E7E5E4"/>
<rect x="365.191" y="106.244" width="184.106" height="11.2718" rx="5.00968" transform="rotate(5.61979 365.191 106.244)" fill="#E7E5E4"/>
<rect x="358.081" y="181.991" width="184.106" height="11.2718" rx="5.00968" transform="rotate(5.61979 358.081 181.991)" fill="#E7E5E4"/>
<rect x="352.317" y="240.572" width="50.0968" height="11.2718" rx="5.00968" transform="rotate(5.61979 352.317 240.572)" fill="#E7E5E4"/>
<rect x="362.128" y="140.86" width="184.106" height="11.2718" rx="5.00968" transform="rotate(5.61979 362.128 140.86)" fill="#E7E5E4"/>
<rect x="356.364" y="199.44" width="155.3" height="11.2718" rx="5.00968" transform="rotate(5.61979 356.364 199.44)" fill="#E7E5E4"/>
<rect x="350.599" y="258.021" width="184.106" height="11.2718" rx="5.00968" transform="rotate(5.61979 350.599 258.021)" fill="#E7E5E4"/>
<rect x="347.165" y="292.92" width="184.106" height="11.2718" rx="5.00968" transform="rotate(5.61979 347.165 292.92)" fill="#E7E5E4"/>
<rect x="360.411" y="158.31" width="184.106" height="11.2718" rx="5.00968" transform="rotate(5.61979 360.411 158.31)" fill="#E7E5E4"/>
<rect x="354.647" y="216.89" width="125.242" height="11.2718" rx="5.00968" transform="rotate(5.61979 354.647 216.89)" fill="#E7E5E4"/>
<rect x="348.882" y="275.471" width="184.106" height="11.2718" rx="5.00968" transform="rotate(5.61979 348.882 275.471)" fill="#E7E5E4"/>
<rect x="345.448" y="310.37" width="184.106" height="11.2718" rx="5.00968" transform="rotate(5.61979 345.448 310.37)" fill="#E7E5E4"/>
<g clip-path="url(#clip1_67_1989)">
<path d="M533.457 98.9553C537.203 99.2173 540.452 96.3926 540.714 92.6462C540.976 88.8998 538.152 85.6504 534.405 85.3884C530.659 85.1264 527.41 87.9511 527.148 91.6975C526.886 95.4439 529.71 98.6933 533.457 98.9553Z" fill="#FFE73B"/>
<path d="M533.568 97.359C536.433 97.5593 538.918 95.3993 539.118 92.5344C539.319 89.6695 537.159 87.1846 534.294 86.9843C531.429 86.784 528.944 88.944 528.744 91.8089C528.543 94.6738 530.703 97.1586 533.568 97.359Z" fill="#FCC029"/>
<path d="M539.614 108.328L539.452 103.926C539.432 103.419 538.828 103.16 538.444 103.494L536.958 104.786L530.895 97.8097C530.605 97.4727 530.103 97.4375 529.769 97.731L526.529 100.544L518.888 91.7574C518.743 91.5909 518.545 91.4969 518.342 91.4826C518.138 91.4684 517.929 91.534 517.763 91.6787C517.426 91.9679 517.391 92.4707 517.684 92.804L525.848 102.196C526.138 102.533 526.64 102.569 526.974 102.275L530.214 99.4622L535.754 105.832L534.269 107.124C533.885 107.458 534.057 108.091 534.556 108.182L538.892 108.955C539.276 109.026 539.631 108.718 539.614 108.328Z" fill="#D83030"/>
<path d="M534.356 91.8267L534.495 89.8435C535.371 90.076 535.645 90.804 535.659 90.8456C535.731 91.0539 535.957 91.1647 536.166 91.0943C536.375 91.0239 536.487 90.7968 536.417 90.5874C536.398 90.5319 535.972 89.3265 534.551 89.0363L534.581 88.6085C534.597 88.3879 534.431 88.197 534.21 88.1816C533.989 88.1662 533.798 88.3321 533.783 88.5527L533.753 88.9777C532.598 89.0364 531.698 89.7033 531.634 90.6078C531.571 91.5124 532.37 92.2981 533.506 92.517L533.367 94.5002C532.487 94.2666 532.215 93.5335 532.203 93.501C532.132 93.2915 531.905 93.179 531.696 93.2498C531.487 93.3202 531.374 93.5473 531.445 93.7567C531.464 93.8122 531.89 95.0176 533.311 95.3078L533.281 95.7356C533.265 95.9562 533.431 96.1471 533.652 96.1625C533.873 96.1779 534.063 96.012 534.079 95.7914L534.109 95.3664C535.264 95.3077 536.164 94.6408 536.227 93.7363C536.291 92.8317 535.492 92.0456 534.356 91.8267ZM532.433 90.6636C532.464 90.2092 533.01 89.854 533.697 89.7869L533.562 91.7082C532.892 91.5463 532.401 91.1185 532.432 90.664L532.433 90.6636ZM534.165 94.5568L534.3 92.6355C534.97 92.7974 535.461 93.2252 535.429 93.6796C535.398 94.1341 534.852 94.4897 534.165 94.5568Z" fill="#FFE73B"/>
<path d="M533.54 97.7582C530.46 97.5428 528.129 94.8617 528.345 91.7812C528.56 88.7007 531.241 86.3701 534.322 86.5855C537.402 86.8009 539.733 89.482 539.517 92.5625C539.302 95.6429 536.621 97.9736 533.54 97.7582ZM534.266 87.3835C531.625 87.1989 529.327 89.1966 529.143 91.837C528.958 94.4773 530.956 96.7755 533.596 96.9601C536.236 97.1448 538.535 95.147 538.719 92.5066C538.904 89.8663 536.906 87.5681 534.266 87.3835Z" fill="#F9B52B"/>
</g>
</g>
</g>
<g filter="url(#filter2_d_67_1989)">
<path d="M520.349 218.469C519.052 210.271 524.646 202.573 532.844 201.276L558.822 197.166C567.02 195.869 574.718 201.463 576.015 209.662L580.125 235.639C581.422 243.838 575.828 251.535 567.629 252.832L541.652 256.942C533.453 258.239 525.756 252.645 524.459 244.447L520.349 218.469Z" fill="white"/>
<path d="M545.214 238.206C546.056 236.957 547.616 236.799 548.695 237.845L550.208 239.317C551.42 240.482 553.041 240.226 553.833 238.743L554.818 236.876C555.52 235.547 557.053 235.215 558.24 236.143C560.814 238.145 562.484 237.082 561.963 233.791L559.755 219.85C558.978 214.863 557.617 213.798 552.941 214.538L543.589 216.02C538.913 216.76 537.949 218.194 538.738 223.179L540.944 237.107C541.467 240.41 543.395 240.891 545.214 238.206Z" stroke="#292D32" stroke-width="1.87863" stroke-linecap="round" stroke-linejoin="round"/>
<path d="M544.297 222.248L554.193 220.68" stroke="#292D32" stroke-width="1.87863" stroke-linecap="round" stroke-linejoin="round"/>
<path d="M546.317 227L553.739 225.824" stroke="#292D32" stroke-width="1.87863" stroke-linecap="round" stroke-linejoin="round"/>
</g>
<g filter="url(#filter3_d_67_1989)">
<path d="M30.3486 278.469C29.0515 270.271 34.6461 262.573 42.8444 261.276L68.8221 257.166C77.0204 255.869 84.7179 261.463 86.015 269.662L90.1251 295.639C91.4222 303.838 85.8276 311.535 77.6293 312.832L51.6516 316.942C43.4533 318.239 35.7558 312.645 34.4587 304.447L30.3486 278.469Z" fill="white"/>
<path d="M55.214 298.206C56.0559 296.957 57.6159 296.799 58.6946 297.845L60.2085 299.317C61.4201 300.482 63.0406 300.226 63.8329 298.743L64.8178 296.876C65.5203 295.547 67.0529 295.215 68.2396 296.143C70.8137 298.145 72.4839 297.082 71.9628 293.791L69.7548 279.85C68.9776 274.863 67.6169 273.798 62.941 274.538L53.5893 276.02C48.9135 276.76 47.9486 278.194 48.7381 283.179L50.9442 297.107C51.4673 300.41 53.3948 300.891 55.214 298.206Z" stroke="#292D32" stroke-width="1.87863" stroke-linecap="round" stroke-linejoin="round"/>
<path d="M54.2965 282.248L64.1925 280.68" stroke="#292D32" stroke-width="1.87863" stroke-linecap="round" stroke-linejoin="round"/>
<path d="M56.3172 287L63.7392 285.824" stroke="#292D32" stroke-width="1.87863" stroke-linecap="round" stroke-linejoin="round"/>
</g>
<g filter="url(#filter4_d_67_1989)">
<path d="M188.056 122.654C188.635 114.374 195.816 108.131 204.096 108.71L395.25 122.077C403.53 122.656 409.773 129.837 409.194 138.118L391.197 395.487C390.618 403.767 383.436 410.01 375.156 409.431L184.002 396.065C175.722 395.486 169.479 388.304 170.058 380.024L188.056 122.654Z" fill="white"/>
<path d="M206.382 141.736L207.131 131.017L211.839 131.346C213.058 131.431 213.97 131.832 214.572 132.547C215.166 133.251 215.429 134.088 215.361 135.057C215.29 136.077 214.913 136.874 214.23 137.449C213.547 138.024 212.65 138.273 211.541 138.195L208.902 138.011L208.631 141.894L206.382 141.736ZM209.248 133.063L209.026 136.242L211.275 136.399C211.835 136.438 212.274 136.328 212.594 136.069C212.914 135.8 213.091 135.416 213.126 134.916C213.161 134.416 213.038 134.021 212.757 133.73C212.477 133.43 212.067 133.26 211.527 133.223L209.248 133.063ZM217.965 134.818L217.879 136.047L217.924 136.05C218.195 135.617 218.483 135.306 218.788 135.116C219.093 134.917 219.465 134.832 219.905 134.863C220.115 134.878 220.274 134.909 220.381 134.956L220.256 136.741L220.211 136.737C219.526 136.619 218.961 136.73 218.515 137.071C218.07 137.411 217.819 137.976 217.764 138.766L217.502 142.514L215.463 142.371L216.001 134.68L217.965 134.818ZM226.801 142.23C225.998 142.947 225.007 143.265 223.827 143.182C222.648 143.1 221.71 142.648 221.014 141.826C220.319 140.994 220.012 139.998 220.093 138.838C220.174 137.679 220.617 136.741 221.42 136.024C222.224 135.296 223.216 134.974 224.395 135.056C225.575 135.139 226.512 135.596 227.207 136.428C227.903 137.25 228.21 138.241 228.129 139.4C228.048 140.56 227.606 141.503 226.801 142.23ZM223.936 141.623C224.546 141.666 225.036 141.474 225.408 141.048C225.79 140.613 226.007 140.015 226.06 139.256C226.113 138.496 225.981 137.874 225.663 137.39C225.356 136.906 224.897 136.643 224.287 136.601C223.668 136.557 223.172 136.754 222.8 137.19C222.429 137.616 222.216 138.213 222.162 138.983C222.109 139.743 222.236 140.364 222.544 140.848C222.852 141.321 223.317 141.58 223.936 141.623ZM228.352 136.96L228.45 135.551L229.5 135.624L229.548 134.935C229.611 134.035 229.966 133.417 230.612 133.081C231.258 132.744 232.097 132.667 233.129 132.85L233.019 134.424C232.51 134.368 232.148 134.388 231.93 134.484C231.722 134.579 231.605 134.817 231.579 135.197L231.539 135.767L232.918 135.863L232.82 137.273L231.44 137.176L231.001 143.458L228.962 143.315L229.401 137.034L228.352 136.96ZM233.295 143.618L233.833 135.927L235.872 136.07L235.334 143.761L233.295 143.618ZM233.917 134.728L234.045 132.899L236.083 133.041L235.956 134.87L233.917 134.728ZM236.343 137.459L236.437 136.109L237.502 136.184L237.67 133.785L239.664 133.924L239.496 136.323L240.815 136.416L240.721 137.765L239.402 137.673L239.116 141.751C239.081 142.26 239.318 142.533 239.828 142.569L240.428 142.596L240.323 144.095C240.012 144.093 239.587 144.073 239.047 144.036C238.457 143.994 237.972 143.82 237.592 143.512C237.213 143.194 237.046 142.706 237.092 142.046L237.408 137.533L236.343 137.459ZM247.547 144.856C246.098 144.755 244.995 144.371 244.238 143.706C243.481 143.03 243.123 142.121 243.163 140.979L245.292 141.128C245.317 141.772 245.51 142.248 245.87 142.554C246.24 142.861 246.81 143.042 247.58 143.096C248.189 143.138 248.697 143.063 249.102 142.871C249.508 142.668 249.727 142.332 249.76 141.862C249.772 141.692 249.757 141.54 249.717 141.407C249.686 141.264 249.605 141.138 249.472 141.028C249.34 140.909 249.226 140.815 249.13 140.748C249.035 140.671 248.855 140.588 248.59 140.5C248.326 140.401 248.124 140.332 247.987 140.292C247.85 140.242 247.594 140.159 247.221 140.042C246.769 139.9 246.395 139.779 246.101 139.678C245.817 139.578 245.501 139.43 245.153 139.235C244.815 139.04 244.548 138.836 244.352 138.621C244.167 138.398 244.016 138.116 243.899 137.776C243.783 137.427 243.74 137.037 243.77 136.607C243.842 135.578 244.272 134.814 245.06 134.317C245.859 133.81 246.873 133.6 248.102 133.686C249.321 133.771 250.276 134.129 250.965 134.76C251.654 135.391 252.001 136.244 252.006 137.319L249.922 137.173C249.899 136.649 249.707 136.234 249.346 135.927C248.996 135.622 248.536 135.449 247.966 135.409C247.377 135.368 246.899 135.45 246.533 135.655C246.167 135.861 245.971 136.153 245.944 136.533C245.916 136.943 246.065 137.255 246.391 137.468C246.728 137.683 247.324 137.915 248.18 138.166C248.693 138.312 249.11 138.447 249.433 138.57C249.756 138.683 250.102 138.843 250.469 139.049C250.847 139.246 251.133 139.457 251.329 139.682C251.534 139.907 251.694 140.199 251.81 140.559C251.936 140.909 251.983 141.309 251.952 141.759C251.878 142.819 251.435 143.621 250.623 144.167C249.812 144.713 248.786 144.943 247.547 144.856ZM252.486 138.588L252.58 137.238L253.645 137.313L253.812 134.914L255.806 135.053L255.639 137.452L256.958 137.544L256.863 138.894L255.544 138.801L255.259 142.879C255.223 143.389 255.46 143.662 255.97 143.697L256.571 143.724L256.466 145.224C256.155 145.222 255.729 145.202 255.19 145.164C254.6 145.123 254.115 144.949 253.735 144.641C253.355 144.323 253.188 143.834 253.235 143.175L253.55 138.662L252.486 138.588ZM262.086 145.632C261.995 145.495 261.935 145.204 261.906 144.76L261.876 144.758C261.633 145.073 261.335 145.308 260.983 145.464C260.63 145.62 260.149 145.677 259.54 145.634C258.73 145.578 258.095 145.327 257.634 144.883C257.172 144.439 256.968 143.843 257.021 143.093C257.075 142.313 257.385 141.762 257.95 141.44C258.515 141.108 259.293 140.907 260.282 140.835C261.009 140.786 261.505 140.72 261.772 140.638C262.04 140.546 262.183 140.365 262.202 140.096C262.221 139.816 262.127 139.588 261.918 139.413C261.71 139.228 261.396 139.12 260.976 139.091C260.047 139.026 259.527 139.351 259.417 140.067L257.603 139.94C257.684 139.212 258.021 138.628 258.614 138.187C259.207 137.747 260.034 137.564 261.093 137.638C263.252 137.789 264.265 138.809 264.133 140.698L263.86 144.611C263.819 145.19 263.884 145.552 264.055 145.694L264.05 145.769L262.086 145.632ZM260.134 144.245C260.694 144.284 261.144 144.17 261.484 143.902C261.834 143.635 262.023 143.302 262.051 142.902L262.131 141.748C261.902 141.862 261.417 141.979 260.676 142.098C260.087 142.187 259.667 142.309 259.415 142.462C259.164 142.605 259.026 142.846 259.003 143.186C258.957 143.836 259.334 144.189 260.134 144.245ZM264.624 139.436L264.718 138.087L265.783 138.161L265.95 135.763L267.944 135.902L267.776 138.301L269.096 138.393L269.001 139.742L267.682 139.65L267.397 143.728C267.361 144.238 267.598 144.511 268.108 144.546L268.709 144.573L268.604 146.072C268.293 146.071 267.867 146.051 267.328 146.013C266.738 145.972 266.253 145.797 265.873 145.49C265.493 145.172 265.326 144.683 265.373 144.023L265.688 139.511L264.624 139.436ZM272.832 146.609C271.593 146.522 270.645 146.074 269.989 145.265C269.333 144.446 269.046 143.442 269.13 142.252C269.21 141.103 269.632 140.168 270.395 139.448C271.159 138.718 272.096 138.392 273.206 138.47C274.415 138.554 275.32 139.039 275.921 139.925C276.522 140.811 276.773 141.958 276.675 143.367L271.098 142.977C271.135 143.593 271.307 144.082 271.613 144.445C271.919 144.798 272.358 144.994 272.927 145.034C273.677 145.086 274.194 144.806 274.478 144.193L276.487 144.334C276.286 145.043 275.865 145.616 275.221 146.053C274.578 146.49 273.782 146.675 272.832 146.609ZM273.126 140.046C272.136 139.977 271.503 140.485 271.226 141.57L274.644 141.809C274.649 141.317 274.511 140.911 274.232 140.59C273.954 140.26 273.585 140.078 273.126 140.046ZM277.09 146.681L277.628 138.99L279.592 139.127L279.52 140.162L279.565 140.165C280.112 139.369 280.886 139.007 281.885 139.077C282.365 139.11 282.781 139.265 283.134 139.54C283.497 139.807 283.759 140.152 283.92 140.575L283.95 140.577C284.573 139.716 285.374 139.32 286.353 139.389C287.153 139.445 287.755 139.733 288.161 140.254C288.577 140.765 288.756 141.445 288.696 142.295L288.334 147.467L286.295 147.325L286.633 142.497C286.695 141.617 286.33 141.15 285.541 141.095C285.111 141.065 284.76 141.196 284.489 141.488C284.228 141.771 284.08 142.168 284.044 142.678L283.732 147.145L281.693 147.003L282.03 142.175C282.092 141.296 281.728 140.828 280.938 140.773C280.528 140.744 280.183 140.876 279.901 141.168C279.63 141.45 279.477 141.846 279.441 142.356L279.129 146.823L277.09 146.681ZM292.891 148.012C291.652 147.925 290.704 147.477 290.047 146.668C289.391 145.849 289.105 144.844 289.188 143.655C289.269 142.506 289.691 141.571 290.454 140.851C291.218 140.121 292.155 139.795 293.264 139.872C294.474 139.957 295.379 140.442 295.98 141.328C296.581 142.213 296.832 143.361 296.734 144.77L291.156 144.38C291.194 144.995 291.365 145.485 291.672 145.847C291.978 146.2 292.417 146.397 292.986 146.436C293.736 146.489 294.253 146.209 294.537 145.596L296.546 145.736C296.345 146.445 295.924 147.019 295.28 147.456C294.637 147.893 293.841 148.078 292.891 148.012ZM293.184 141.449C292.195 141.379 291.562 141.887 291.285 142.973L294.703 143.212C294.707 142.72 294.57 142.314 294.291 141.993C294.013 141.662 293.644 141.481 293.184 141.449ZM299.681 140.532L299.607 141.581L299.652 141.584C300.241 140.782 301.03 140.415 302.019 140.484C302.809 140.54 303.43 140.854 303.882 141.428C304.334 141.992 304.531 142.699 304.472 143.549L304.12 148.571L302.081 148.428L302.412 143.706C302.441 143.286 302.345 142.938 302.123 142.661C301.911 142.385 301.596 142.233 301.176 142.203C300.726 142.172 300.34 142.31 300.017 142.619C299.704 142.929 299.529 143.344 299.493 143.863L299.188 148.226L297.149 148.083L297.687 140.392L299.681 140.532ZM304.925 142.254L305.019 140.905L306.083 140.98L306.251 138.581L308.245 138.72L308.077 141.119L309.397 141.211L309.302 142.561L307.983 142.468L307.698 146.546C307.662 147.056 307.899 147.329 308.409 147.364L309.01 147.391L308.905 148.89C308.594 148.889 308.168 148.869 307.628 148.831C307.039 148.79 306.554 148.616 306.174 148.308C305.794 147.99 305.627 147.501 305.673 146.842L305.989 142.329L304.925 142.254Z" fill="black"/>
<rect x="203.214" y="175.189" width="184.106" height="11.2718" rx="5.00968" transform="rotate(4 203.214 175.189)" fill="#E7E5E4"/>
<rect x="199.108" y="233.909" width="184.106" height="11.2718" rx="5.00968" transform="rotate(4 199.108 233.909)" fill="#E7E5E4"/>
<rect x="195.002" y="292.629" width="50.0968" height="11.2718" rx="5.00968" transform="rotate(4 195.002 292.629)" fill="#E7E5E4"/>
<rect x="201.991" y="192.68" width="184.106" height="11.2718" rx="5.00968" transform="rotate(4 201.991 192.68)" fill="#E7E5E4"/>
<rect x="197.885" y="251.4" width="155.3" height="11.2718" rx="5.00968" transform="rotate(4 197.885 251.4)" fill="#E7E5E4"/>
<rect x="193.779" y="310.121" width="184.106" height="11.2718" rx="5.00968" transform="rotate(4 193.779 310.121)" fill="#E7E5E4"/>
<rect x="200.768" y="210.171" width="184.106" height="11.2718" rx="5.00968" transform="rotate(4 200.768 210.171)" fill="#E7E5E4"/>
<rect x="196.662" y="268.891" width="125.242" height="11.2718" rx="5.00968" transform="rotate(4 196.662 268.891)" fill="#E7E5E4"/>
<rect x="192.556" y="327.612" width="184.106" height="11.2718" rx="5.00968" transform="rotate(4 192.556 327.612)" fill="#E7E5E4"/>
<g clip-path="url(#clip2_67_1989)">
<path d="M370.783 149.859C374.53 150.121 377.779 147.296 378.041 143.55C378.303 139.803 375.479 136.554 371.732 136.292C367.986 136.03 364.736 138.854 364.474 142.601C364.212 146.347 367.037 149.597 370.783 149.859Z" fill="#FFE73B"/>
<path d="M370.895 148.262C373.76 148.463 376.245 146.303 376.445 143.438C376.645 140.573 374.485 138.088 371.62 137.888C368.756 137.687 366.271 139.847 366.07 142.712C365.87 145.577 368.03 148.062 370.895 148.262Z" fill="#FCC029"/>
<path d="M371.683 142.73L371.822 140.747C372.698 140.979 372.971 141.707 372.986 141.749C373.058 141.957 373.284 142.068 373.492 141.998C373.702 141.927 373.814 141.7 373.744 141.491C373.725 141.435 373.298 140.23 371.878 139.94L371.908 139.512C371.923 139.291 371.757 139.1 371.537 139.085C371.316 139.069 371.125 139.235 371.11 139.456L371.08 139.881C369.925 139.94 369.025 140.607 368.961 141.511C368.898 142.416 369.697 143.201 370.833 143.42L370.694 145.404C369.814 145.17 369.542 144.437 369.53 144.404C369.459 144.195 369.232 144.082 369.023 144.153C368.814 144.223 368.701 144.451 368.772 144.66C368.791 144.715 369.217 145.921 370.638 146.211L370.608 146.639C370.592 146.86 370.758 147.05 370.979 147.066C371.199 147.081 371.39 146.915 371.406 146.695L371.435 146.27C372.591 146.211 373.491 145.544 373.554 144.64C373.618 143.735 372.819 142.949 371.683 142.73ZM369.759 141.567C369.791 141.112 370.337 140.757 371.024 140.69L370.889 142.612C370.219 142.45 369.728 142.022 369.759 141.567L369.759 141.567ZM371.492 145.46L371.626 143.539C372.297 143.701 372.788 144.128 372.756 144.583C372.724 145.037 372.178 145.393 371.492 145.46Z" fill="#FFE73B"/>
<path d="M370.867 148.661C367.787 148.446 365.456 145.765 365.671 142.685C365.887 139.604 368.568 137.273 371.648 137.489C374.729 137.704 377.06 140.385 376.844 143.466C376.629 146.546 373.948 148.877 370.867 148.661ZM371.593 138.287C368.952 138.102 366.654 140.1 366.469 142.74C366.285 145.381 368.283 147.679 370.923 147.863C373.563 148.048 375.861 146.05 376.046 143.41C376.231 140.77 374.233 138.471 371.593 138.287Z" fill="#F9B52B"/>
<path d="M387.187 142.496L387.026 146.898C387.005 147.404 386.402 147.663 386.017 147.329L384.532 146.038L378.468 153.014C378.179 153.351 377.676 153.386 377.343 153.092L374.103 150.279L366.461 159.066C366.317 159.232 366.119 159.326 365.915 159.341C365.712 159.355 365.503 159.289 365.336 159.145C364.999 158.855 364.964 158.353 365.257 158.019L373.422 148.627C373.711 148.29 374.214 148.255 374.547 148.548L377.787 151.361L383.328 144.991L381.842 143.7C381.458 143.365 381.63 142.732 382.129 142.641L386.466 141.869C386.85 141.798 387.204 142.106 387.187 142.496Z" fill="#00A63E"/>
</g>
</g>
<g filter="url(#filter5_d_67_1989)">
<path d="M241 49.8464C241 41.5461 247.729 34.8174 256.029 34.8174H282.33C290.63 34.8174 297.359 41.5461 297.359 49.8464V76.1472C297.359 84.4475 290.63 91.1762 282.33 91.1762H256.029C247.729 91.1762 241 84.4475 241 76.1472V49.8464Z" fill="white"/>
<path d="M265.337 66.541C265.337 68.1566 266.577 69.4592 268.118 69.4592H271.261C272.601 69.4592 273.691 68.3195 273.691 66.9168C273.691 65.3888 273.027 64.8503 272.038 64.4996L266.99 62.7462C266.001 62.3955 265.337 61.857 265.337 60.329C265.337 58.9263 266.427 57.7866 267.767 57.7866H270.91C272.451 57.7866 273.691 59.0891 273.691 60.7048" stroke="#292D32" stroke-width="1.87863" stroke-linecap="round" stroke-linejoin="round"/>
<path d="M269.505 56.1089V71.1379" stroke="#292D32" stroke-width="1.87863" stroke-linecap="round" stroke-linejoin="round"/>
<path d="M269.505 76.1475C276.422 76.1475 282.03 70.5402 282.03 63.6233C282.03 56.7064 276.422 51.0991 269.505 51.0991C262.588 51.0991 256.981 56.7064 256.981 63.6233C256.981 70.5402 262.588 76.1475 269.505 76.1475Z" stroke="#292D32" stroke-width="1.87863" stroke-linecap="round" stroke-linejoin="round"/>
</g>
<defs>
<filter id="filter0_d_67_1989" x="16.7723" y="24.0006" width="316.104" height="378.917" filterUnits="userSpaceOnUse" color-interpolation-filters="sRGB">
<feFlood flood-opacity="0" result="BackgroundImageFix"/>
<feColorMatrix in="SourceAlpha" type="matrix" values="0 0 0 0 0 0 0 0 0 0 0 0 0 0 0 0 0 0 127 0" result="hardAlpha"/>
<feOffset dx="2.50484" dy="5.00968"/>
<feGaussianBlur stdDeviation="19.9135"/>
<feComposite in2="hardAlpha" operator="out"/>
<feColorMatrix type="matrix" values="0 0 0 0 0 0 0 0 0 0 0 0 0 0 0 0 0 0 0.05 0"/>
<feBlend mode="normal" in2="BackgroundImageFix" result="effect1_dropShadow_67_1989"/>
<feBlend mode="normal" in="SourceGraphic" in2="effect1_dropShadow_67_1989" result="shape"/>
</filter>
<filter id="filter1_d_67_1989" x="286.119" y="20.694" width="328.475" height="388.034" filterUnits="userSpaceOnUse" color-interpolation-filters="sRGB">
<feFlood flood-opacity="0" result="BackgroundImageFix"/>
<feColorMatrix in="SourceAlpha" type="matrix" values="0 0 0 0 0 0 0 0 0 0 0 0 0 0 0 0 0 0 127 0" result="hardAlpha"/>
<feOffset dx="2.50484" dy="5.00968"/>
<feGaussianBlur stdDeviation="19.9135"/>
<feComposite in2="hardAlpha" operator="out"/>
<feColorMatrix type="matrix" values="0 0 0 0 0 0 0 0 0 0 0 0 0 0 0 0 0 0 0.05 0"/>
<feBlend mode="normal" in2="BackgroundImageFix" result="effect1_dropShadow_67_1989"/>
<feBlend mode="normal" in="SourceGraphic" in2="effect1_dropShadow_67_1989" result="shape"/>
</filter>
<filter id="filter2_d_67_1989" x="480.678" y="160" width="144.128" height="144.127" filterUnits="userSpaceOnUse" color-interpolation-filters="sRGB">
<feFlood flood-opacity="0" result="BackgroundImageFix"/>
<feColorMatrix in="SourceAlpha" type="matrix" values="0 0 0 0 0 0 0 0 0 0 0 0 0 0 0 0 0 0 127 0" result="hardAlpha"/>
<feOffset dx="2.50484" dy="5.00968"/>
<feGaussianBlur stdDeviation="19.9135"/>
<feComposite in2="hardAlpha" operator="out"/>
<feColorMatrix type="matrix" values="0 0 0 0 0 0 0 0 0 0 0 0 0 0 0 0 0 0 0.15 0"/>
<feBlend mode="normal" in2="BackgroundImageFix" result="effect1_dropShadow_67_1989"/>
<feBlend mode="normal" in="SourceGraphic" in2="effect1_dropShadow_67_1989" result="shape"/>
</filter>
<filter id="filter3_d_67_1989" x="-9.32208" y="220" width="144.128" height="144.127" filterUnits="userSpaceOnUse" color-interpolation-filters="sRGB">
<feFlood flood-opacity="0" result="BackgroundImageFix"/>
<feColorMatrix in="SourceAlpha" type="matrix" values="0 0 0 0 0 0 0 0 0 0 0 0 0 0 0 0 0 0 127 0" result="hardAlpha"/>
<feOffset dx="2.50484" dy="5.00968"/>
<feGaussianBlur stdDeviation="19.9135"/>
<feComposite in2="hardAlpha" operator="out"/>
<feColorMatrix type="matrix" values="0 0 0 0 0 0 0 0 0 0 0 0 0 0 0 0 0 0 0.15 0"/>
<feBlend mode="normal" in2="BackgroundImageFix" result="effect1_dropShadow_67_1989"/>
<feBlend mode="normal" in="SourceGraphic" in2="effect1_dropShadow_67_1989" result="shape"/>
</filter>
<filter id="filter4_d_67_1989" x="131.688" y="72.8444" width="320.886" height="382.472" filterUnits="userSpaceOnUse" color-interpolation-filters="sRGB">
<feFlood flood-opacity="0" result="BackgroundImageFix"/>
<feColorMatrix in="SourceAlpha" type="matrix" values="0 0 0 0 0 0 0 0 0 0 0 0 0 0 0 0 0 0 127 0" result="hardAlpha"/>
<feOffset dx="2.50484" dy="5.00968"/>
<feGaussianBlur stdDeviation="19.9135"/>
<feComposite in2="hardAlpha" operator="out"/>
<feColorMatrix type="matrix" values="0 0 0 0 0 0 0 0 0 0 0 0 0 0 0 0 0 0 0.05 0"/>
<feBlend mode="normal" in2="BackgroundImageFix" result="effect1_dropShadow_67_1989"/>
<feBlend mode="normal" in="SourceGraphic" in2="effect1_dropShadow_67_1989" result="shape"/>
</filter>
<filter id="filter5_d_67_1989" x="203.678" y="0.000142097" width="136.013" height="136.013" filterUnits="userSpaceOnUse" color-interpolation-filters="sRGB">
<feFlood flood-opacity="0" result="BackgroundImageFix"/>
<feColorMatrix in="SourceAlpha" type="matrix" values="0 0 0 0 0 0 0 0 0 0 0 0 0 0 0 0 0 0 127 0" result="hardAlpha"/>
<feOffset dx="2.50484" dy="5.00968"/>
<feGaussianBlur stdDeviation="19.9135"/>
<feComposite in2="hardAlpha" operator="out"/>
<feColorMatrix type="matrix" values="0 0 0 0 0 0 0 0 0 0 0 0 0 0 0 0 0 0 0.15 0"/>
<feBlend mode="normal" in2="BackgroundImageFix" result="effect1_dropShadow_67_1989"/>
<feBlend mode="normal" in="SourceGraphic" in2="effect1_dropShadow_67_1989" result="shape"/>
</filter>
<clipPath id="clip0_67_1989">
<path d="M350.178 70.468C350.99 62.2076 358.346 56.1702 366.606 56.983L557.305 75.7477C565.566 76.5605 571.603 83.9158 570.79 92.1762L545.525 348.934C544.713 357.195 537.357 363.232 529.097 362.42L338.398 343.655C330.137 342.842 324.1 335.487 324.913 327.226L350.178 70.468Z" fill="white"/>
</clipPath>
<clipPath id="clip1_67_1989">
<rect width="24" height="24" fill="white" transform="translate(517.674 83.8174) rotate(4)"/>
</clipPath>
<clipPath id="clip2_67_1989">
<rect width="24" height="24" fill="white" transform="translate(363.674 135.817) rotate(4)"/>
</clipPath>
</defs>
</svg>
