<svg width="287" height="286" viewBox="0 0 287 286" fill="none" xmlns="http://www.w3.org/2000/svg">
<g clip-path="url(#clip0_6_1019)">
<rect width="287" height="285.543" rx="11.6548" fill="#FBFBFB"/>
<rect x="23.3097" y="206.873" width="240.381" height="61.7919" rx="5.82741" fill="black"/>
<rect x="34.9645" y="224.657" width="26.2234" height="26.2234" rx="5.82741" fill="white"/>
<path d="M42.2488 240.682L42.2488 241.411C42.2488 242.618 43.2272 243.596 44.4341 243.596L51.7183 243.596C52.9252 243.596 53.9036 242.618 53.9036 241.411L53.9036 240.682M50.9899 234.855L48.0762 231.941M48.0762 231.941L45.1625 234.855M48.0762 231.941L48.0762 240.682" stroke="#101010" stroke-width="2.18528" stroke-linecap="round" stroke-linejoin="round"/>
<path d="M82.0209 235.528H74.3112V222.888H82.0209V224.462H76.0245V228.413H81.4265V229.934H76.0245V233.937H82.0209V235.528ZM84.5734 235.528H82.6853L85.6748 231.297L82.7028 226.979H84.6084L86.7762 230.161L88.8915 226.979H90.7621L87.7902 231.297L90.7097 235.528H88.8041L86.6713 232.399L84.5734 235.528ZM91.6087 239.356V226.979H93.0947L93.217 228.517C93.7939 227.346 94.9478 226.734 96.3114 226.734C98.7589 226.734 100.28 228.57 100.28 231.192C100.28 233.797 98.8463 235.755 96.3114 235.755C94.9478 235.755 93.8114 235.178 93.252 234.129V239.356H91.6087ZM93.2695 231.262C93.2695 233.01 94.2834 234.269 95.9617 234.269C97.64 234.269 98.6365 233.01 98.6365 231.262C98.6365 229.496 97.64 228.238 95.9617 228.238C94.2834 228.238 93.2695 229.479 93.2695 231.262ZM101.007 231.245C101.007 228.605 102.895 226.752 105.465 226.752C108.018 226.752 109.906 228.605 109.906 231.245C109.906 233.885 108.018 235.738 105.465 235.738C102.895 235.738 101.007 233.885 101.007 231.245ZM102.668 231.245C102.668 233.028 103.804 234.269 105.465 234.269C107.109 234.269 108.262 233.028 108.262 231.245C108.262 229.461 107.109 228.22 105.465 228.22C103.804 228.22 102.668 229.461 102.668 231.245ZM116.095 226.909V228.413H115.361C113.805 228.413 112.844 229.357 112.844 231V235.528H111.2V226.997H112.739L112.844 228.29C113.193 227.399 114.05 226.804 115.221 226.804C115.518 226.804 115.763 226.839 116.095 226.909ZM119.866 235.528H118.223V228.36H116.545V226.979H118.223V224.304H119.866V226.979H121.545V228.36H119.866V235.528ZM123.299 224.951C122.705 224.951 122.215 224.462 122.215 223.867C122.215 223.255 122.705 222.783 123.299 222.783C123.893 222.783 124.383 223.255 124.383 223.867C124.383 224.462 123.893 224.951 123.299 224.951ZM122.495 235.528V226.979H124.138V235.528H122.495ZM127.643 235.528H125.999V226.979H127.485L127.66 228.29C128.202 227.311 129.286 226.734 130.492 226.734C132.748 226.734 133.779 228.115 133.779 230.301V235.528H132.136V230.668C132.136 228.937 131.332 228.238 130.073 228.238C128.534 228.238 127.643 229.339 127.643 231V235.528ZM134.989 231.035C134.989 228.622 136.545 226.734 139.027 226.734C140.408 226.734 141.475 227.364 142.017 228.43L142.139 226.979H143.608V235.178C143.608 237.87 141.947 239.584 139.324 239.584C136.999 239.584 135.408 238.273 135.094 236.105H136.737C136.947 237.363 137.891 238.098 139.324 238.098C140.933 238.098 141.982 237.049 141.982 235.423V233.71C141.422 234.706 140.303 235.301 138.957 235.301C136.527 235.301 134.989 233.43 134.989 231.035ZM136.632 231C136.632 232.608 137.629 233.867 139.237 233.867C140.898 233.867 141.912 232.678 141.912 231C141.912 229.357 140.933 228.168 139.254 228.168C137.611 228.168 136.632 229.427 136.632 231Z" fill="white"/>
<rect x="72.8427" y="251.183" width="173.365" height="5.82741" rx="2.91371" fill="white" fill-opacity="0.2"/>
<rect x="72.8427" y="251.183" width="119.462" height="5.82741" rx="2.91371" fill="#FF4404"/>
<rect x="24.0381" y="24.038" width="238.924" height="164.624" rx="10.9264" stroke="black" stroke-opacity="0.4" stroke-width="1.45685" stroke-dasharray="5.83 5.83"/>
<rect x="106.35" y="46.6191" width="72.8426" height="72.8426" rx="11.6548" fill="#545454"/>
<rect x="112.178" y="62.6445" width="49.533" height="5.82741" rx="2.91371" fill="#FBFBFB"/>
<rect x="112.178" y="71.3857" width="62.6447" height="5.82741" rx="2.91371" fill="#FBFBFB"/>
<path d="M66.8752 149.574H62.6969V136.934H66.8052C70.5814 136.934 73.1338 139.486 73.1338 143.263C73.1338 147.021 70.6164 149.574 66.8752 149.574ZM66.6829 138.507H64.4102V147.983H66.7528C69.5674 147.983 71.3506 146.165 71.3506 143.263C71.3506 140.326 69.5674 138.507 66.6829 138.507ZM73.9499 145.291C73.9499 142.651 75.8379 140.798 78.4078 140.798C80.9602 140.798 82.8483 142.651 82.8483 145.291C82.8483 147.93 80.9602 149.784 78.4078 149.784C75.8379 149.784 73.9499 147.93 73.9499 145.291ZM75.6107 145.291C75.6107 147.074 76.747 148.315 78.4078 148.315C80.0512 148.315 81.205 147.074 81.205 145.291C81.205 143.507 80.0512 142.266 78.4078 142.266C76.747 142.266 75.6107 143.507 75.6107 145.291ZM83.5835 145.308C83.5835 142.633 85.2793 140.78 87.7793 140.78C89.9296 140.78 91.4331 142.004 91.7303 143.909H90.0869C89.8072 142.826 88.9331 142.249 87.8317 142.249C86.2758 142.249 85.2094 143.437 85.2094 145.291C85.2094 147.126 86.2059 148.315 87.7618 148.315C88.9331 148.315 89.8072 147.703 90.1044 146.689H91.7477C91.4156 148.542 89.8247 149.784 87.7618 149.784C85.2443 149.784 83.5835 148 83.5835 145.308ZM98.8661 141.025H100.492V149.574H99.0235L98.8487 148.28C98.3592 149.172 97.2228 149.784 95.9641 149.784C93.9711 149.784 92.8523 148.437 92.8523 146.34V141.025H94.4956V145.798C94.4956 147.633 95.2823 148.332 96.541 148.332C98.0445 148.332 98.8661 147.371 98.8661 145.535V141.025ZM103.995 149.574H102.352V141.025H103.82L103.978 142.144C104.415 141.34 105.324 140.78 106.53 140.78C107.859 140.78 108.803 141.444 109.24 142.511C109.642 141.444 110.673 140.78 112.002 140.78C113.96 140.78 115.149 142.004 115.149 143.979V149.574H113.54V144.382C113.54 143.035 112.789 142.266 111.635 142.266C110.394 142.266 109.572 143.14 109.572 144.504V149.574H107.946V144.364C107.946 143.018 107.212 142.284 106.058 142.284C104.817 142.284 103.995 143.14 103.995 144.504V149.574ZM120.591 149.784C118.074 149.784 116.343 147.965 116.343 145.308C116.343 142.633 118.039 140.78 120.521 140.78C122.951 140.78 124.542 142.458 124.542 144.993V145.605L117.934 145.623C118.056 147.423 119 148.42 120.626 148.42C121.902 148.42 122.741 147.895 123.021 146.916H124.56C124.14 148.752 122.706 149.784 120.591 149.784ZM120.521 142.161C119.088 142.161 118.179 143.018 117.969 144.521H122.899C122.899 143.105 121.972 142.161 120.521 142.161ZM127.496 149.574H125.853V141.025H127.339L127.514 142.336C128.056 141.357 129.14 140.78 130.346 140.78C132.601 140.78 133.633 142.161 133.633 144.347V149.574H131.989V144.714C131.989 142.983 131.185 142.284 129.926 142.284C128.388 142.284 127.496 143.385 127.496 145.046V149.574ZM137.797 149.574H136.154V142.406H134.475V141.025H136.154V138.35H137.797V141.025H139.475V142.406H137.797V149.574ZM150.206 149.766C146.604 149.766 144.209 147.179 144.209 143.263C144.209 139.364 146.674 136.724 150.293 136.724C153.143 136.724 155.328 138.42 155.8 141.007H153.964C153.492 139.364 152.076 138.368 150.241 138.368C147.688 138.368 146.01 140.291 146.01 143.245C146.01 146.2 147.688 148.123 150.241 148.123C152.094 148.123 153.562 147.126 154.034 145.57H155.852C155.311 148.088 153.055 149.766 150.206 149.766ZM156.59 145.291C156.59 142.651 158.478 140.798 161.048 140.798C163.6 140.798 165.488 142.651 165.488 145.291C165.488 147.93 163.6 149.784 161.048 149.784C158.478 149.784 156.59 147.93 156.59 145.291ZM158.25 145.291C158.25 147.074 159.387 148.315 161.048 148.315C162.691 148.315 163.845 147.074 163.845 145.291C163.845 143.507 162.691 142.266 161.048 142.266C159.387 142.266 158.25 143.507 158.25 145.291ZM168.426 149.574H166.783V141.025H168.251L168.409 142.144C168.846 141.34 169.755 140.78 170.961 140.78C172.29 140.78 173.234 141.444 173.671 142.511C174.073 141.444 175.104 140.78 176.433 140.78C178.391 140.78 179.58 142.004 179.58 143.979V149.574H177.971V144.382C177.971 143.035 177.22 142.266 176.066 142.266C174.825 142.266 174.003 143.14 174.003 144.504V149.574H172.377V144.364C172.377 143.018 171.643 142.284 170.489 142.284C169.248 142.284 168.426 143.14 168.426 144.504V149.574ZM181.333 153.402V141.025H182.819L182.942 142.563C183.519 141.392 184.672 140.78 186.036 140.78C188.483 140.78 190.004 142.616 190.004 145.238C190.004 147.843 188.571 149.801 186.036 149.801C184.672 149.801 183.536 149.224 182.977 148.175V153.402H181.333ZM182.994 145.308C182.994 147.056 184.008 148.315 185.686 148.315C187.365 148.315 188.361 147.056 188.361 145.308C188.361 143.542 187.365 142.284 185.686 142.284C184.008 142.284 182.994 143.525 182.994 145.308ZM192.97 149.574H191.326V136.707H192.97V149.574ZM198.553 149.784C196.036 149.784 194.305 147.965 194.305 145.308C194.305 142.633 196.001 140.78 198.483 140.78C200.913 140.78 202.504 142.458 202.504 144.993V145.605L195.896 145.623C196.018 147.423 196.962 148.42 198.588 148.42C199.864 148.42 200.703 147.895 200.983 146.916H202.521C202.102 148.752 200.668 149.784 198.553 149.784ZM198.483 142.161C197.05 142.161 196.14 143.018 195.931 144.521H200.861C200.861 143.105 199.934 142.161 198.483 142.161ZM206.142 149.574H204.499V142.406H202.821V141.025H204.499V138.35H206.142V141.025H207.82V142.406H206.142V149.574ZM212.374 149.784C209.857 149.784 208.126 147.965 208.126 145.308C208.126 142.633 209.822 140.78 212.304 140.78C214.734 140.78 216.325 142.458 216.325 144.993V145.605L209.717 145.623C209.839 147.423 210.783 148.42 212.409 148.42C213.685 148.42 214.525 147.895 214.804 146.916H216.343C215.923 148.752 214.49 149.784 212.374 149.784ZM212.304 142.161C210.871 142.161 209.962 143.018 209.752 144.521H214.682C214.682 143.105 213.755 142.161 212.304 142.161ZM221.063 149.784C218.58 149.784 217.077 147.93 217.077 145.326C217.077 142.703 218.598 140.78 221.133 140.78C222.444 140.78 223.545 141.357 224.122 142.406V136.707H225.748V149.574H224.279L224.14 148.018C223.58 149.189 222.426 149.784 221.063 149.784ZM221.395 148.298C223.073 148.298 224.105 147.056 224.105 145.273C224.105 143.525 223.073 142.266 221.395 142.266C219.717 142.266 218.738 143.525 218.738 145.273C218.738 147.039 219.717 148.298 221.395 148.298Z" fill="black"/>
<path d="M67.05 170.487L63.9469 160.056H65.0396L67.152 167.224C67.2977 167.734 67.4288 168.258 67.5599 168.943C67.7347 168.185 67.8804 167.734 68.0407 167.224L70.3134 160.056H71.406L73.6787 167.224C73.839 167.748 73.9846 168.273 74.1449 168.943C74.3051 168.142 74.4363 167.632 74.5528 167.239L76.709 160.056H77.7725L74.6402 170.487H73.6496L70.8524 161.63L68.0552 170.487H67.05ZM80.3052 170.662C78.2365 170.662 76.8525 169.176 76.8525 166.962C76.8525 164.762 78.2219 163.247 80.2324 163.247C82.1409 163.247 83.4374 164.602 83.4374 166.598V167.093H77.8286C77.9014 168.812 78.8047 169.803 80.3198 169.803C81.4707 169.803 82.2137 169.307 82.4759 168.375H83.4374C83.0587 169.861 81.966 170.662 80.3052 170.662ZM80.2324 164.106C78.9066 164.106 78.0325 164.98 77.8577 166.364H82.4322C82.4322 165.01 81.5581 164.106 80.2324 164.106ZM88.6044 170.487H87.5554V160.056H88.6044V164.704H94.2424V160.056H95.2768V170.487H94.2424V165.68H88.6044V170.487ZM98.7598 170.662C97.2592 170.662 96.3705 169.817 96.3705 168.579C96.3705 167.282 97.3612 166.466 99.0074 166.335L101.338 166.146V165.913C101.338 164.529 100.508 164.092 99.4736 164.092C98.2499 164.092 97.5215 164.645 97.5215 165.592H96.6036C96.6036 164.165 97.7691 163.247 99.5028 163.247C101.134 163.247 102.329 164.063 102.329 165.927V170.487H101.484L101.353 169.249C100.916 170.138 99.9544 170.662 98.7598 170.662ZM98.9929 169.846C100.479 169.846 101.338 168.812 101.338 167.282V166.903L99.2551 167.064C97.9294 167.18 97.3903 167.763 97.3903 168.55C97.3903 169.409 98.0314 169.846 98.9929 169.846ZM105.154 170.487L102.27 163.436H103.348L105.169 167.982C105.358 168.491 105.548 168.972 105.679 169.438C105.81 168.958 105.999 168.491 106.203 167.982L108.053 163.436H109.088L106.16 170.487H105.154ZM112.043 170.662C109.974 170.662 108.59 169.176 108.59 166.962C108.59 164.762 109.96 163.247 111.97 163.247C113.879 163.247 115.175 164.602 115.175 166.598V167.093H109.566C109.639 168.812 110.542 169.803 112.058 169.803C113.208 169.803 113.951 169.307 114.214 168.375H115.175C114.796 169.861 113.704 170.662 112.043 170.662ZM111.97 164.106C110.644 164.106 109.77 164.98 109.595 166.364H114.17C114.17 165.01 113.296 164.106 111.97 164.106ZM123.547 170.648C120.634 170.648 118.652 168.477 118.652 165.272C118.652 162.067 120.663 159.881 123.605 159.881C125.849 159.881 127.612 161.236 128.034 163.305H126.913C126.475 161.804 125.193 160.887 123.562 160.887C121.275 160.887 119.745 162.635 119.745 165.272C119.745 167.894 121.275 169.642 123.562 169.642C125.208 169.642 126.519 168.754 126.971 167.355H128.093C127.612 169.322 125.791 170.648 123.547 170.648ZM129.748 170.473H128.743V159.867H129.748V164.66C130.2 163.815 131.059 163.247 132.239 163.247C134.089 163.247 134.92 164.398 134.92 166.175V170.487H133.915V166.394C133.915 164.747 133.143 164.165 132.05 164.165C130.535 164.165 129.748 165.286 129.748 166.641V170.473ZM139.007 170.662C136.938 170.662 135.554 169.176 135.554 166.962C135.554 164.762 136.923 163.247 138.934 163.247C140.842 163.247 142.139 164.602 142.139 166.598V167.093H136.53C136.603 168.812 137.506 169.803 139.021 169.803C140.172 169.803 140.915 169.307 141.177 168.375H142.139C141.76 169.861 140.668 170.662 139.007 170.662ZM138.934 164.106C137.608 164.106 136.734 164.98 136.559 166.364H141.134C141.134 165.01 140.26 164.106 138.934 164.106ZM142.377 166.976C142.377 164.762 143.732 163.247 145.786 163.247C147.417 163.247 148.612 164.194 148.889 165.651H147.884C147.621 164.674 146.776 164.135 145.8 164.135C144.373 164.135 143.367 165.228 143.367 166.962C143.367 168.637 144.3 169.759 145.727 169.759C146.776 169.759 147.621 169.176 147.898 168.273H148.918C148.583 169.715 147.33 170.662 145.727 170.662C143.732 170.662 142.377 169.191 142.377 166.976ZM150.616 170.487H149.61V159.867H150.616V167.078L154.112 163.436H155.38L152.67 166.248L155.394 170.487H154.229L151.985 166.962L150.616 168.375V170.487ZM158.436 170.662C156.368 170.662 154.984 169.176 154.984 166.962C154.984 164.762 156.353 163.247 158.364 163.247C160.272 163.247 161.569 164.602 161.569 166.598V167.093H155.96C156.033 168.812 156.936 169.803 158.451 169.803C159.602 169.803 160.345 169.307 160.607 168.375H161.569C161.19 169.861 160.097 170.662 158.436 170.662ZM158.364 164.106C157.038 164.106 156.164 164.98 155.989 166.364H160.563C160.563 165.01 159.689 164.106 158.364 164.106ZM165.07 170.662C163.016 170.662 161.806 169.089 161.806 166.976C161.806 164.849 163.016 163.247 165.113 163.247C166.279 163.247 167.211 163.757 167.707 164.776V159.867H168.712V170.487H167.838L167.736 169.045C167.24 170.138 166.25 170.662 165.07 170.662ZM165.245 169.744C166.789 169.744 167.692 168.579 167.692 166.947C167.692 165.33 166.789 164.15 165.245 164.15C163.715 164.15 162.826 165.33 162.826 166.947C162.826 168.579 163.715 169.744 165.245 169.744ZM179.57 170.487H173.32V160.056H179.556V161.018H174.369V164.776H179.075V165.723H174.369V169.526H179.57V170.487ZM182.489 170.487L179.604 163.436H180.682L182.503 167.982C182.693 168.491 182.882 168.972 183.013 169.438C183.144 168.958 183.334 168.491 183.538 167.982L185.388 163.436H186.422L183.494 170.487H182.489ZM189.377 170.662C187.309 170.662 185.925 169.176 185.925 166.962C185.925 164.762 187.294 163.247 189.305 163.247C191.213 163.247 192.51 164.602 192.51 166.598V167.093H186.901C186.974 168.812 187.877 169.803 189.392 169.803C190.543 169.803 191.286 169.307 191.548 168.375H192.51C192.131 169.861 191.038 170.662 189.377 170.662ZM189.305 164.106C187.979 164.106 187.105 164.98 186.93 166.364H191.504C191.504 165.01 190.63 164.106 189.305 164.106ZM196.929 163.349V164.252H196.375C195.078 164.252 194.248 165.126 194.248 166.466V170.487H193.243V163.436H194.19L194.263 164.529C194.539 163.771 195.282 163.276 196.273 163.276C196.492 163.276 196.681 163.29 196.929 163.349ZM196.89 173.561V172.731H197.662C198.274 172.731 198.886 172.687 199.236 171.74L199.542 170.91L196.686 163.436H197.75L200.023 169.584L202.252 163.436H203.286L200.052 172.104C199.644 173.212 198.959 173.663 197.954 173.663C197.531 173.663 197.211 173.634 196.89 173.561ZM205.205 170.487H204.214V164.281H202.801V163.436H204.214V161.207H205.205V163.436H206.618V164.281H205.205V170.487ZM207.548 161.499C207.14 161.499 206.805 161.163 206.805 160.756C206.805 160.348 207.14 159.998 207.548 159.998C207.956 159.998 208.306 160.348 208.306 160.756C208.306 161.163 207.956 161.499 207.548 161.499ZM207.053 170.487V163.436H208.058V170.487H207.053ZM210.285 170.487H209.28V163.436H210.154L210.3 164.66C210.766 163.757 211.698 163.247 212.718 163.247C214.656 163.247 215.457 164.398 215.457 166.175V170.487H214.452V166.394C214.452 164.747 213.709 164.165 212.543 164.165C211.101 164.165 210.285 165.213 210.285 166.801V170.487ZM216.106 166.758C216.106 164.835 217.344 163.247 219.413 163.247C220.637 163.247 221.569 163.815 222.021 164.849L222.123 163.436H222.997V170.269C222.997 172.367 221.656 173.736 219.588 173.736C217.781 173.736 216.514 172.716 216.237 171.012H217.242C217.461 172.148 218.335 172.818 219.602 172.818C221.044 172.818 222.006 171.842 222.006 170.371V168.695C221.525 169.686 220.549 170.269 219.34 170.269C217.33 170.269 216.106 168.681 216.106 166.758ZM217.111 166.743C217.111 168.185 218 169.366 219.486 169.366C221.015 169.366 221.919 168.258 221.919 166.743C221.919 165.243 221.044 164.135 219.5 164.135C217.985 164.135 217.111 165.315 217.111 166.743Z" fill="black" fill-opacity="0.6"/>
<rect x="93.2385" y="94.6953" width="99.066" height="26.2233" rx="5.82741" fill="#FFD4C5"/>
<rect x="99.0659" y="100.523" width="67.0152" height="5.82741" rx="2.91371" fill="#545454"/>
<rect x="99.0659" y="109.264" width="84.4975" height="5.82741" rx="2.91371" fill="#545454"/>
</g>
<defs>
<clipPath id="clip0_6_1019">
<rect width="287" height="285.543" rx="11.6548" fill="white"/>
</clipPath>
</defs>
</svg>
